<svg width="15" height="15" viewBox="0 0 15 15" fill="none" xmlns="http://www.w3.org/2000/svg">
<path d="M4.88149 13.7947L10.119 13.7947C12.394 13.7947 13.7502 12.4869 13.7502 10.2931L13.7502 5.2487C13.7502 3.04892 12.394 1.74111 10.119 1.74111L4.88774 1.74111C2.61274 1.74111 1.25649 3.04892 1.25649 5.24267L1.25649 10.2931C1.25024 12.4869 2.60649 13.7947 4.88149 13.7947ZM4.48774 8.47905C4.66899 8.30428 4.96899 8.30428 5.15024 8.47905L7.03149 10.2931L7.03149 4.15182C7.03149 3.90472 7.24399 3.69981 7.50024 3.69981C7.75649 3.69981 7.96899 3.90472 7.96899 4.15182L7.96899 10.2931L9.85024 8.47905C10.0315 8.30428 10.3315 8.30428 10.5127 8.47905C10.6065 8.56945 10.6502 8.68396 10.6502 8.79847C10.6502 8.91298 10.6002 9.03352 10.5127 9.11789L7.83149 11.7034C7.74399 11.7878 7.62524 11.836 7.50024 11.836C7.37524 11.836 7.25649 11.7878 7.16899 11.7034L4.48774 9.11789C4.30649 8.94311 4.30649 8.65986 4.48774 8.47905Z" fill="#FF0000" fill-opacity="0.5"/>
</svg>
