<svg width="15" height="15" viewBox="0 0 15 15" fill="none" xmlns="http://www.w3.org/2000/svg">
<path d="M10.1185 1.20532H4.88101C2.60601 1.20532 1.24976 2.51313 1.24976 4.70688V9.7513C1.24976 11.9511 2.60601 13.2589 4.88101 13.2589H10.1123C12.3873 13.2589 13.7435 11.9511 13.7435 9.75733V4.70688C13.7498 2.51313 12.3935 1.20532 10.1185 1.20532ZM10.5123 6.52095C10.331 6.69572 10.031 6.69572 9.84976 6.52095L7.96851 4.70688V10.8482C7.96851 11.0953 7.75601 11.3002 7.49976 11.3002C7.24351 11.3002 7.03101 11.0953 7.03101 10.8482V4.70688L5.14976 6.52095C4.96851 6.69572 4.66851 6.69572 4.48726 6.52095C4.39351 6.43055 4.34976 6.31604 4.34976 6.20153C4.34976 6.08702 4.39976 5.96648 4.48726 5.88211L7.16851 3.29662C7.25601 3.21224 7.37476 3.16403 7.49976 3.16403C7.62476 3.16403 7.74351 3.21224 7.83101 3.29662L10.5123 5.88211C10.6935 6.05689 10.6935 6.34014 10.5123 6.52095Z" fill="#30A753" fill-opacity="0.38"/>
</svg>
