<svg width="260" height="166" viewBox="0 0 260 166" fill="none" xmlns="http://www.w3.org/2000/svg">
<g filter="url(#filter0_bd_586_6210)">
<path fill-rule="evenodd" clip-rule="evenodd" d="M57.8612 31.3125C47.3754 30.9128 38.551 39.0893 38.1514 49.5751L36.5518 91.5446C36.1521 102.03 44.3286 110.855 54.8144 111.254L121.316 113.789C121.377 113.87 121.445 113.948 121.521 114.023L131.587 123.954C132.323 124.681 133.493 124.726 134.283 124.057L145.076 114.921C145.157 114.852 145.231 114.779 145.298 114.703L201.808 116.857C212.293 117.256 221.118 109.08 221.517 98.5942L223.117 56.6247C223.517 46.1389 215.34 37.3145 204.854 36.9149L57.8612 31.3125Z" fill="white" fill-opacity="0.85" shape-rendering="crispEdges"/>
</g>
<path d="M75.1641 90.098C73.7744 90.045 72.6217 89.5341 71.7059 88.5652C70.7902 87.5963 70.3595 86.3983 70.4139 84.9714C70.4686 83.5351 70.9892 82.3734 71.9757 81.4863C72.9626 80.5899 74.1508 80.1682 75.5405 80.2212C76.5478 80.2596 77.4341 80.5315 78.1994 81.037C78.974 81.5429 79.5308 82.2506 79.8697 83.1602L78.3308 83.1015C77.7942 81.9883 76.8497 81.4059 75.4973 81.3544C74.4434 81.3142 73.5581 81.6307 72.8412 82.3039C72.1341 82.9681 71.7586 83.8738 71.7149 85.021C71.6712 86.1681 71.9764 87.1044 72.6306 87.8299C73.2941 88.5557 74.1528 88.9387 75.2067 88.9788C75.8503 89.0033 76.4292 88.8853 76.9435 88.6247C77.4581 88.3548 77.8655 87.9593 78.1655 87.4384L79.7044 87.497C79.2972 88.3782 78.6882 89.0415 77.8773 89.4869C77.0758 89.9327 76.1713 90.1364 75.1641 90.098ZM84.9162 89.461C85.6344 89.4883 86.2644 89.2555 86.8062 88.7624C87.3577 88.2604 87.6509 87.5524 87.6857 86.6384C87.7206 85.7244 87.4959 85.0013 87.0119 84.4692C86.5278 83.937 85.922 83.6571 85.1945 83.6293C84.4764 83.602 83.865 83.8355 83.3605 84.33C82.856 84.8245 82.5861 85.5334 82.5509 86.4567C82.5161 87.3707 82.7221 88.0931 83.1688 88.6238C83.6156 89.1545 84.1981 89.4336 84.9162 89.461ZM82.1898 89.315C81.518 88.5609 81.2047 87.5916 81.2499 86.4071C81.295 85.2226 81.6998 84.2807 82.4644 83.5813C83.2292 82.8726 84.1666 82.5394 85.2765 82.5817C86.3863 82.624 87.2956 83.0276 88.0043 83.7925C88.7134 84.548 89.0454 85.518 89.0002 86.7025C88.9554 87.8776 88.532 88.8189 87.7298 89.5262C86.9373 90.2245 85.9861 90.5525 84.8762 90.5102C83.7664 90.4679 82.8709 90.0695 82.1898 89.315ZM90.8869 86.0319L90.9284 84.9407L96.5104 85.1534L96.4688 86.2446L90.8869 86.0319ZM98.6575 90.9094L99.027 81.2144L104.483 81.4223L104.444 82.4436L100.261 82.2842L100.136 85.5718L103.437 85.6976L103.399 86.7049L100.097 86.5791L99.9306 90.9579L98.6575 90.9094ZM108.825 90.3722C109.543 90.3996 110.173 90.1667 110.715 89.6737C111.266 89.1716 111.559 88.4636 111.594 87.5496C111.629 86.6356 111.404 85.9125 110.92 85.3804C110.436 84.8482 109.83 84.5683 109.103 84.5406C108.385 84.5132 107.773 84.7467 107.269 85.2412C106.764 85.7357 106.495 86.4446 106.459 87.3679C106.425 88.2819 106.63 89.0043 107.077 89.535C107.524 90.0658 108.106 90.3448 108.825 90.3722ZM106.098 90.2262C105.426 89.4721 105.113 88.5028 105.158 87.3183C105.203 86.1339 105.608 85.1919 106.373 84.4925C107.138 83.7838 108.075 83.4506 109.185 83.4929C110.295 83.5352 111.204 83.9388 111.913 84.7037C112.622 85.4592 112.954 86.4293 112.909 87.6137C112.864 88.7889 112.44 89.7301 111.638 90.4374C110.846 91.1357 109.895 91.4637 108.785 91.4214C107.675 91.3791 106.779 90.9807 106.098 90.2262ZM120.062 84.0336L121.335 84.0821L121.042 91.7625L119.769 91.714L119.816 90.4829C119.269 91.368 118.417 91.7885 117.26 91.7445C116.411 91.7121 115.713 91.4053 115.166 90.824C114.618 90.2334 114.365 89.4205 114.404 88.3852L114.578 83.8245L115.837 83.8725L115.671 88.2234C115.642 88.9882 115.806 89.5828 116.164 90.0074C116.531 90.423 117.041 90.6433 117.694 90.6682C118.346 90.6931 118.867 90.5121 119.255 90.1253C119.653 89.7295 119.867 89.1492 119.896 88.3844L120.062 84.0336ZM124.706 84.2105L124.658 85.4556C125.215 84.5615 126.067 84.1364 127.215 84.1801C128.063 84.2124 128.761 84.5239 129.308 85.1145C129.856 85.6958 130.11 86.5087 130.07 87.5533L129.897 92.1L128.638 92.052L128.803 87.7151C128.833 86.941 128.668 86.3464 128.311 85.9311C127.953 85.5158 127.443 85.2956 126.781 85.2703C126.128 85.2455 125.603 85.4263 125.205 85.8127C124.817 86.1996 124.608 86.78 124.578 87.5541L124.413 91.891L123.14 91.8424L123.432 84.162L124.706 84.2105ZM137.209 90.6274C137.742 90.1247 138.025 89.4396 138.058 88.5723C138.091 87.7049 137.861 87.0003 137.368 86.4584C136.884 85.917 136.283 85.6325 135.565 85.6052C134.857 85.5781 134.236 85.8067 133.704 86.2908C133.181 86.7752 132.903 87.4511 132.87 88.3185C132.837 89.1858 133.067 89.8998 133.559 90.4603C134.051 91.0208 134.652 91.3145 135.361 91.3415C136.07 91.3685 136.686 91.1305 137.209 90.6274ZM135.081 92.4237C134.037 92.3839 133.179 91.9776 132.508 91.2048C131.837 90.4227 131.524 89.4487 131.568 88.2829C131.613 87.1077 131.994 86.1742 132.712 85.4824C133.439 84.7816 134.33 84.4513 135.384 84.4914C136.036 84.5163 136.6 84.6919 137.073 85.0181C137.555 85.3448 137.913 85.76 138.146 86.2639L138.307 82.053L139.594 82.102L139.199 92.4545L137.912 92.4055L137.972 90.8386C137.701 91.3326 137.312 91.7288 136.806 92.0271C136.309 92.3163 135.734 92.4486 135.081 92.4237ZM144.509 92.783C143.409 92.7411 142.527 92.3432 141.865 91.5894C141.202 90.8356 140.894 89.8619 140.939 88.6681C140.985 87.4743 141.371 86.5316 142.098 85.8401C142.825 85.1393 143.744 84.8101 144.854 84.8524C145.973 84.895 146.855 85.2742 147.5 85.99C148.155 86.6968 148.462 87.5818 148.422 88.645C148.411 88.9155 148.383 89.1666 148.337 89.3983L142.223 89.1653C142.232 89.9315 142.446 90.5468 142.868 91.0112C143.299 91.4666 143.859 91.7075 144.549 91.7338C145.072 91.7537 145.514 91.6538 145.878 91.4341C146.25 91.2148 146.528 90.9172 146.71 90.5412L148.081 90.5935C147.813 91.2557 147.372 91.7947 146.759 92.2103C146.155 92.6262 145.405 92.8171 144.509 92.783ZM147.099 88.4265C147.118 87.6893 146.907 87.0929 146.467 86.6371C146.027 86.172 145.467 85.9265 144.786 85.9005C144.114 85.8749 143.546 86.0728 143.082 86.4941C142.618 86.906 142.348 87.4888 142.273 88.2425L147.099 88.4265ZM151.415 85.2285L151.365 86.5296C151.858 85.5957 152.655 85.1497 153.756 85.1917L153.705 86.5207L153.369 86.5079C152.717 86.483 152.211 86.6365 151.853 86.9685C151.504 87.2914 151.314 87.8726 151.282 88.712L151.122 92.9089L149.849 92.8604L150.142 85.18L151.415 85.2285ZM154.532 92.1002L155.833 92.1498C156.224 94.1261 155.767 95.0894 154.462 95.0397L154.485 94.4241C154.718 94.433 154.888 94.3834 154.995 94.2754C155.111 94.1678 155.174 93.9927 155.183 93.7502L155.195 93.4285L154.482 93.4013L154.532 92.1002ZM166.221 93.5685C164.831 93.5155 163.679 93.0046 162.763 92.0357C161.847 91.0667 161.416 89.8688 161.471 88.4418C161.526 87.0055 162.046 85.8439 163.033 84.9568C164.02 84.0604 165.208 83.6387 166.597 83.6916C167.605 83.73 168.491 84.002 169.256 84.5075C170.031 85.0134 170.588 85.7211 170.927 86.6307L169.388 86.572C168.851 85.4588 167.907 84.8764 166.554 84.8248C165.5 84.7847 164.615 85.1012 163.898 85.7744C163.191 86.4386 162.816 87.3443 162.772 88.4914C162.728 89.6386 163.033 90.5749 163.688 91.3003C164.351 92.0261 165.21 92.4091 166.264 92.4493C166.907 92.4738 167.486 92.3558 168 92.0952C168.515 91.8252 168.922 91.4298 169.222 90.9089L170.761 90.9675C170.354 91.8486 169.745 92.5119 168.934 92.9574C168.133 93.4032 167.228 93.6069 166.221 93.5685ZM178.168 84.2307L178.13 85.238L174.269 85.0908L174.143 88.3924L177.584 88.5236L177.546 89.5169L174.105 89.3857L173.976 92.7712L177.837 92.9184L177.799 93.9257L172.664 93.73L173.034 84.035L178.168 84.2307ZM186.844 92.1829C187.551 91.5094 187.927 90.599 187.971 89.4518C188.014 88.3047 187.709 87.373 187.055 86.6569C186.4 85.9315 185.542 85.5485 184.478 85.508C183.425 85.4678 182.539 85.7843 181.822 86.4575C181.115 87.1217 180.74 88.0274 180.696 89.1746C180.652 90.3217 180.962 91.2582 181.626 91.984C182.289 92.7098 183.148 93.0928 184.202 93.133C185.256 93.1731 186.136 92.8564 186.844 92.1829ZM184.159 94.2661C182.769 94.2132 181.616 93.7022 180.7 92.7333C179.785 91.7551 179.355 90.5525 179.409 89.1255C179.464 87.6892 179.984 86.5275 180.971 85.6405C181.958 84.7441 183.146 84.3224 184.536 84.3753C185.925 84.4283 187.073 84.939 187.98 85.9076C188.896 86.8672 189.327 88.0651 189.272 89.5014C189.217 90.9377 188.696 92.1041 187.709 93.0005C186.732 93.8972 185.548 94.3191 184.159 94.2661Z" fill="#71717A"/>
<path d="M80.7522 60.8776L81.0508 53.0433L83.2892 53.1286L82.9906 60.9629C82.9495 62.0395 82.5923 62.8691 81.919 63.4519C81.2563 64.0351 80.4133 64.3072 79.3901 64.2682C78.3668 64.2292 77.5417 63.8935 76.9146 63.2612C76.2876 62.6288 75.9946 61.7744 76.0356 60.6978L78.29 60.7837C78.2832 61.2425 78.3815 61.6038 78.5849 61.8678C78.7887 62.121 79.0825 62.255 79.4662 62.2696C79.85 62.2842 80.1531 62.173 80.3756 61.936C80.6092 61.6887 80.7347 61.3359 80.7522 60.8776ZM89.4961 64.6694C88.2064 64.6202 87.1723 64.1645 86.3939 63.3022C85.6159 62.4293 85.2532 61.3053 85.3056 59.9303C85.358 58.5553 85.8049 57.4729 86.6462 56.683C87.4986 55.8829 88.5697 55.5074 89.8594 55.5566C91.1598 55.6061 92.2103 56.0518 93.0108 56.8936C93.8117 57.7247 94.1866 58.8117 94.1354 60.1548C94.1236 60.4639 94.0914 60.7509 94.0386 61.0157L87.5793 60.7695C87.6106 61.3471 87.8061 61.8189 88.1658 62.1849C88.5254 62.5508 88.9931 62.7448 89.5686 62.7667C90.3467 62.7964 90.9345 62.4986 91.3319 61.8732L93.7622 61.9659C93.4743 62.7982 92.9524 63.4668 92.1966 63.9717C91.4409 64.4766 90.5407 64.7092 89.4961 64.6694ZM91.8237 59.4742C91.814 58.8868 91.6134 58.4095 91.2218 58.0423C90.8408 57.6755 90.3678 57.4813 89.8029 57.4598C89.238 57.4383 88.757 57.5961 88.3598 57.9332C87.9734 58.2707 87.7317 58.7312 87.6347 59.3146L91.8237 59.4742ZM98.3288 56.0075L98.2782 57.3345C98.8801 56.3861 99.8153 55.936 101.084 55.9844C102.096 56.023 102.91 56.3902 103.523 57.0861C104.138 57.7713 104.422 58.7055 104.377 59.8886L104.179 65.1009L101.94 65.0156L102.127 60.1231C102.153 59.4303 101.997 58.896 101.66 58.5201C101.322 58.1337 100.849 57.9289 100.242 57.9057C99.6343 57.8825 99.1422 58.0506 98.7656 58.4098C98.4001 58.7588 98.2041 59.2798 98.1777 59.9726L97.9912 64.865L95.7368 64.7791L96.0744 55.9215L98.3288 56.0075ZM109.087 56.4175L109.036 57.7445C109.638 56.7961 110.573 56.346 111.841 56.3944C112.854 56.433 113.667 56.8002 114.281 57.4961C114.896 58.1813 115.18 59.1155 115.135 60.2987L114.937 65.5109L112.698 65.4256L112.885 60.5331C112.911 59.8403 112.755 59.306 112.417 58.9302C112.08 58.5437 111.607 58.3389 111 58.3157C110.392 58.2926 109.9 58.4606 109.523 58.8199C109.158 59.1689 108.962 59.6898 108.935 60.3826L108.749 65.2751L106.495 65.1891L106.832 56.3316L109.087 56.4175ZM119.641 65.5301L116.503 56.7001L119.029 56.7964L121.043 63.1818L123.666 56.9731L126.016 57.0627L119.987 69.8984L117.636 69.8088L119.641 65.5301ZM144.701 55.4692L147.115 55.5612L143.46 66.598L140.902 66.5005L139.041 58.6319L136.521 66.3335L133.963 66.236L131.223 54.9555L133.621 55.0469L135.435 63.7463L138.018 55.2145L140.56 55.3114L142.361 63.9302L144.701 55.4692ZM151.007 55.7576C150.993 56.1413 150.847 56.4613 150.57 56.7176C150.294 56.9739 149.963 57.0948 149.58 57.0802C149.207 57.0659 148.892 56.9205 148.636 56.6439C148.379 56.3673 148.259 56.0371 148.273 55.6534C148.288 55.2696 148.433 54.9496 148.71 54.6933C148.987 54.437 149.311 54.3159 149.685 54.3302C150.068 54.3448 150.388 54.4904 150.645 54.767C150.901 55.0437 151.022 55.3738 151.007 55.7576ZM148.089 66.7744L148.427 57.9169L150.681 58.0028L150.344 66.8604L148.089 66.7744ZM152.742 66.9518L153.193 55.1204L155.448 55.2063L154.997 67.0377L152.742 66.9518ZM157.138 60.8428C157.168 60.0753 157.517 59.4429 158.187 58.9453C158.858 58.4478 159.731 58.2196 160.807 58.2606C161.884 58.3017 162.737 58.5957 163.368 59.1428C163.998 59.6792 164.318 60.3906 164.327 61.2769L162.025 61.1891C161.989 60.4406 161.545 60.05 160.692 60.0175C160.266 60.0013 159.932 60.074 159.691 60.2356C159.45 60.3972 159.324 60.6272 159.313 60.9256C159.301 61.2241 159.468 61.4653 159.814 61.6492C160.159 61.8332 160.58 61.9827 161.077 62.0977C161.575 62.2127 162.066 62.3542 162.55 62.5221C163.046 62.6798 163.463 62.9518 163.8 63.3383C164.138 63.7141 164.296 64.2058 164.272 64.8134C164.242 65.6128 163.876 66.25 163.175 66.7249C162.484 67.2003 161.611 67.4179 160.556 67.3777C159.511 67.3379 158.663 67.06 158.01 66.5441C157.358 66.0175 157.017 65.2894 156.988 64.3596L159.291 64.4474C159.348 65.1967 159.808 65.5879 160.671 65.6208C161.087 65.6366 161.426 65.5588 161.689 65.3874C161.952 65.2053 162.089 64.965 162.1 64.6665C162.112 64.3574 161.945 64.1109 161.6 63.9269C161.255 63.7323 160.834 63.5775 160.337 63.4625C159.84 63.3475 159.343 63.2111 158.847 63.0535C158.362 62.8962 157.951 62.635 157.612 62.2699C157.274 61.894 157.116 61.4184 157.138 60.8428ZM170.093 65.8358C170.722 65.8597 171.269 65.6511 171.734 65.2098C172.21 64.7583 172.464 64.1115 172.496 63.2694C172.529 62.4167 172.33 61.7527 171.9 61.2773C171.47 60.8019 170.935 60.552 170.295 60.5276C169.666 60.5037 169.125 60.7125 168.67 61.1542C168.216 61.5959 167.972 62.2431 167.94 63.0958C167.907 63.9485 168.101 64.6123 168.52 65.0873C168.94 65.5623 169.464 65.8118 170.093 65.8358ZM166.823 66.3516C165.991 65.4766 165.602 64.357 165.654 62.9926C165.706 61.6283 166.185 60.5471 167.09 59.749C167.996 58.9509 169.094 58.5765 170.384 58.6256C171.684 58.6752 172.755 59.1323 173.598 59.997C174.44 60.8617 174.835 61.9763 174.783 63.3406C174.731 64.7049 174.247 65.7913 173.33 66.5996C172.424 67.4084 171.321 67.7879 170.02 67.7384C168.72 67.6888 167.654 67.2266 166.823 66.3516ZM178.989 59.0817L178.938 60.4087C179.54 59.4603 180.475 59.0102 181.744 59.0586C182.756 59.0972 183.57 59.4644 184.184 60.1603C184.798 60.8455 185.083 61.7797 185.038 62.9629L184.839 68.1751L182.601 68.0898L182.787 63.1973C182.813 62.5045 182.658 61.9702 182.32 61.5944C181.982 61.2079 181.51 61.0031 180.902 60.9799C180.295 60.9568 179.802 61.1248 179.426 61.4841C179.06 61.8331 178.864 62.354 178.838 63.0468L178.651 67.9393L176.397 67.8533L176.735 58.9958L178.989 59.0817Z" fill="#090914"/>
<defs>
<filter id="filter0_bd_586_6210" x="0.539062" y="0.298828" width="258.594" height="165.231" filterUnits="userSpaceOnUse" color-interpolation-filters="sRGB">
<feFlood flood-opacity="0" result="BackgroundImageFix"/>
<feGaussianBlur in="BackgroundImageFix" stdDeviation="9.5"/>
<feComposite in2="SourceAlpha" operator="in" result="effect1_backgroundBlur_586_6210"/>
<feColorMatrix in="SourceAlpha" type="matrix" values="0 0 0 0 0 0 0 0 0 0 0 0 0 0 0 0 0 0 127 0" result="hardAlpha"/>
<feOffset dy="5"/>
<feGaussianBlur stdDeviation="18"/>
<feComposite in2="hardAlpha" operator="out"/>
<feColorMatrix type="matrix" values="0 0 0 0 0 0 0 0 0 0 0 0 0 0 0 0 0 0 0.12 0"/>
<feBlend mode="normal" in2="effect1_backgroundBlur_586_6210" result="effect2_dropShadow_586_6210"/>
<feBlend mode="normal" in="SourceGraphic" in2="effect2_dropShadow_586_6210" result="shape"/>
</filter>
</defs>
</svg>
