<svg width="80" height="80" viewBox="0 0 80 80" fill="none" xmlns="http://www.w3.org/2000/svg">
<g id="confluence">
<g id="confluence_2">
<path id="vector" fill-rule="evenodd" clip-rule="evenodd" d="M12.1758 55.8036C11.5552 56.8568 10.8583 58.0789 10.2664 59.0526C9.73662 59.9843 10.021 61.186 10.9061 61.755L23.3169 69.7034C23.7526 69.9833 24.278 70.0695 24.7752 69.9424C25.2725 69.8154 25.6998 69.4859 25.9614 69.0278C26.4578 68.1634 27.0975 67.0407 27.7944 65.8385C32.711 57.3933 37.6563 58.4266 46.573 62.8579L58.8788 68.9483C59.3449 69.1792 59.8809 69.2038 60.3648 69.0167C60.8486 68.8295 61.239 68.4464 61.4469 67.9548L67.3564 54.045C67.7739 53.0516 67.3491 51.8932 66.4017 51.4419C63.805 50.1702 58.6402 47.6366 53.9909 45.3018C37.2648 36.8467 23.0496 37.3931 12.1758 55.8036Z" fill="url(#paint0_linear_154_716)"/>
<path id="vector_2" fill-rule="evenodd" clip-rule="evenodd" d="M67.8246 24.2388C68.4451 23.1856 69.1421 21.9635 69.734 20.9899C70.2638 20.0581 69.9794 18.8564 69.0943 18.2874L56.6835 10.339C56.2443 10.0311 55.7019 9.92691 55.1861 10.0512C54.6702 10.1756 54.2271 10.5173 53.9626 10.9947C53.4662 11.8591 52.8265 12.9818 52.1296 14.184C47.213 22.6292 42.2678 21.5959 33.351 17.1647L21.0833 11.104C20.6173 10.8732 20.0813 10.8485 19.5974 11.0357C19.1136 11.2229 18.7232 11.6059 18.5153 12.0976L12.6058 26.0073C12.1883 27.0007 12.6131 28.1591 13.5605 28.6104C16.1572 29.8821 21.322 32.4157 25.9713 34.7505C42.7355 43.1957 56.9508 42.6294 67.8246 24.2388Z" fill="url(#paint1_linear_154_716)"/>
</g>
</g>
<defs>
<linearGradient id="paint0_linear_154_716" x1="67.0223" y1="73.8068" x2="52.1664" y2="41.0586" gradientUnits="userSpaceOnUse">
<stop offset="0.18" stop-color="#0052CC"/>
<stop offset="1" stop-color="#2684FF"/>
</linearGradient>
<linearGradient id="paint1_linear_154_716" x1="12.9781" y1="6.22568" x2="27.8573" y2="38.9889" gradientUnits="userSpaceOnUse">
<stop offset="0.18" stop-color="#0052CC"/>
<stop offset="1" stop-color="#2684FF"/>
</linearGradient>
</defs>
</svg>
