<svg width="336" height="264" viewBox="0 0 336 264" fill="none" xmlns="http://www.w3.org/2000/svg">
<mask id="mask0_746_996" style="mask-type:luminance" maskUnits="userSpaceOnUse" x="0" y="0" width="336" height="215">
<path d="M0 0H336V214.005H0V0Z" fill="white"/>
</mask>
<g mask="url(#mask0_746_996)">
<mask id="mask1_746_996" style="mask-type:luminance" maskUnits="userSpaceOnUse" x="-3" y="0" width="339" height="214">
<path d="M0.72305 96.6411C-9.69729 128.103 4.41471 162.882 32.7003 177.137C54.5088 188.128 92.1725 203.479 143.255 210.874C227.791 223.115 304.327 192.579 324.957 150.392C345.59 108.207 340.879 46.4425 279.674 16.6221C218.472 -13.1956 129.903 0.29489 113.231 33.6619C96.5598 67.029 67.3064 67.4018 31.4116 68.2816C16.455 68.6461 5.99868 80.7195 0.72305 96.6411Z" fill="white"/>
</mask>
<g mask="url(#mask1_746_996)">
<path d="M0.0078125 -11.1855H335.992V264.001H0.0078125V-11.1855Z" fill="#F4F4FD"/>
</g>
</g>
<mask id="mask2_746_996" style="mask-type:luminance" maskUnits="userSpaceOnUse" x="38" y="0" width="38" height="215">
<path d="M38.9922 0H75.1386V214.005H38.9922V0Z" fill="white"/>
</mask>
<g mask="url(#mask2_746_996)">
<mask id="mask3_746_996" style="mask-type:luminance" maskUnits="userSpaceOnUse" x="-3" y="0" width="340" height="214">
<path d="M0.762112 96.6411C-9.65822 128.103 4.45377 162.882 32.7394 177.137C54.5479 188.128 92.2115 203.479 143.294 210.874C227.83 223.115 304.366 192.579 324.997 150.392C345.629 108.207 340.918 46.4425 279.713 16.6221C218.511 -13.1956 129.942 0.29489 113.27 33.6619C96.5989 67.029 67.3455 67.4018 31.4506 68.2816C16.494 68.6461 6.03774 80.7195 0.762112 96.6411Z" fill="white"/>
</mask>
<g mask="url(#mask3_746_996)">
<path d="M39.4219 -11.1855H74.5466V217.744H39.4219V-11.1855Z" fill="#DAD9E7"/>
</g>
</g>
<mask id="mask4_746_996" style="mask-type:luminance" maskUnits="userSpaceOnUse" x="83" y="143" width="61" height="72">
<path d="M83.0234 143.838H143.487V214.004H83.0234V143.838Z" fill="white"/>
</mask>
<g mask="url(#mask4_746_996)">
<mask id="mask5_746_996" style="mask-type:luminance" maskUnits="userSpaceOnUse" x="-3" y="0" width="340" height="214">
<path d="M0.762112 96.6382C-9.65822 128.1 4.45377 162.879 32.7394 177.134C54.5479 188.125 92.2115 203.476 143.294 210.871C227.83 223.112 304.366 192.576 324.997 150.389C345.629 108.205 340.918 46.4396 279.713 16.6192C218.511 -13.1985 129.942 0.291961 113.27 33.659C96.5989 67.0261 67.3455 67.3988 31.4506 68.2786C16.494 68.6432 6.03774 80.7166 0.762112 96.6382Z" fill="white"/>
</mask>
<g mask="url(#mask5_746_996)">
<path d="M143.333 217.739H83.4453V144.364H143.333V217.739Z" fill="#DAD9E7"/>
</g>
</g>
<mask id="mask6_746_996" style="mask-type:luminance" maskUnits="userSpaceOnUse" x="166" y="0" width="122" height="102">
<path d="M166.5 0H287.426V101.74H166.5V0Z" fill="white"/>
</mask>
<g mask="url(#mask6_746_996)">
<mask id="mask7_746_996" style="mask-type:luminance" maskUnits="userSpaceOnUse" x="-3" y="0" width="339" height="214">
<path d="M0.72305 96.6411C-9.69729 128.103 4.41471 162.882 32.7003 177.137C54.5088 188.128 92.1725 203.479 143.255 210.874C227.791 223.115 304.327 192.579 324.957 150.392C345.59 108.207 340.879 46.4425 279.674 16.6221C218.472 -13.1956 129.903 0.29489 113.231 33.6619C96.5598 67.029 67.3064 67.4018 31.4116 68.2816C16.455 68.6461 5.99868 80.7195 0.72305 96.6411Z" fill="white"/>
</mask>
<g mask="url(#mask7_746_996)">
<path d="M166.688 -11.1855H287.27V101.513H166.688V-11.1855Z" fill="#DAD9E7"/>
</g>
</g>
<mask id="mask8_746_996" style="mask-type:luminance" maskUnits="userSpaceOnUse" x="172" y="0" width="110" height="95">
<path d="M172.414 0H281.511V94.022H172.414V0Z" fill="white"/>
</mask>
<g mask="url(#mask8_746_996)">
<mask id="mask9_746_996" style="mask-type:luminance" maskUnits="userSpaceOnUse" x="-3" y="0" width="339" height="214">
<path d="M0.72305 96.6411C-9.69729 128.103 4.41471 162.882 32.7003 177.137C54.5088 188.128 92.1725 203.479 143.255 210.874C227.791 223.115 304.327 192.579 324.957 150.392C345.59 108.207 340.879 46.4425 279.674 16.6221C218.472 -13.1956 129.903 0.29489 113.231 33.6619C96.5598 67.029 67.3064 67.4018 31.4116 68.2816C16.455 68.6461 5.99868 80.7195 0.72305 96.6411Z" fill="white"/>
</mask>
<g mask="url(#mask9_746_996)">
<path d="M173.023 -11.1855H280.939V93.7011H173.023V-11.1855Z" fill="#DAD9E7"/>
<path d="M173.023 -11.1855H280.939V93.7011H173.023V-11.1855Z" fill="#F4F4FD"/>
</g>
</g>
<mask id="mask10_746_996" style="mask-type:luminance" maskUnits="userSpaceOnUse" x="223" y="0" width="8" height="102">
<path d="M223.688 0H230.26V101.74H223.688V0Z" fill="white"/>
</mask>
<g mask="url(#mask10_746_996)">
<mask id="mask11_746_996" style="mask-type:luminance" maskUnits="userSpaceOnUse" x="-3" y="0" width="339" height="214">
<path d="M0.72305 96.6411C-9.69729 128.103 4.41471 162.882 32.7003 177.137C54.5088 188.128 92.1725 203.479 143.255 210.874C227.791 223.115 304.327 192.579 324.957 150.392C345.59 108.207 340.879 46.4425 279.674 16.6221C218.472 -13.1956 129.903 0.29489 113.231 33.6619C96.5598 67.029 67.3064 67.4018 31.4116 68.2816C16.455 68.6461 5.99868 80.7195 0.72305 96.6411Z" fill="white"/>
</mask>
<g mask="url(#mask11_746_996)">
<path d="M223.82 -11.1855H230.154V101.513H223.82V-11.1855Z" fill="#DAD9E7"/>
</g>
</g>
<path d="M85.5821 136.801V157.735C85.5821 161.189 82.9584 163.979 79.7263 163.979H26.2126C22.9805 163.979 20.3594 161.189 20.3594 157.735V136.801H85.5821Z" fill="white" stroke="#1C2E3F" stroke-width="1.40173" stroke-miterlimit="10"/>
<path d="M85.5821 121.57V136.801H20.3594V121.57C20.3594 118.122 22.9805 115.326 26.2126 115.326H79.7263C82.9584 115.326 85.5821 118.122 85.5821 121.57Z" fill="#D25455" stroke="#1C2E3F" stroke-width="1.40173" stroke-miterlimit="10"/>
<path d="M35.4141 113.202V117.908" stroke="#1C2E3F" stroke-width="5.60692" stroke-linecap="round" stroke-linejoin="round"/>
<path d="M70.5391 113.202V117.908" stroke="#1C2E3F" stroke-width="5.60692" stroke-linecap="round" stroke-linejoin="round"/>
<path d="M32.8827 144.467H37.9607C38.1532 144.467 38.3406 144.508 38.5178 144.587C38.6975 144.664 38.8541 144.777 38.9901 144.922C39.1262 145.067 39.2315 145.237 39.3059 145.426C39.3778 145.615 39.4163 145.813 39.4163 146.018C39.4163 146.226 39.3778 146.424 39.3059 146.613C39.2315 146.802 39.1262 146.972 38.9901 147.117C38.8541 147.262 38.6975 147.375 38.5178 147.452C38.3406 147.531 38.1532 147.569 37.9607 147.569H32.8827C32.6902 147.569 32.5054 147.531 32.3282 147.452C32.1485 147.375 31.9919 147.262 31.8558 147.117C31.7198 146.972 31.6145 146.802 31.5401 146.613C31.4656 146.424 31.4297 146.226 31.4297 146.018C31.4297 145.813 31.4656 145.615 31.5401 145.426C31.6145 145.237 31.7198 145.067 31.8558 144.922C31.9919 144.777 32.1485 144.664 32.3282 144.587C32.5054 144.508 32.6902 144.467 32.8827 144.467Z" fill="#1996F2"/>
<path d="M32.8827 150.714H37.9607C38.1532 150.714 38.3406 150.752 38.5178 150.832C38.6975 150.911 38.8541 151.024 38.9901 151.169C39.1262 151.314 39.2315 151.481 39.3059 151.67C39.3778 151.862 39.4163 152.06 39.4163 152.265C39.4163 152.471 39.3778 152.668 39.3059 152.86C39.2315 153.049 39.1262 153.216 38.9901 153.362C38.8541 153.507 38.6975 153.619 38.5178 153.699C38.3406 153.778 38.1532 153.817 37.9607 153.817H32.8827C32.6902 153.817 32.5054 153.778 32.3282 153.699C32.1485 153.619 31.9919 153.507 31.8558 153.362C31.7198 153.216 31.6145 153.049 31.5401 152.86C31.4656 152.668 31.4297 152.471 31.4297 152.265C31.4297 152.06 31.4656 151.862 31.5401 151.67C31.6145 151.481 31.7198 151.314 31.8558 151.169C31.9919 151.024 32.1485 150.911 32.3282 150.832C32.5054 150.752 32.6902 150.714 32.8827 150.714Z" fill="#1996F2"/>
<path d="M50.4322 144.467H55.5101C55.7027 144.467 55.8875 144.508 56.0647 144.587C56.2444 144.664 56.401 144.777 56.537 144.922C56.6731 145.067 56.7783 145.237 56.8528 145.426C56.9272 145.615 56.9632 145.813 56.9632 146.018C56.9632 146.226 56.9272 146.424 56.8528 146.613C56.7783 146.802 56.6731 146.972 56.537 147.117C56.401 147.262 56.2444 147.375 56.0647 147.452C55.8875 147.531 55.7027 147.569 55.5101 147.569H50.4322C50.2396 147.569 50.0522 147.531 49.8751 147.452C49.698 147.375 49.5388 147.262 49.4027 147.117C49.2667 146.972 49.1614 146.802 49.087 146.613C49.0151 146.424 48.9766 146.226 48.9766 146.018C48.9766 145.813 49.0151 145.615 49.087 145.426C49.1614 145.237 49.2667 145.067 49.4027 144.922C49.5388 144.777 49.698 144.664 49.8751 144.587C50.0522 144.508 50.2396 144.467 50.4322 144.467Z" fill="#1996F2"/>
<path d="M50.4322 150.714H55.5101C55.7027 150.714 55.8875 150.752 56.0647 150.832C56.2444 150.911 56.401 151.024 56.537 151.169C56.6731 151.314 56.7783 151.481 56.8528 151.67C56.9272 151.862 56.9632 152.06 56.9632 152.265C56.9632 152.471 56.9272 152.668 56.8528 152.86C56.7783 153.049 56.6731 153.216 56.537 153.362C56.401 153.507 56.2444 153.619 56.0647 153.699C55.8875 153.778 55.7027 153.817 55.5101 153.817H50.4322C50.2396 153.817 50.0522 153.778 49.8751 153.699C49.698 153.619 49.5388 153.507 49.4027 153.362C49.2667 153.216 49.1614 153.049 49.087 152.86C49.0151 152.668 48.9766 152.471 48.9766 152.265C48.9766 152.06 49.0151 151.862 49.087 151.67C49.1614 151.481 49.2667 151.314 49.4027 151.169C49.5388 151.024 49.698 150.911 49.8751 150.832C50.0522 150.752 50.2396 150.714 50.4322 150.714Z" fill="#1996F2"/>
<path d="M67.9947 144.467H73.0726C73.2652 144.467 73.45 144.508 73.6297 144.587C73.8069 144.664 73.9635 144.777 74.0995 144.922C74.2381 145.067 74.3408 145.237 74.4153 145.426C74.4897 145.615 74.5257 145.813 74.5257 146.018C74.5257 146.226 74.4897 146.424 74.4153 146.613C74.3408 146.802 74.2381 146.972 74.0995 147.117C73.9635 147.262 73.8069 147.375 73.6297 147.452C73.45 147.531 73.2652 147.569 73.0726 147.569H67.9947C67.8021 147.569 67.6173 147.531 67.4376 147.452C67.2605 147.375 67.1039 147.262 66.9652 147.117C66.8292 146.972 66.7239 146.802 66.652 146.613C66.5776 146.424 66.5391 146.226 66.5391 146.018C66.5391 145.813 66.5776 145.615 66.652 145.426C66.7239 145.237 66.8292 145.067 66.9652 144.922C67.1039 144.777 67.2605 144.664 67.4376 144.587C67.6173 144.508 67.8021 144.467 67.9947 144.467Z" fill="#1996F2"/>
<path d="M67.9947 150.714H73.0726C73.2652 150.714 73.45 150.752 73.6297 150.832C73.8069 150.911 73.9635 151.024 74.0995 151.169C74.2381 151.314 74.3408 151.481 74.4153 151.67C74.4897 151.862 74.5257 152.06 74.5257 152.265C74.5257 152.471 74.4897 152.668 74.4153 152.86C74.3408 153.049 74.2381 153.216 74.0995 153.362C73.9635 153.507 73.8069 153.619 73.6297 153.699C73.45 153.778 73.2652 153.817 73.0726 153.817H67.9947C67.8021 153.817 67.6173 153.778 67.4376 153.699C67.2605 153.619 67.1039 153.507 66.9652 153.362C66.8292 153.216 66.7239 153.049 66.652 152.86C66.5776 152.668 66.5391 152.471 66.5391 152.265C66.5391 152.06 66.5776 151.862 66.652 151.67C66.7239 151.481 66.8292 151.314 66.9652 151.169C67.1039 151.024 67.2605 150.911 67.4376 150.832C67.6173 150.752 67.8021 150.714 67.9947 150.714Z" fill="#1996F2"/>
<path d="M54.2734 168.159C54.2734 168.159 54.9692 179.597 65.618 178.492" stroke="#1C2E3F" stroke-width="1.40173" stroke-linecap="round" stroke-linejoin="round"/>
<path d="M61.1875 108.31C61.1875 108.31 63.8497 96.7687 71.9826 94.7158" stroke="#1C2E3F" stroke-width="1.40173" stroke-linecap="round" stroke-linejoin="round"/>
<path d="M121.952 55.8115V77.6095C121.952 80.586 119.688 82.998 116.9 82.998H58.7242C55.9336 82.998 53.6719 80.586 53.6719 77.6095V55.8115H121.952Z" fill="white" stroke="#1C2E3F" stroke-width="1.40173" stroke-miterlimit="10"/>
<path d="M62.1304 62.0547H66.51C66.6769 62.0547 66.8361 62.0903 66.9901 62.1561C67.1441 62.2246 67.2802 62.3205 67.3983 62.4466C67.5164 62.5727 67.6062 62.718 67.6704 62.8824C67.7346 63.0469 67.7654 63.2168 67.7654 63.395C67.7654 63.5704 67.7346 63.743 67.6704 63.9048C67.6062 64.0692 67.5164 64.2145 67.3983 64.3406C67.2802 64.4666 67.1441 64.5626 66.9901 64.6311C66.8361 64.6996 66.6769 64.7325 66.51 64.7325H62.1304C61.9635 64.7325 61.8043 64.6996 61.6503 64.6311C61.4963 64.5626 61.3602 64.4666 61.2421 64.3406C61.124 64.2145 61.0342 64.0692 60.97 63.9048C60.9058 63.743 60.875 63.5704 60.875 63.395C60.875 63.2168 60.9058 63.0469 60.97 62.8824C61.0342 62.718 61.124 62.5727 61.2421 62.4466C61.3602 62.3205 61.4963 62.2246 61.6503 62.1561C61.8043 62.0903 61.9635 62.0547 62.1304 62.0547Z" fill="#D25455"/>
<path d="M62.1304 67.4434H66.51C66.6769 67.4434 66.8361 67.479 66.9901 67.5475C67.1441 67.6133 67.2802 67.712 67.3983 67.838C67.5164 67.9614 67.6062 68.1066 67.6704 68.2711C67.7346 68.4355 67.7654 68.6055 67.7654 68.7836C67.7654 68.9618 67.7346 69.1317 67.6704 69.2962C67.6062 69.4606 67.5164 69.6031 67.3983 69.7292C67.2802 69.8553 67.1441 69.9512 66.9901 70.0198C66.8361 70.0883 66.6769 70.1212 66.51 70.1212H62.1304C61.9635 70.1212 61.8043 70.0883 61.6503 70.0198C61.4963 69.9512 61.3602 69.8553 61.2421 69.7292C61.124 69.6031 61.0342 69.4606 60.97 69.2962C60.9058 69.1317 60.875 68.9618 60.875 68.7836C60.875 68.6055 60.9058 68.4355 60.97 68.2711C61.0342 68.1066 61.124 67.9614 61.2421 67.838C61.3602 67.712 61.4963 67.6133 61.6503 67.5475C61.8043 67.479 61.9635 67.4434 62.1304 67.4434Z" fill="#D25455"/>
<path d="M62.1304 72.833H66.51C66.6769 72.833 66.8361 72.8686 66.9901 72.9372C67.1441 73.0029 67.2802 73.1016 67.3983 73.2249C67.5164 73.351 67.6062 73.4963 67.6704 73.6607C67.7346 73.8252 67.7654 73.9951 67.7654 74.1733C67.7654 74.3514 67.7346 74.5214 67.6704 74.6858C67.6062 74.8503 67.5164 74.9928 67.3983 75.1189C67.2802 75.245 67.1441 75.3409 66.9901 75.4094C66.8361 75.4779 66.6769 75.5108 66.51 75.5108H62.1304C61.9635 75.5108 61.8043 75.4779 61.6503 75.4094C61.4963 75.3409 61.3602 75.245 61.2421 75.1189C61.124 74.9928 61.0342 74.8503 60.97 74.6858C60.9058 74.5214 60.875 74.3514 60.875 74.1733C60.875 73.9951 60.9058 73.8252 60.97 73.6607C61.0342 73.4963 61.124 73.351 61.2421 73.2249C61.3602 73.1016 61.4963 73.0029 61.6503 72.9372C61.8043 72.8686 61.9635 72.833 62.1304 72.833Z" fill="#D25455"/>
<path d="M121.952 46.7694V55.8114H53.6719V46.7694C53.6719 43.7955 55.9336 41.3809 58.7242 41.3809H116.9C119.688 41.3809 121.952 43.7955 121.952 46.7694Z" fill="#1996F2" stroke="#1C2E3F" stroke-width="1.40173" stroke-miterlimit="10"/>
<path d="M81.625 64.7324H89.8196V75.5094H81.625V64.7324Z" fill="#D25455"/>
<path d="M92.2266 62.0547H100.424V75.5095H92.2266V62.0547Z" fill="#D25455"/>
<path d="M102.633 62.0547H110.83V75.5095H102.633V62.0547Z" fill="#D25455"/>
<path d="M243.113 60.0469H274.476C274.795 60.0469 275.108 60.0798 275.421 60.1483C275.732 60.2141 276.035 60.31 276.327 60.4416C276.623 60.5704 276.9 60.7293 277.164 60.9185C277.429 61.1048 277.673 61.3214 277.898 61.5598C278.122 61.7983 278.322 62.0587 278.499 62.341C278.676 62.6233 278.825 62.922 278.946 63.2345C279.069 63.5469 279.159 63.8704 279.221 64.202C279.285 64.5336 279.316 64.8708 279.316 65.2106V78.9066C279.316 79.2465 279.285 79.5809 279.221 79.9125C279.159 80.2469 279.069 80.5676 278.946 80.8828C278.825 81.1952 278.676 81.4913 278.499 81.7736C278.322 82.0559 278.122 82.3162 277.898 82.5574C277.673 82.7959 277.429 83.0097 277.164 83.1988C276.9 83.3879 276.623 83.5469 276.327 83.6757C276.035 83.8045 275.732 83.9032 275.421 83.969C275.108 84.0348 274.795 84.0676 274.476 84.0676H243.113C242.794 84.0676 242.479 84.0348 242.168 83.969C241.857 83.9032 241.554 83.8045 241.259 83.6757C240.966 83.5469 240.687 83.3879 240.425 83.1988C240.16 83.0097 239.914 82.7959 239.691 82.5574C239.465 82.3162 239.264 82.0559 239.09 81.7736C238.913 81.4913 238.764 81.1952 238.641 80.8828C238.52 80.5676 238.427 80.2469 238.366 79.9125C238.304 79.5809 238.273 79.2465 238.273 78.9066V65.2106C238.273 64.8708 238.304 64.5336 238.366 64.202C238.427 63.8704 238.52 63.5469 238.641 63.2345C238.764 62.922 238.913 62.6233 239.09 62.341C239.264 62.0587 239.465 61.7983 239.691 61.5598C239.914 61.3214 240.16 61.1048 240.425 60.9185C240.687 60.7293 240.966 60.5704 241.259 60.4416C241.554 60.31 241.857 60.2141 242.168 60.1483C242.479 60.0798 242.794 60.0469 243.113 60.0469Z" fill="#FFCD5C"/>
<path d="M241.203 63.1699L258.796 75.5202L276.389 63.1699" stroke="#1C2E3F" stroke-width="1.40173" stroke-linecap="round" stroke-linejoin="round"/>
<path d="M265.242 73.5361L269.902 78.8589" stroke="#1C2E3F" stroke-width="1.40173" stroke-linecap="round" stroke-linejoin="round"/>
<path d="M252.339 73.5361L247.68 78.8589" stroke="#1C2E3F" stroke-width="1.40173" stroke-linecap="round" stroke-linejoin="round"/>
<path d="M272.769 109.094H313.007C313.326 109.094 313.639 109.127 313.952 109.192C314.263 109.258 314.566 109.357 314.858 109.486C315.151 109.615 315.431 109.773 315.695 109.963C315.96 110.152 316.204 110.366 316.43 110.604C316.653 110.845 316.853 111.106 317.03 111.388C317.207 111.667 317.356 111.966 317.477 112.279C317.598 112.591 317.69 112.914 317.752 113.246C317.813 113.581 317.847 113.915 317.847 114.255V137.779C317.847 138.119 317.813 138.454 317.752 138.785C317.69 139.12 317.598 139.44 317.477 139.756C317.356 140.068 317.207 140.364 317.03 140.646C316.853 140.929 316.653 141.189 316.43 141.428C316.204 141.669 315.96 141.882 315.695 142.072C315.431 142.258 315.151 142.417 314.858 142.549C314.566 142.677 314.263 142.776 313.952 142.842C313.639 142.908 313.326 142.94 313.007 142.94H272.769C272.451 142.94 272.135 142.908 271.824 142.842C271.514 142.776 271.211 142.677 270.915 142.549C270.623 142.417 270.345 142.258 270.081 142.072C269.817 141.882 269.573 141.669 269.347 141.428C269.123 141.189 268.921 140.929 268.746 140.646C268.569 140.364 268.42 140.068 268.297 139.756C268.176 139.44 268.084 139.12 268.022 138.785C267.96 138.454 267.93 138.119 267.93 137.779V114.255C267.93 113.915 267.96 113.581 268.022 113.246C268.084 112.914 268.176 112.591 268.297 112.279C268.42 111.966 268.569 111.667 268.746 111.388C268.921 111.106 269.123 110.845 269.347 110.604C269.573 110.366 269.817 110.152 270.081 109.963C270.345 109.773 270.623 109.615 270.915 109.486C271.211 109.357 271.514 109.258 271.824 109.192C272.135 109.127 272.451 109.094 272.769 109.094Z" fill="#1996F2" stroke="#1C2E3F" stroke-width="1.40173" stroke-miterlimit="10"/>
<path d="M290.268 120.775H289.007C288.933 120.545 288.845 120.323 288.745 120.106L289.639 119.155C290.096 118.667 290.096 117.875 289.639 117.387L288.804 116.497C288.347 116.009 287.605 116.009 287.149 116.497L286.255 117.451C286.052 117.344 285.844 117.25 285.629 117.174V115.825C285.629 115.137 285.105 114.578 284.458 114.578H283.277C282.63 114.578 282.106 115.137 282.106 115.825V117.174C281.891 117.25 281.683 117.344 281.48 117.451L280.587 116.497C280.13 116.009 279.39 116.009 278.931 116.497L278.096 117.387C277.64 117.875 277.64 118.667 278.096 119.155L278.99 120.106C278.892 120.323 278.805 120.545 278.731 120.775H277.468C276.821 120.775 276.297 121.334 276.297 122.025V123.283C276.297 123.974 276.821 124.533 277.468 124.533H278.731C278.805 124.76 278.892 124.982 278.99 125.199L278.096 126.153C277.64 126.641 277.64 127.43 278.096 127.918L278.931 128.809C279.39 129.296 280.13 129.296 280.587 128.809L281.48 127.858C281.683 127.962 281.891 128.055 282.106 128.134V129.48C282.106 130.171 282.63 130.73 283.277 130.73H284.458C285.105 130.73 285.629 130.171 285.629 129.48V128.134C285.844 128.055 286.052 127.962 286.255 127.858L287.149 128.809C287.605 129.296 288.347 129.296 288.804 128.809L289.639 127.918C290.096 127.43 290.096 126.641 289.639 126.153L288.745 125.199C288.845 124.985 288.933 124.76 289.007 124.533H290.268C290.915 124.533 291.438 123.974 291.438 123.283V122.025C291.438 121.334 290.915 120.775 290.268 120.775ZM283.868 125.868C282.204 125.868 280.854 124.429 280.854 122.653C280.854 120.879 282.204 119.438 283.868 119.438C285.531 119.438 286.882 120.879 286.882 122.653C286.882 124.429 285.531 125.868 283.868 125.868Z" fill="white"/>
<path d="M308.036 125.202H306.483C306.391 124.92 306.283 124.646 306.162 124.38L307.261 123.207C307.823 122.606 307.823 121.633 307.261 121.033L306.234 119.937C305.672 119.337 304.758 119.337 304.196 119.937L303.097 121.11C302.848 120.978 302.591 120.863 302.324 120.767V119.112C302.324 118.262 301.68 117.574 300.884 117.574H299.431C298.635 117.574 297.988 118.262 297.988 119.112V120.767C297.724 120.863 297.467 120.978 297.218 121.11L296.119 119.937C295.557 119.337 294.643 119.337 294.081 119.937L293.054 121.033C292.489 121.633 292.489 122.606 293.054 123.207L294.153 124.38C294.03 124.646 293.922 124.92 293.832 125.202H292.279C291.483 125.202 290.836 125.89 290.836 126.74V128.291C290.836 129.138 291.483 129.829 292.279 129.829H293.832C293.922 130.111 294.03 130.385 294.153 130.651L293.054 131.821C292.489 132.424 292.489 133.397 293.054 133.997L294.081 135.094C294.643 135.694 295.557 135.694 296.119 135.094L297.218 133.921C297.467 134.049 297.724 134.165 297.988 134.263V135.919C297.988 136.768 298.635 137.456 299.431 137.456H300.884C301.68 137.456 302.324 136.768 302.324 135.919V134.263C302.591 134.165 302.848 134.049 303.097 133.921L304.196 135.094C304.758 135.694 305.672 135.694 306.234 135.094L307.261 133.997C307.823 133.397 307.823 132.424 307.261 131.821L306.162 130.651C306.283 130.385 306.391 130.111 306.483 129.829H308.036C308.832 129.829 309.477 129.138 309.477 128.291V126.74C309.477 125.89 308.832 125.202 308.036 125.202ZM300.158 131.473C298.109 131.473 296.448 129.7 296.448 127.515C296.448 125.328 298.109 123.557 300.158 123.557C302.206 123.557 303.867 125.328 303.867 127.515C303.867 129.7 302.206 131.473 300.158 131.473Z" fill="white"/>
<path d="M273.203 89.3955C273.203 89.3955 283.282 91.58 282.692 103.078" stroke="#1C2E3F" stroke-width="1.40173" stroke-linecap="round" stroke-linejoin="round"/>
<path d="M295.278 150.391C295.278 150.391 294.567 159.244 284.953 162.083" stroke="#1C2E3F" stroke-width="1.40173" stroke-linecap="round" stroke-linejoin="round"/>
<path d="M211.966 119.438H241.024C253.467 119.438 263.569 130.215 263.569 143.488V223.113H190.414V142.428C190.414 129.74 200.072 119.438 211.966 119.438Z" fill="#1C2E3F"/>
<path d="M151.02 94.1759C149.251 89.3383 146.537 76.4234 146.44 71.2323C146.281 62.6342 149.048 51.6489 156.424 45.4245C168.626 35.1298 188.786 33.9458 201.568 48.3818C214.351 62.8179 209 85.0626 214.435 90.4483C219.873 95.8314 231.63 109.322 227.746 116.656C227.746 116.656 197.356 151.249 168.569 143.832C139.786 136.418 139.416 120.483 148.771 115.593C157.307 111.128 157.471 111.821 151.02 94.1759Z" fill="#1C2E3F"/>
<path d="M248.694 193.243C248.987 200.125 251.895 205.459 256.722 207.526C248.928 210.036 240.042 209.806 240.042 209.806V223.113H154.857C164.985 211.736 157.409 166.742 157.409 166.742C127.347 216.669 108.49 210.519 97.395 189.222C93.4902 181.723 91.5366 175.134 90.6406 169.743C105.89 179.487 111.43 170.494 113.242 165.41L118.138 170.998C118.138 170.998 143.51 128.178 150.308 121.951C157.103 115.727 167.665 119.879 167.665 119.879L192.346 125.637C192.346 125.637 197.891 134.318 202.551 130.724C207.21 127.142 211.87 107.34 227.612 114.913C241.236 121.466 262.013 165.922 267.078 187.449L258.013 182.121C258.013 182.121 248.25 182.828 248.694 193.243Z" fill="#1996F2"/>
<path d="M118.148 170.998L123.845 177.228" stroke="#1C2E3F" stroke-width="1.40173" stroke-linecap="round" stroke-linejoin="round"/>
<path d="M240.045 209.807C240.045 209.807 232.946 151.92 217.641 136.966" stroke="#1C2E3F" stroke-width="1.40173" stroke-linecap="round" stroke-linejoin="round"/>
<path d="M154.14 129.584L159.008 138.338C159.008 138.338 152.42 141.416 151.812 149.699C151.114 159.213 157.411 164.607 157.411 164.607" stroke="#1C2E3F" stroke-width="1.40173" stroke-linecap="round" stroke-linejoin="round"/>
<path d="M247.459 184.604C247.459 184.604 242.561 184.566 240.977 194.825" stroke="#1C2E3F" stroke-width="1.40173" stroke-linecap="round" stroke-linejoin="round"/>
<path d="M194.907 95.1536C193.18 98.7085 188.736 108.913 189.701 117.905L181.191 125.637L169.117 117.28V104.971L194.907 92.5498V95.1536Z" fill="#FFC5BD"/>
<path d="M192.934 126.43L191.786 128.472C190.364 131.002 187.127 131.495 185.101 129.497L181.192 125.635L177.42 129.322C175.325 131.369 171.975 130.758 170.64 128.072L165.734 118.224L169.118 117.281L181.038 123.275L189.62 117.023C189.83 120.11 190.634 123.083 192.354 125.635C192.549 125.923 192.742 126.192 192.934 126.43Z" fill="white"/>
<path d="M154.121 82.2657C154.121 82.2657 152.234 78.9383 149.018 79.6482C145.801 80.358 146.024 90.1812 150.127 93.4922C154.232 96.8059 158.003 95.2683 158.003 95.2683L154.121 82.2657Z" fill="#FFC5BD"/>
<path d="M148.469 84.7383C148.469 84.7383 153.465 82.1016 154.738 90.7572" stroke="#1C2E3F" stroke-width="1.40173" stroke-linecap="round" stroke-linejoin="round"/>
<path d="M152.39 86.8682L150.891 90.7574L152.998 91.9223" stroke="#1C2E3F" stroke-width="1.40173" stroke-linecap="round" stroke-linejoin="round"/>
<path d="M165.407 56.2197C165.407 56.2197 152.984 65.5688 152.43 78.9386C152.43 78.9386 153.202 102.97 165.407 107.457C178.608 112.308 194.578 94.9123 194.578 94.9123C194.578 94.9123 202.937 94.9945 205.227 89.3511C208.444 81.4245 200.457 74.3258 194.912 81.4245C194.912 81.4245 171.396 76.9268 165.407 56.2197Z" fill="#FFC5BD"/>
<path d="M171.281 108.282C182.911 107.616 194.574 94.9121 194.574 94.9121" stroke="#1C2E3F" stroke-width="1.40173" stroke-linecap="round" stroke-linejoin="round"/>
<path d="M173.273 97.8719C173.273 97.8719 177.155 100.237 182.256 94.7939" stroke="#1C2E3F" stroke-width="1.40173" stroke-linecap="round" stroke-linejoin="round"/>
<path d="M195.57 92.548C195.57 92.548 196.348 83.4703 200.451 82.2671C204.556 81.0639 203.336 87.4062 203.336 87.4062" stroke="#1C2E3F" stroke-width="1.40173" stroke-linecap="round" stroke-linejoin="round"/>
<path d="M199.007 84.7383L200.671 88.9976L197.344 91.245" stroke="#1C2E3F" stroke-width="1.40173" stroke-linecap="round" stroke-linejoin="round"/>
<path d="M166.956 84.7383L165.734 94.7945L169.619 93.6131" stroke="#1C2E3F" stroke-width="1.40173" stroke-linecap="round" stroke-linejoin="round"/>
<path d="M185.922 84.1143C185.922 84.6269 185.876 85.1339 185.781 85.6382C185.688 86.1398 185.55 86.6277 185.365 87.1019C185.18 87.576 184.957 88.0255 184.69 88.4531C184.423 88.8779 184.117 89.2726 183.778 89.6371C183.44 89.9989 183.067 90.3224 182.669 90.6074C182.269 90.8924 181.848 91.1336 181.404 91.3282C180.96 91.5256 180.5 91.6736 180.03 91.7723C179.558 91.8737 179.083 91.923 178.603 91.923C178.12 91.923 177.645 91.8737 177.173 91.7723C176.703 91.6736 176.244 91.5256 175.8 91.3282C175.355 91.1336 174.934 90.8924 174.534 90.6074C174.136 90.3224 173.766 89.9989 173.425 89.6371C173.086 89.2726 172.783 88.8779 172.516 88.4531C172.249 88.0255 172.023 87.576 171.838 87.1019C171.654 86.6277 171.515 86.1398 171.422 85.6382C171.327 85.1339 171.281 84.6269 171.281 84.1143C171.281 83.6018 171.327 83.0947 171.422 82.5904C171.515 82.0889 171.654 81.5982 171.838 81.1268C172.023 80.6526 172.249 80.2031 172.516 79.7756C172.783 79.348 173.086 78.9561 173.425 78.5915C173.766 78.2297 174.136 77.9063 174.534 77.6213C174.934 77.3362 175.355 77.095 175.8 76.9004C176.244 76.7031 176.703 76.5551 177.173 76.4537C177.645 76.355 178.12 76.3057 178.603 76.3057C179.083 76.3057 179.558 76.355 180.03 76.4537C180.5 76.5551 180.96 76.7031 181.404 76.9004C181.848 77.095 182.269 77.3362 182.669 77.6213C183.067 77.9063 183.44 78.2297 183.778 78.5915C184.117 78.9561 184.423 79.348 184.69 79.7756C184.957 80.2031 185.18 80.6526 185.365 81.1268C185.55 81.5982 185.688 82.0889 185.781 82.5904C185.876 83.0947 185.922 83.6018 185.922 84.1143Z" stroke="white" stroke-width="2.80346" stroke-linecap="round" stroke-linejoin="round"/>
<path d="M166.959 84.1143C166.959 84.6269 166.913 85.1339 166.823 85.6382C166.733 86.1398 166.6 86.6277 166.423 87.1019C166.248 87.576 166.03 88.0255 165.776 88.4531C165.519 88.8779 165.226 89.2726 164.9 89.6371C164.574 89.9989 164.22 90.3224 163.835 90.6074C163.452 90.8924 163.047 91.1336 162.621 91.3282C162.194 91.5256 161.755 91.6736 161.304 91.7723C160.852 91.8737 160.395 91.923 159.933 91.923C159.471 91.923 159.014 91.8737 158.562 91.7723C158.11 91.6736 157.671 91.5256 157.245 91.3282C156.816 91.1336 156.413 90.8924 156.028 90.6074C155.645 90.3224 155.291 89.9989 154.965 89.6371C154.639 89.2726 154.346 88.8779 154.09 88.4531C153.833 88.0255 153.617 87.576 153.44 87.1019C153.266 86.6277 153.132 86.1398 153.042 85.6382C152.952 85.1339 152.906 84.6269 152.906 84.1143C152.906 83.6018 152.952 83.0947 153.042 82.5904C153.132 82.0889 153.266 81.5982 153.44 81.1268C153.617 80.6526 153.833 80.2031 154.09 79.7756C154.346 79.348 154.639 78.9561 154.965 78.5915C155.291 78.2297 155.645 77.9063 156.028 77.6213C156.413 77.3362 156.816 77.095 157.245 76.9004C157.671 76.7031 158.11 76.5551 158.562 76.4537C159.014 76.355 159.471 76.3057 159.933 76.3057C160.395 76.3057 160.852 76.355 161.304 76.4537C161.755 76.5551 162.194 76.7031 162.621 76.9004C163.047 77.095 163.452 77.3362 163.835 77.6213C164.22 77.9063 164.574 78.2297 164.9 78.5915C165.226 78.9561 165.519 79.348 165.776 79.7756C166.03 80.2031 166.248 80.6526 166.423 81.1268C166.6 81.5982 166.733 82.0889 166.823 82.5904C166.913 83.0947 166.959 83.6018 166.959 84.1143Z" stroke="white" stroke-width="2.80346" stroke-linecap="round" stroke-linejoin="round"/>
<path d="M185.914 82.2653L194.899 81.4238" stroke="white" stroke-width="1.40173" stroke-linecap="round" stroke-linejoin="round"/>
<path d="M171.287 84.1133H166.961" stroke="white" stroke-width="1.40173" stroke-linecap="round" stroke-linejoin="round"/>
<path d="M179.186 86.3032C179.186 86.5937 179.145 86.8706 179.061 87.1392C178.976 87.4078 178.855 87.6435 178.699 87.8491C178.542 88.0546 178.362 88.2136 178.16 88.326C177.957 88.4356 177.744 88.4904 177.523 88.4904C177.302 88.4904 177.089 88.4356 176.886 88.326C176.683 88.2136 176.501 88.0546 176.347 87.8491C176.191 87.6435 176.07 87.4078 175.985 87.1392C175.9 86.8706 175.859 86.5937 175.859 86.3032C175.859 86.0127 175.9 85.7331 175.985 85.4645C176.07 85.1959 176.191 84.9602 176.347 84.7546C176.501 84.5491 176.683 84.3901 176.886 84.2805C177.089 84.1681 177.302 84.1133 177.523 84.1133C177.744 84.1133 177.957 84.1681 178.16 84.2805C178.362 84.3901 178.542 84.5491 178.699 84.7546C178.855 84.9602 178.976 85.1959 179.061 85.4645C179.145 85.7331 179.186 86.0127 179.186 86.3032Z" fill="#1C2E3F"/>
<path d="M163.39 86.3032C163.39 86.5937 163.346 86.8706 163.264 87.1392C163.179 87.4078 163.058 87.6435 162.902 87.8491C162.745 88.0546 162.566 88.2136 162.363 88.326C162.157 88.4356 161.947 88.4904 161.726 88.4904C161.505 88.4904 161.292 88.4356 161.089 88.326C160.884 88.2136 160.704 88.0546 160.55 87.8491C160.394 87.6435 160.273 87.4078 160.188 87.1392C160.104 86.8706 160.062 86.5937 160.062 86.3032C160.062 86.0127 160.104 85.7331 160.188 85.4645C160.273 85.1959 160.394 84.9602 160.55 84.7546C160.704 84.5491 160.884 84.3901 161.089 84.2805C161.292 84.1681 161.505 84.1133 161.726 84.1133C161.947 84.1133 162.157 84.1681 162.363 84.2805C162.566 84.3901 162.745 84.5491 162.902 84.7546C163.058 84.9602 163.179 85.1959 163.264 85.4645C163.346 85.7331 163.39 86.0127 163.39 86.3032Z" fill="#1C2E3F"/>
<path d="M172.469 75.0748C172.469 75.0748 178.458 68.8421 182.894 75.0748" stroke="#1C2E3F" stroke-width="1.40173" stroke-linecap="round" stroke-linejoin="round"/>
<path d="M163.734 75.0744C163.734 75.0744 157.891 69.7105 154.859 75.0744" stroke="#1C2E3F" stroke-width="1.40173" stroke-linecap="round" stroke-linejoin="round"/>
<path d="M148.858 153.388L109.423 157.982L102.781 120.542L142.216 115.948L148.858 153.388Z" fill="white" stroke="#1C2E3F" stroke-width="1.40173" stroke-miterlimit="10"/>
<path d="M90.9297 153.956L100.837 133.487L114.702 124.612C114.702 124.612 120.137 127.69 111.819 134.435L123.798 140.115C123.798 140.115 124.796 145.911 116.586 143.308L123.836 152.182C123.836 152.182 122.91 157.979 118.917 154.668L121.356 157.154C121.356 157.154 118.584 164.489 110.931 155.022L110.266 162.006L105.162 168.156C105.162 168.156 93.556 168.51 90.9297 153.956Z" fill="#FFC5BD"/>
<path d="M116.594 143.308C116.594 143.308 114.265 141.653 110.273 143.308" stroke="#1C2E3F" stroke-width="1.40173" stroke-linecap="round" stroke-linejoin="round"/>
<path d="M111.821 134.436L105.719 139.166" stroke="#1C2E3F" stroke-width="1.40173" stroke-linecap="round" stroke-linejoin="round"/>
<path d="M118.925 154.669L115.264 150.291L110.273 148.312" stroke="#1C2E3F" stroke-width="1.40173" stroke-linecap="round" stroke-linejoin="round"/>
<path d="M113.249 165.404V165.409C111.434 170.493 105.894 179.486 90.6447 169.742C88.9888 159.82 90.9322 153.955 90.9322 153.955C102.213 170.523 110.269 162.005 110.269 162.005L113.249 165.404Z" fill="white"/>
<path d="M90.6447 169.742C88.9888 159.82 90.9322 153.955 90.9322 153.955" stroke="#1C2E3F" stroke-width="1.40173" stroke-linecap="round" stroke-linejoin="round"/>
<path d="M110.273 162.006L113.254 165.405V165.41" stroke="#1C2E3F" stroke-width="1.40173" stroke-linecap="round" stroke-linejoin="round"/>
<path d="M268.234 195.612C268.041 202.08 262.714 205.61 256.738 207.526C251.911 205.459 249.003 200.126 248.71 193.243C248.266 182.828 258.032 182.121 258.032 182.121L267.094 187.449C267.89 190.801 268.293 193.6 268.234 195.612Z" fill="white"/>
<path d="M267.087 187.449C267.883 190.801 268.286 193.6 268.227 195.611C268.117 199.372 266.271 202.137 263.57 204.171" stroke="#1C2E3F" stroke-width="1.40173" stroke-linecap="round" stroke-linejoin="round"/>
<path d="M228.07 151.118H267.084V184.603H228.07V151.118Z" fill="white"/>
<path d="M228.07 151.118H267.084V184.603H228.07V151.118Z" fill="white" stroke="#1C2E3F" stroke-width="1.40173" stroke-miterlimit="10"/>
<path d="M269.851 170.05C269.851 170.05 268.187 167.29 262.529 167.526C256.873 167.764 248.478 169.932 253.913 175.019C253.913 175.019 249.472 178.226 254.74 182.984C254.74 182.984 250.142 186.262 254.357 189.573C254.357 189.573 252.473 192.147 255.246 194.825C257.025 196.543 262.498 196.379 266.197 196.042C268.454 195.836 270.354 194.137 270.901 191.793C272.038 186.928 273.262 179.86 269.851 170.05Z" fill="#FFC5BD"/>
<path d="M254.352 189.573H260.898" stroke="#1C2E3F" stroke-width="1.40173" stroke-linecap="round" stroke-linejoin="round"/>
<path d="M254.734 182.984H265.899" stroke="#1C2E3F" stroke-width="1.40173" stroke-linecap="round" stroke-linejoin="round"/>
<path d="M253.914 175.02H265.117" stroke="#1C2E3F" stroke-width="1.40173" stroke-linecap="round" stroke-linejoin="round"/>
<path d="M221.48 164.604H194.244L192.933 171.472H147.408L137.406 223.112H210.308L221.48 164.604Z" fill="#FFCD5C"/>
<path d="M210.308 223.113H137.406L140.649 174.745H213.55L210.308 223.113Z" fill="white"/>
<path d="M137.406 223.113L140.649 174.745H213.55L210.308 223.113" stroke="#1C2E3F" stroke-width="1.40173" stroke-linecap="round" stroke-linejoin="round"/>
<path d="M210.312 223.113H137.411L132.125 177.229H205.026L210.312 223.113Z" fill="white"/>
<path d="M137.411 223.113L132.125 177.229H205.026L210.312 223.113" stroke="#1C2E3F" stroke-width="1.40173" stroke-linecap="round" stroke-linejoin="round"/>
<path d="M210.313 223.113H137.411L123.844 181.885H196.742L210.313 223.113Z" fill="#FFCD5C"/>
<path d="M25.4735 223.115C21.1606 223.115 17.6641 226.846 17.6641 231.445C17.6641 274.851 312.062 274.851 312.062 231.445C312.062 226.846 308.568 223.115 304.255 223.115H25.4735Z" fill="#1C2E3F"/>
<path d="M263.565 223.113H240.047" stroke="white" stroke-width="1.40173" stroke-linecap="round" stroke-linejoin="round"/>
<path d="M140.398 227.918H80.8307L70.1562 240.581H113.999L140.398 227.918Z" fill="#D25455"/>
<path d="M113.994 240.581H46.7742L27.5098 197.588C26.9527 196.343 27.8024 194.907 29.0937 194.907H92.4193C93.097 194.907 93.7132 195.321 94.0058 195.971L113.994 240.581Z" fill="#D25455"/>
<path d="M71.9931 215.249C72.2395 215.458 72.4706 215.68 72.6888 215.915C72.907 216.148 73.1072 216.395 73.2869 216.647C73.4692 216.902 73.6284 217.162 73.767 217.426C73.9031 217.689 74.016 217.952 74.1059 218.212C74.1932 218.475 74.2574 218.733 74.2933 218.982C74.3292 219.235 74.3369 219.476 74.319 219.706C74.3036 219.936 74.2574 220.153 74.188 220.353C74.1162 220.556 74.0212 220.737 73.9005 220.901C73.7799 221.065 73.6361 221.205 73.4692 221.326C73.3023 221.446 73.1149 221.542 72.9096 221.614C72.7016 221.685 72.4808 221.731 72.2447 221.753C72.0059 221.773 71.7569 221.77 71.4976 221.737C71.2383 221.707 70.9713 221.652 70.6992 221.57C70.4271 221.488 70.1549 221.383 69.8802 221.255C69.6056 221.126 69.336 220.975 69.0716 220.802C68.8072 220.632 68.5504 220.443 68.304 220.235C68.0575 220.027 67.8265 219.807 67.6083 219.572C67.39 219.336 67.1898 219.089 67.0101 218.837C66.8278 218.582 66.6687 218.325 66.53 218.059C66.394 217.796 66.281 217.535 66.1912 217.272C66.1039 217.009 66.0423 216.751 66.0037 216.502C65.9678 216.25 65.9601 216.009 65.9781 215.778C65.9935 215.548 66.0397 215.332 66.109 215.131C66.1809 214.931 66.2759 214.748 66.3965 214.583C66.5172 214.422 66.661 214.279 66.8278 214.158C66.9947 214.038 67.1821 213.942 67.3875 213.871C67.5954 213.799 67.8162 213.753 68.055 213.731C68.2911 213.712 68.5402 213.717 68.7994 213.747C69.0587 213.778 69.3257 213.835 69.5979 213.915C69.87 213.997 70.1421 214.101 70.4168 214.232C70.6915 214.361 70.961 214.509 71.2255 214.682C71.4899 214.852 71.7466 215.044 71.9931 215.249Z" fill="white"/>
<path d="M140.39 230.048L113.991 240.581L113.18 238.772L140.39 227.918V230.048Z" fill="#D25455"/>
<path d="M169.276 246.645H127.305L155.837 228.978H194.882L169.276 246.645Z" fill="white"/>
<path d="M220.178 244.439H181.523L202.682 228.978H234.898L220.178 244.439Z" fill="#FFCD5C"/>
<path d="M185.023 244.439L208.49 236.707L217.239 244.439" stroke="#1C2E3F" stroke-width="1.40173" stroke-linecap="round" stroke-linejoin="round"/>
<path d="M210.562 238.538L222.513 234.084" stroke="#1C2E3F" stroke-width="1.40173" stroke-linecap="round" stroke-linejoin="round"/>
<path d="M203.065 238.538L199.594 234.084" stroke="#1C2E3F" stroke-width="1.40173" stroke-linecap="round" stroke-linejoin="round"/>
</svg>
