<svg width="80" height="80" viewBox="0 0 80 80" fill="none" xmlns="http://www.w3.org/2000/svg">
<g id="icons8-google-drive-480 1">
<path id="Vector" d="M64.3169 65C63.4253 66.55 63.8203 67.8 62.3253 68.6617C60.8303 69.525 59.1086 70 57.3169 70H22.6836C20.8936 70 19.1736 69.525 17.6769 68.6633C16.1803 67.8017 16.5753 66.55 15.6836 65L28.4669 50H51.5336L64.3169 65Z" fill="#1E88E5"/>
<path id="Vector_2" d="M45.7722 11.6646C47.5606 11.6612 49.2789 10.4712 50.7739 11.3346C52.2689 12.1996 53.5406 13.4512 54.4356 15.0029L71.7522 44.9962C72.6472 46.5462 73.0972 48.2746 73.0989 49.9996C73.1006 51.7279 70.9872 53.4546 70.0889 55.0012L51.5439 49.9929L40.0039 30.0046L45.7722 11.6646Z" fill="#FBC02D"/>
<path id="Vector_3" d="M73.1018 50C73.1018 51.7333 72.6518 53.45 71.7518 55L65.6352 65.5833C64.7518 66.8833 63.6185 67.9167 62.3185 68.6667L51.5352 50H73.1018Z" fill="#E53935"/>
<path id="Vector_4" d="M9.91234 55.0013C9.01568 53.4546 6.90234 51.7279 6.90234 50.0013C6.90401 48.2746 7.35234 46.5463 8.24901 44.9946L25.5657 15.0013C26.4607 13.4513 27.7323 12.1979 29.2257 11.3346C30.7207 10.4696 32.4407 11.6596 34.229 11.6629L39.994 30.0113L28.4573 49.9929L9.91234 55.0013Z" fill="#4CAF50"/>
<path id="Vector_5" d="M28.4651 50L17.6818 68.6667C16.3818 67.9167 15.2484 66.8833 14.3651 65.5833L8.24844 55C7.34844 53.45 6.89844 51.7333 6.89844 50H28.4651Z" fill="#1565C0"/>
<path id="Vector_6" d="M50.7648 11.3333L39.9982 30L29.2148 11.3333C30.5148 10.5833 31.9815 10.1167 33.5482 10.0167L45.7648 10C47.5648 10 49.2815 10.4667 50.7648 11.3333Z" fill="#2E7D32"/>
</g>
</svg>
