<svg width="80" height="80" viewBox="0 0 80 80" fill="none" xmlns="http://www.w3.org/2000/svg">
<g id="Group 39887">
<path id="Vector" d="M40.0032 11.8657L15.9685 28.8993L1.91944 19.5308C-0.587782 17.8699 -0.630952 14.293 1.83304 12.547L18.3892 0.793872C19.859 -0.22814 21.8475 -0.270693 23.3172 0.708735L40.0032 11.8657Z" fill="#3789FB"/>
<path id="Vector_2" d="M78.0917 19.5279L64.0426 28.8967L40.0078 11.863L56.6938 0.748688C58.2068 -0.230741 60.1521 -0.230773 61.6218 0.833823L78.1781 12.587C80.6421 14.2903 80.5989 17.8673 78.0917 19.5279Z" fill="#3789FB"/>
<path id="Vector_3" d="M40.0023 45.932L20.8091 58.7071L9.74284 50.8717L1.78889 45.2506C-0.631873 43.5045 -0.588673 39.9278 1.87532 38.2669L15.9244 28.8984L40.0023 45.932Z" fill="#3789FB"/>
<path id="Vector_4" d="M78.0919 38.2669C80.5991 39.9278 80.6424 43.5045 78.1784 45.2506L70.2244 50.8717L59.1581 58.7071L39.9648 45.932L63.9996 28.8984L78.0919 38.2669Z" fill="#3789FB"/>
<path id="Vector_5" d="M68.8859 60.1559C69.4478 59.7301 70.2692 60.1559 70.2692 60.8373V63.9461C70.2692 65.607 69.2749 67.0973 67.7619 67.8213L41.8252 79.6169C40.658 80.1279 39.3612 80.1279 38.194 79.6169L12.2572 67.8213C10.7442 67.0973 9.75 65.607 9.75 63.9461V60.8373C9.75 60.1559 10.5281 59.7301 11.1333 60.1559L19.4763 66.0752C20.2112 66.5863 21.2054 66.6287 21.9403 66.1177L38.7992 54.8758C39.5341 54.4073 40.4851 54.4073 41.22 54.8758L58.0789 66.1177C58.8138 66.6287 59.808 66.5863 60.5429 66.0752L68.8859 60.1559Z" fill="#3789FB"/>
</g>
</svg>
