<svg width="80" height="80" viewBox="0 0 80 80" fill="none" xmlns="http://www.w3.org/2000/svg">
<g id="google_drive" filter="url(#filter0_d_154_667)">
<path id="bg" d="M5 29.8889C5 21.177 5 16.821 6.69545 13.4935C8.18682 10.5665 10.5665 8.18682 13.4935 6.69545C16.821 5 21.177 5 29.8889 5H50.1111C58.823 5 63.179 5 66.5065 6.69545C69.4335 8.18682 71.8132 10.5665 73.3045 13.4935C75 16.821 75 21.177 75 29.8889V50.1111C75 58.823 75 63.179 73.3045 66.5065C71.8132 69.4335 69.4335 71.8132 66.5065 73.3045C63.179 75 58.823 75 50.1111 75H29.8889C21.177 75 16.821 75 13.4935 73.3045C10.5665 71.8132 8.18682 69.4335 6.69545 66.5065C5 63.179 5 58.823 5 50.1111V29.8889Z" fill="white"/>
<g id="g-drive">
<path id="Vector" d="M40.0067 31.1277L31.3545 15.8584C31.6418 15.5659 31.9723 15.3741 32.3028 15.2451C29.7513 16.0848 28.5806 18.95 28.5806 18.95L12.7743 46.8373C12.5519 47.7116 12.4901 48.501 12.5179 49.1961H29.7699L40.0067 31.1277Z" fill="#34A853"/>
<path id="Vector_2" d="M40.0039 31.1277L50.2408 49.1961H67.4927C67.5205 48.501 67.4587 47.7116 67.2363 46.8373L51.43 18.95C51.43 18.95 50.2562 16.0848 47.7078 15.2451C48.0352 15.3741 48.3688 15.5659 48.6561 15.8584L40.0039 31.1277Z" fill="#FBBC05"/>
<path id="Vector_3" d="M40.0038 31.1276L48.656 15.8583C48.3687 15.5658 48.0351 15.3739 47.7077 15.245C47.3308 15.1223 46.9262 15.0406 46.4875 15.0186H46.0304H33.9772H33.52C33.0845 15.0374 32.6767 15.1192 32.2999 15.245C31.9724 15.3739 31.6388 15.5658 31.3516 15.8583L40.0038 31.1276Z" fill="#188038"/>
<path id="Vector_4" d="M29.7706 49.1963L21.2172 64.2926C21.2172 64.2926 20.933 64.1542 20.5469 63.868C21.7608 64.8021 22.9408 65.0002 22.9408 65.0002H56.5334C58.3868 65.0002 58.7729 64.2926 58.7729 64.2926C58.7791 64.2895 58.7822 64.2863 58.7884 64.2832L50.2412 49.1963H29.7706Z" fill="#4285F4"/>
<path id="Vector_5" d="M29.7714 49.1963H12.5195C12.606 51.2469 13.4956 52.4451 13.4956 52.4451L14.1443 53.5711C14.1907 53.6371 14.2185 53.6749 14.2185 53.6749L15.6301 56.1532L18.7994 61.6696C18.8921 61.8929 19.0002 62.0974 19.1145 62.2923C19.1577 62.3584 19.1979 62.4307 19.2442 62.4936C19.2566 62.5125 19.2689 62.5314 19.2813 62.5502C19.6736 63.1038 20.1122 63.5315 20.5509 63.868C20.937 64.1574 21.2212 64.2926 21.2212 64.2926L29.7714 49.1963Z" fill="#1967D2"/>
<path id="Vector_6" d="M50.2422 49.1963H67.4941C67.4076 51.2469 66.518 52.4451 66.518 52.4451L65.8693 53.5711C65.823 53.6371 65.7952 53.6749 65.7952 53.6749L64.3835 56.1532L61.2142 61.6696C61.1215 61.8929 61.0134 62.0974 60.8991 62.2923C60.8559 62.3584 60.8157 62.4307 60.7694 62.4936C60.757 62.5125 60.7447 62.5314 60.7323 62.5502C60.34 63.1038 59.9014 63.5315 59.4628 63.868C59.0766 64.1574 58.7925 64.2926 58.7925 64.2926L50.2422 49.1963Z" fill="#EA4335"/>
</g>
</g>
<defs>
<filter id="filter0_d_154_667" x="-2" y="-1" width="84" height="84" filterUnits="userSpaceOnUse" color-interpolation-filters="sRGB">
<feFlood flood-opacity="0" result="BackgroundImageFix"/>
<feColorMatrix in="SourceAlpha" type="matrix" values="0 0 0 0 0 0 0 0 0 0 0 0 0 0 0 0 0 0 127 0" result="hardAlpha"/>
<feOffset dy="1"/>
<feGaussianBlur stdDeviation="1"/>
<feColorMatrix type="matrix" values="0 0 0 0 0.0627451 0 0 0 0 0.0941176 0 0 0 0 0.156863 0 0 0 0.05 0"/>
<feBlend mode="normal" in2="BackgroundImageFix" result="effect1_dropShadow_154_667"/>
<feBlend mode="normal" in="SourceGraphic" in2="effect1_dropShadow_154_667" result="shape"/>
</filter>
</defs>
</svg>
