<svg width="330" height="266" viewBox="0 0 330 266" fill="none" xmlns="http://www.w3.org/2000/svg">
<path d="M278.47 125.962C275.062 125.953 275.045 132.019 278.458 132.027C281.864 132.036 281.881 125.97 278.47 125.962Z" fill="white"/>
<path d="M288.935 120.855C290.457 123.235 289.149 126.758 288.598 129.323C288.026 131.984 287.453 134.646 286.881 137.305C286.688 138.2 287.857 138.581 288.05 137.686C288.764 134.364 289.478 131.043 290.193 127.722C290.731 125.217 291.424 122.39 289.981 120.13C289.517 119.404 288.463 120.118 288.935 120.855Z" fill="#931F33"/>
<mask id="mask0_746_10040" style="mask-type:luminance" maskUnits="userSpaceOnUse" x="0" y="80" width="330" height="186">
<path d="M0.5 80.5957H329.5V266H0.5V80.5957Z" fill="white"/>
</mask>
<g mask="url(#mask0_746_10040)">
<path d="M0.906052 255.761C-0.371109 257.672 1.5771 263.717 3.7971 263.723L245.722 266.006C247.362 266.012 253.421 265.071 254.922 264.306C272.246 260.339 288.628 257.251 295.088 255.372C296.594 254.934 297.773 253.574 298.184 251.806C306.321 216.819 324.201 118.68 328.626 96.3752C328.826 95.3743 329.023 94.3762 329.223 93.3753C330.365 87.4408 327.756 84.3214 325.601 82.3224C324.761 81.5433 323.258 80.6248 321.601 80.6191L103.678 244.506L0.906052 255.761Z" fill="#560C1B"/>
</g>
<path d="M324.619 85.7084C322.149 99.1441 319.671 112.58 317.201 126.016C310.445 162.697 302.645 199.359 295.129 235.975C294.965 236.749 294.802 237.522 294.648 238.298C294.181 240.545 293.734 242.791 293.281 245.049C293.161 245.697 292.666 246.155 292.098 246.155L62.125 245.555L64.3089 234.445L93.6812 85.1056C94.1815 82.5521 96.4929 80.4933 98.8476 80.499L321.276 81.0791C323.623 81.0848 325.124 83.1549 324.619 85.7084Z" fill="white"/>
<path d="M62.5419 245.157L292.094 245.757C292.501 245.757 292.859 245.421 292.948 244.96C293.398 242.7 293.848 240.448 294.314 238.201C294.468 237.428 294.632 236.654 294.795 235.878C296.354 228.286 297.924 220.694 299.495 213.099C305.402 184.535 311.511 155.002 316.865 125.93L320.394 106.75C321.693 99.7068 322.989 92.6662 324.283 85.6227C324.497 84.5564 324.329 83.5498 323.819 82.7849C323.256 81.9432 322.349 81.4797 321.269 81.4769L98.8412 80.8968C96.6308 80.8968 94.4662 82.8247 94.0044 85.1962L62.5419 245.157ZM292.094 246.553C292.092 246.553 61.6953 245.953 61.6953 245.953L63.973 234.354L93.3477 85.0171C93.8769 82.3043 96.335 80.1006 98.8316 80.1006C98.8412 80.1006 321.269 80.6807 321.269 80.6807C322.542 80.6835 323.665 81.2721 324.345 82.293C324.988 83.2512 325.199 84.4939 324.942 85.7933C323.648 92.8368 322.349 99.8774 321.053 106.918L317.522 126.098C312.168 155.181 306.059 184.72 300.152 213.286C298.579 220.881 297.008 228.476 295.449 236.066C295.286 236.842 295.122 237.616 294.968 238.389C294.504 240.638 294.052 242.882 293.602 245.137C293.451 245.956 292.816 246.553 292.094 246.553Z" fill="#560C1B"/>
<path d="M321.137 103.463L324.987 84.0363L323.354 81.7615L321.264 81.0733L98.8408 80.4961L96.8397 80.9767L94.5644 82.9899L93.1212 87.9092L90.1797 102.861L321.137 103.463Z" fill="#560C1B"/>
<path d="M207.986 79.3624C207.923 78.9899 207.632 78.6941 207.336 78.5918C205.484 77.9434 202.935 79.2941 201.383 80.3946C200.804 80.8097 200.861 81.5889 201.198 82.0666C201.224 82.149 201.258 82.2343 201.306 82.3196C202.607 84.6087 203.606 87.0342 205.487 88.7546C205.893 89.1271 206.526 88.8171 206.764 88.3622C207.43 87.0968 207.719 85.729 207.853 84.2561C207.993 82.7376 208.236 80.8581 207.986 79.3624Z" fill="#7380D1"/>
<path d="M227.208 79.9507C225.584 78.2929 223.682 77.4683 221.635 76.8541C220.916 76.638 220.341 77.3858 220.483 78.2076C220.889 80.5365 221.228 82.8796 221.481 85.2369C221.632 86.6558 221.839 88.2453 223.323 88.3477C225.945 88.5297 227.746 80.5024 227.208 79.9507Z" fill="#7380D1"/>
<path d="M295.129 235.975C294.965 236.749 294.802 237.522 294.648 238.298C294.181 240.545 293.734 242.791 293.282 245.049C293.161 245.697 292.666 246.155 292.098 246.155L62.125 245.555L64.3089 234.445L295.129 235.975Z" fill="#F0E3DF"/>
<path d="M62.8838 244.841L292.097 245.438C292.381 245.438 292.628 245.208 292.686 244.892C293.138 242.626 293.588 240.374 294.055 238.125C294.209 237.354 294.375 236.575 294.538 235.799C296.094 228.212 297.667 220.617 299.238 213.022C305.143 184.461 311.252 154.931 316.603 125.862L320.134 106.682C321.431 99.6415 322.727 92.5981 324.023 85.5546C324.216 84.5793 324.069 83.6693 323.61 82.9841C323.1 82.2191 322.268 81.7983 321.27 81.7926L98.8439 81.2154C96.7514 81.2154 94.707 83.0295 94.2693 85.2674L62.8838 244.841ZM292.097 246.871C292.092 246.871 62.1214 246.271 62.1214 246.271C61.9362 246.271 61.7606 246.169 61.6475 245.998C61.5321 245.831 61.4888 245.603 61.5321 245.393L63.7136 234.283L93.0883 84.9432C93.6535 82.0457 96.1766 79.7822 98.8319 79.7822C98.8464 79.7822 321.272 80.3623 321.272 80.3623C322.628 80.3652 323.826 80.9964 324.56 82.094C325.253 83.1319 325.481 84.4684 325.204 85.8646C323.913 92.9052 322.616 99.9458 321.318 106.986L317.789 126.166C312.433 155.253 306.324 184.794 300.414 213.36C298.843 220.958 297.273 228.55 295.714 236.143C295.551 236.919 295.39 237.69 295.233 238.46C294.767 240.712 294.317 242.956 293.87 245.211C293.689 246.169 292.944 246.871 292.097 246.871Z" fill="#560C1B"/>
<path d="M285.491 238.238C283.54 238.233 283.53 241.705 285.486 241.71C287.434 241.716 287.444 238.241 285.491 238.238Z" fill="white"/>
<path d="M214.408 70.47C212.068 63.3242 212.741 56.4286 212.621 48.9672C212.544 44.3208 211.902 39.4925 209.434 35.7191C205.61 29.8614 197.689 28.815 194.599 35.9893C194.327 36.0234 194.053 36.1826 193.812 36.5267C190.553 41.2413 190.368 47.2952 190.642 53.1699C190.818 56.9063 191.433 60.4636 192.432 64.0152C192.891 65.6587 193.793 67.2796 193.56 69.0653C193.454 69.87 192.249 71.4283 191.941 72.2358C187.705 83.3399 192.641 96.0931 200.785 102.32C205.362 107.234 212.308 105.383 215.911 99.5935C221.895 89.9795 217.552 80.0783 214.408 70.47Z" fill="#912F2E"/>
<path d="M280.616 238.225C278.665 238.219 278.656 241.694 280.609 241.697C282.559 241.702 282.569 238.23 280.616 238.225Z" fill="white"/>
<path d="M291.86 137.268C290.965 145.599 277.111 217.487 277.077 217.754C276.404 220.387 275.834 220.416 274.573 220.382L119.57 219.395C118.68 219.392 117.976 218.36 118.11 217.259L118.317 215.582L132.974 136.051C133.08 135.175 133.778 134.47 134.533 134.47L290.691 135.65C291.443 135.673 291.953 136.392 291.86 137.268Z" fill="#F0E3DF"/>
<path d="M295.334 118.776C294.439 127.107 293.4 128.589 293.366 128.853C292.693 131.486 292.12 131.515 290.862 131.481L135.859 130.494C134.969 130.491 134.265 129.459 134.399 128.358L134.606 126.681L136.446 117.559C136.552 116.686 137.25 115.978 138.007 115.98L294.165 117.158C294.918 117.18 295.427 117.9 295.334 118.776Z" fill="#F0E3DF"/>
<path d="M124.328 140.771C124.978 140.771 125.538 140.222 125.663 139.466C126.026 137.259 126.272 135.621 126.368 134.731C126.462 133.855 125.952 133.136 125.199 133.113L104.18 132.889C103.422 132.889 102.725 133.594 102.621 134.47L101.813 138.826C101.628 139.827 102.275 140.771 103.141 140.771H124.328Z" fill="#F0E3DF"/>
<path d="M124.102 148.496C124.311 147.313 124.511 146.182 124.698 145.11C124.912 143.881 124.119 142.729 123.056 142.729H102.446C101.657 142.729 100.974 143.381 100.808 144.291L100.187 147.674C99.9609 148.909 100.757 150.074 101.825 150.074H122.462C123.253 150.074 123.938 149.415 124.102 148.496Z" fill="#F0E3DF"/>
<path d="M122.452 157.673C122.698 156.322 122.938 155.003 123.169 153.72C123.325 152.853 122.765 152.034 122.012 152.034H100.344C99.788 152.034 99.307 152.492 99.1892 153.135L98.4652 157.087C98.304 157.957 98.8669 158.779 99.6197 158.779H121.295C121.853 158.779 122.334 158.316 122.452 157.673Z" fill="#F0E3DF"/>
<path d="M120.907 166.084C121.121 164.93 121.331 163.781 121.54 162.649C121.72 161.665 121.085 160.738 120.231 160.738H98.8732C98.2431 160.738 97.6995 161.256 97.5672 161.984L96.937 165.416C96.7567 166.4 97.3916 167.332 98.2431 167.332H119.599C120.229 167.332 120.773 166.812 120.907 166.084Z" fill="#F0E3DF"/>
<path d="M119.284 174.83C119.517 173.582 119.75 172.331 119.981 171.085C120.152 170.161 119.556 169.288 118.755 169.288H97.2377C96.6484 169.288 96.1361 169.777 96.011 170.457L95.3256 174.199C95.1572 175.123 95.7513 175.996 96.5522 175.996H118.059C118.649 175.996 119.159 175.51 119.284 174.83Z" fill="#F0E3DF"/>
<path d="M117.525 184.214C117.782 182.84 118.042 181.45 118.304 180.054C118.506 178.976 117.811 177.955 116.88 177.955H95.8083C95.1228 177.955 94.5287 178.521 94.382 179.314L93.6196 183.472C93.4224 184.546 94.1175 185.562 95.0459 185.562H116.101C116.784 185.562 117.376 185.004 117.525 184.214Z" fill="#F0E3DF"/>
<path d="M275.802 238.213C273.854 238.207 273.842 241.679 275.797 241.685C277.746 241.691 277.755 238.219 275.802 238.213Z" fill="white"/>
<path d="M302.511 88.2275C298.85 88.219 298.834 94.7336 302.499 94.7449C306.16 94.7535 306.177 88.2389 302.511 88.2275Z" fill="white"/>
<path d="M313.948 88.2275C310.289 88.219 310.27 94.7336 313.936 94.7449C317.594 94.7535 317.613 88.2389 313.948 88.2275Z" fill="white"/>
<path d="M240.154 68.6617C239.194 67.3822 238.187 66.1509 237.145 64.9623C235.75 63.3728 234.588 61.4989 233.999 59.2951C232.2 52.5616 234.054 45.2964 232.087 38.5003C231.753 37.3516 230.714 37.161 230.014 37.5933C226.12 36.1004 220.415 36.0407 219.212 41.6396C218.11 46.7608 218.546 52.9882 218.269 58.2629C217.988 63.5946 217.67 68.929 217.68 74.2777C217.692 81.4719 217.586 91.1883 222.17 96.7275C224.609 99.6791 228.078 101.206 231.168 102.961C235.18 105.238 239.194 107.516 243.206 109.796C243.678 110.701 245.032 111.11 245.638 109.89C249.236 102.653 250.071 94.046 248.337 85.9476C246.925 79.3734 243.909 73.6607 240.154 68.6617Z" fill="#912F2E"/>
<path d="M225.476 59.4029C226.236 62.7924 227.049 66.3156 228.93 69.1108C231.057 72.2728 234.14 74.1979 236.175 77.5163C240.552 84.6649 241.048 94.1026 237.666 101.931C237.312 102.75 238.359 103.475 238.712 102.653C241.856 95.3737 241.94 86.7436 238.652 79.5039C237.017 75.9012 234.693 73.2879 232.055 70.7202C228.865 67.6179 227.672 63.6029 226.645 59.0191C226.446 58.129 225.274 58.5072 225.476 59.4029Z" fill="#3D0A09"/>
<path d="M62.0152 245.098L1.74335 254.928C1.23585 255.096 0.75 256.02 0.75 256.02L244 257.76C245.328 257.766 246.638 257.387 247.817 256.662L293.061 246.008L62.0152 245.098Z" fill="#560C1B"/>
<path d="M205.651 79.1828C204.352 79.2425 203.092 79.5325 201.892 80.1183C201.194 80.4624 200.694 81.2131 200.91 82.1514C200.995 82.5154 201.223 82.8623 201.514 83.0983C201.485 83.4282 201.538 83.7609 201.706 84.0367C202.44 85.2338 203.753 85.8623 204.913 85.0177C205.867 84.3211 206.358 82.7998 206.854 81.6766C207.32 80.6159 206.762 79.1345 205.651 79.1828Z" fill="#7380D1"/>
<path d="M226.86 81.9545C227.462 81.2721 227.512 80.0579 226.589 79.3868C224.847 78.1271 222.95 77.4191 220.905 77.547C219.592 77.6324 218.909 79.802 220.193 80.6294C220.852 81.0503 221.67 81.4 222.252 81.9488C222.505 82.1849 222.565 81.7441 222.339 82.3242C222.202 82.6711 222.134 83.0493 221.988 83.399C221.182 85.2985 223.592 86.9819 224.4 85.0767C224.455 84.9488 224.506 84.8151 224.559 84.6815C225.562 84.1185 226.56 83.2711 226.86 81.9545Z" fill="#7380D1"/>
<path d="M200.912 89.8716C200.193 90.0991 196.57 90.3835 195.834 90.5712C195.13 90.7503 194.752 91.6545 195.029 92.4422C197.997 100.905 207.163 105.602 215.357 103.086C220.3 101.57 228.013 100.979 232.028 97.1312C232.761 96.4288 232.817 96.7018 232.105 95.9682C230.108 93.9095 226.111 90.1987 225.44 87.0537C223.941 80.0358 223.549 68.784 223.052 61.5813C222.999 60.7822 222.041 60.0714 222.037 60.0628C220.411 54.2563 216.197 56.3406 212.76 59.3008C208.476 62.9917 204.406 68.2664 202.256 73.982C201.939 74.8322 202.227 75.634 202.713 76.1032C203.146 78.5032 203.488 80.9145 203.654 83.3713C203.863 86.4452 203.644 88.9901 200.912 89.8716Z" fill="#F7946D"/>
<path d="M292.136 247.739C282.78 250.492 273.334 252.798 263.877 255.03C259.36 256.097 254.836 257.146 250.319 258.226C245.79 259.31 240.912 258.738 236.301 258.721C217.601 258.644 198.901 258.505 180.2 258.34C142.578 258.005 104.956 257.552 67.3338 257.228C46.3365 257.046 25.3415 256.904 4.34408 256.847C3.56239 256.847 3.56239 258.28 4.34408 258.28C42.0768 258.38 79.8072 258.758 117.54 259.148C155.208 259.537 192.878 259.95 230.551 260.126C235.652 260.151 240.754 260.171 245.853 260.186C250.906 260.2 256.029 258.332 260.974 257.171C271.506 254.695 282.036 252.187 292.458 249.121C293.216 248.897 292.893 247.515 292.136 247.739Z" fill="#931F33"/>
<path d="M186.981 235.327L274.33 235.796C269.15 217.881 262.634 201.662 256.352 190.123C256.527 189.472 256.397 188.721 255.75 188.28C245.196 181.06 232.153 185.923 221.07 188.621C214.186 190.296 207.266 190.16 200.385 191.476C196.469 192.224 193.023 194.03 190.526 197.499C189.857 196.635 188.167 197.01 187.984 198.611C186.632 210.457 186.113 223.321 186.68 235.25C186.752 235.267 186.95 235.327 186.981 235.327Z" fill="#D6B9B0"/>
<path d="M264.809 158.651C264.679 154.391 264.465 150.089 264.205 145.974C263.399 133.423 262.12 122.575 261.206 119.691C259.294 113.669 254.813 108.323 250.402 105.073C248.215 103.469 245.747 101.652 243.157 99.8038C240.668 98.0237 238.068 96.2323 235.525 94.583C232.964 92.9451 230.465 91.4494 228.18 90.2978C227.86 90.1357 227.059 89.0722 226.778 89.8571C223.937 97.7706 219.976 98.0863 214.564 98.0948C212.082 98.0948 201.614 88.5974 201.355 88.5064C201.234 88.4324 199.077 88.7395 198.925 88.731C196.321 88.5519 193.663 88.3528 190.996 88.1993C189.762 88.1367 188.521 88.0742 187.284 88.0372C186.113 87.9917 184.939 87.9576 183.773 87.9576C180.87 87.9206 177.991 88.0201 175.165 88.3102C168.339 89.0125 161.64 92.2968 155.341 95.3024C154.711 95.6095 154.61 96.4285 154.838 96.9887C154.747 97.1934 154.718 97.455 154.824 97.7621C157.878 106.836 164.353 121.216 168.139 127.275C168.553 127.932 168.933 128.489 169.274 128.93C169.991 129.866 172.24 128.344 171.843 129.516C161.147 160.468 185.059 206.286 185.403 206.726C190.026 212.687 198.088 213.471 204.366 214.02C214.946 214.939 225.871 213.995 236.141 210.779C244.735 208.077 259.46 200.766 262.911 189.918C264.84 183.879 265.198 171.444 264.809 158.651Z" fill="#7380D1"/>
<path d="M188.392 88.2649C188.034 88.1824 187.668 88.1028 187.286 88.0374C186.234 87.8327 185.099 87.6507 183.897 87.4971C173.367 86.1749 157.81 86.9142 146.171 88.7312C132.853 90.8212 115.88 92.7008 102.671 95.6467C102.267 95.7462 101.961 95.9965 101.764 96.3206C101.627 96.4202 101.497 96.5566 101.384 96.7443C96.4532 104.828 95.5464 122.197 102.889 128.345C103.599 128.939 117.275 131.632 123.711 131.848C133.996 132.189 146.063 132.92 156.273 131.282C160.037 130.676 164.34 129.931 167.669 127.625C167.83 127.517 167.991 127.401 168.14 127.275C170.769 125.177 172.087 121.719 173.513 118.452C176.789 110.942 189.703 98.004 190.751 91.7113C191.042 89.9568 190.417 88.7227 188.392 88.2649Z" fill="#7380D1"/>
<path d="M121.603 92.9425C115.174 85.609 90.8259 80.0868 83.4684 76.8879C77.7993 74.4254 71.5771 71.1923 65.617 73.251C62.5864 70.2169 59.3154 67.5838 55.8302 65.3317C55.7629 65.2862 55.6956 65.2606 55.6282 65.2294C54.8417 64.3905 55.075 65.2578 54.8032 66.8843C53.0089 77.6329 46.1325 83.6555 46.7145 84.3891C48.0518 86.0697 49.4661 87.6336 50.9741 89.081C51.4432 89.5331 51.9194 90.1501 51.8761 90.8639C51.0198 105.409 65.1552 114.997 76.4957 120.55C89.6281 126.982 107.898 132.32 129.198 132.047C130.526 132.03 125.858 97.7964 121.603 92.9425Z" fill="#7380D1"/>
<path d="M225.509 59.2211C228.747 51.5436 231.405 42.993 226.39 35.7619C220.944 27.9052 210.859 27.2768 203.702 32.0625C194.872 37.9742 192.433 50.5142 191.017 61.4874C190.504 65.4513 189.643 70.7232 191.793 74.2037C194.302 80.6529 201.845 80.2349 206.79 79.3306C214.568 77.906 218.958 74.5193 222.602 65.9063C223.492 63.7992 224.528 61.55 225.509 59.2211Z" fill="#F7946D"/>
<path d="M129.431 112.616C128.04 111.817 126.412 111.849 124.943 112.36C124.919 112.346 124.899 112.329 124.87 112.321C124.264 112.173 123.947 112.434 123.841 112.847C123.579 113.009 123.637 113.367 123.829 113.546C123.904 113.978 124.11 114.428 124.399 114.715C125.756 116.08 128.031 116.648 129.702 115.815C131.129 115.104 130.592 113.285 129.431 112.616Z" fill="white"/>
<path d="M98.4828 114.186C96.6741 112.295 92.6646 110.501 90.625 112.841C87.1976 116.78 96.3807 121.258 98.5766 120.783C101.831 120.078 100.234 116.018 98.4828 114.186Z" fill="white"/>
<path d="M102.502 116.846C106.665 115.538 110.549 112.737 114.395 110.51C115.095 110.106 114.482 108.87 113.784 109.273C110.035 111.443 106.23 114.193 102.179 115.464C101.426 115.7 101.746 117.082 102.502 116.846Z" fill="#3D0A09"/>
<path d="M185.471 20.6346C183.41 34.1101 171.983 102.122 171.983 102.133C171.177 107.007 169.558 109.421 165.193 109.421L38.7203 109.083C34.1408 109.108 34.1408 107.388 34.7325 103.947L35.3265 100.7L48.8534 22.5455C49.0891 21.1322 49.5822 17.7285 53.6253 17.7285L183.703 18.0726C184.918 18.0754 185.688 19.2157 185.471 20.6346Z" fill="#F5E9DA"/>
<path d="M75.7291 43.4221C65.2497 51.9499 54.7726 60.4805 44.2932 69.0083C42.8043 70.2225 41.3155 71.4338 39.8267 72.6451C39.1869 73.1655 39.793 74.4081 40.4376 73.8821C50.9171 65.3543 61.3941 56.8237 71.8736 48.2959C73.3624 47.0846 74.8512 45.8704 76.34 44.659C76.9774 44.1387 76.3737 42.8961 75.7291 43.4221Z" fill="#5E1A19"/>
<path d="M147.324 48.262C155.384 56.912 163.429 65.6047 171.698 73.9761C172.584 74.8718 174.188 77.1751 175.453 77.3087C176.23 77.3912 176.225 75.958 175.453 75.8756C175.852 75.9182 175.58 75.8898 175.369 75.7021C175.138 75.5002 174.912 75.2898 174.688 75.0765C173.935 74.3628 173.202 73.6178 172.471 72.8756C170.202 70.5781 167.963 68.2378 165.729 65.8919C160.952 60.8788 156.204 55.8315 151.466 50.7671C150.372 49.5956 149.275 48.4212 148.183 47.2497C147.606 46.6298 146.747 47.6392 147.324 48.262Z" fill="#5E1A19"/>
<path d="M182.918 19.5446C167.758 31.6467 152.403 43.436 136.859 54.8386C131.274 58.9333 125.658 62.9739 119.979 66.8838C117.492 68.5928 114.991 70.2818 112.47 71.9254C110.207 73.4012 106.423 74.0211 104.275 71.9851C95.0154 63.2071 86.287 53.5647 77.5056 44.1355C69.4313 35.4712 61.4485 26.6875 53.3935 17.9977C52.8186 17.3778 51.9576 18.3873 52.5348 19.0128C68.8156 36.5688 84.7909 54.577 101.695 71.3055C102.503 72.1074 103.321 73.0998 104.227 73.7453C105.242 74.4675 106.565 74.5813 107.72 74.604C110.712 74.6609 112.737 73.404 115.274 71.7178C120.778 68.061 126.199 64.2393 131.586 60.355C142.848 52.2339 153.962 43.8256 165.007 35.2921C171.207 30.5007 177.391 25.6809 183.532 20.7815C184.174 20.2697 183.568 19.0242 182.918 19.5446Z" fill="#5E1A19"/>
<path d="M46.6199 71.6553C48.8423 69.7843 47.238 65.6697 45.5086 63.8783C42.5743 60.8385 38.1127 58.467 34.1633 59.4224C29.9759 60.4319 29.579 64.5237 30.8009 68.6412C30.1611 69.0279 29.6343 69.5795 29.2856 70.3473C28.107 72.9435 29.2255 75.7443 30.8826 77.8059C30.6133 78.0846 30.3703 78.3974 30.1611 78.7585C28.4414 81.7186 30.4569 84.838 32.8188 86.0323C32.9102 86.0778 33.0016 86.0863 33.0906 86.0977C32.725 86.6038 32.4629 87.2209 32.345 87.9744C31.9529 90.4739 33.9974 93.3174 35.9504 94.0425C36.0923 94.1136 36.2438 94.1477 36.4098 94.1164C36.6503 94.1022 36.8451 93.9828 36.9967 93.8008C38.382 92.7885 39.8107 91.8245 41.1504 90.7326C42.0452 90.0018 42.8533 89.0521 42.988 87.7128C43.1564 86.0493 42.3867 85.0854 41.3188 84.5508C41.5761 84.4712 41.8335 84.3887 42.0909 84.2977C42.9591 83.9934 43.9381 83.5072 44.2676 82.4124C44.7654 80.749 43.9741 79.4267 42.7715 78.4343C43.4113 78.44 44.0583 78.4116 44.7173 78.3092C45.944 78.1159 47.2019 77.6182 47.7359 76.168C48.4454 74.2373 47.7984 72.77 46.6199 71.6553Z" fill="#F7946D"/>
<path d="M228.436 93.67C228.458 90.2293 228.503 86.7432 228.277 83.3139C228.14 81.2694 227.635 79.8078 225.978 79.0315C225.769 78.9348 225.591 78.9519 225.429 79.0116C225.201 78.9888 224.96 79.0827 224.758 79.367C222.524 82.4921 219.801 84.892 216.407 85.964C212.489 87.201 203.831 87.9773 202.811 81.039C202.777 80.7945 202.679 80.6296 202.563 80.4988C202.368 80.2173 202.063 80.0637 201.673 80.2428C200.026 80.9907 199.311 82.4807 199.133 84.5281C198.84 87.9204 198.934 91.5942 199.456 94.9411C200.322 100.495 222.11 104.976 228.421 94.7847C228.676 94.3724 228.631 93.9686 228.436 93.67Z" fill="#7380D1"/>
<path d="M177.326 121.83C179.183 124.037 181.194 126.158 182.581 128.834C182.988 129.619 184.037 128.899 183.625 128.109C182.182 125.328 180.114 123.113 178.182 120.818C177.632 120.161 176.775 121.176 177.326 121.83Z" fill="#3D0A09"/>
<path d="M198.89 90.7441C196.23 97.6908 206.028 98.7202 209.41 99.2633C215.678 100.267 222.251 100.079 227.771 96.0131C228.43 95.5269 227.824 94.2871 227.158 94.7762C222.846 97.9524 217.787 98.6775 212.797 98.2567C210.319 98.0491 197.675 97.3724 199.936 91.4663C200.256 90.6332 199.212 89.9052 198.89 90.7441Z" fill="#3D0A09"/>
<path d="M203.667 40.8743C202.796 39.6516 201.452 39.1938 200.148 39.5179C199.035 39.7938 197.303 40.8629 197.151 42.3558C197.041 43.4477 197.794 44.8069 198.806 44.5709C199.547 44.4003 200.278 44.3121 201.031 44.3974C201.615 44.4685 202.176 44.6477 202.758 44.5055C204.22 44.1529 204.567 42.134 203.667 40.8743Z" fill="#912F2E"/>
<path d="M217.227 45.7141C216.344 44.1388 215.031 42.8223 213.362 42.6005C211.972 42.4156 209.896 43.2004 210.004 45.1739C210.127 47.4146 212.424 46.8231 213.634 47.6392C214.343 48.1169 215.247 48.606 216.084 48.3359C216.967 48.0544 217.799 46.7378 217.227 45.7141Z" fill="#912F2E"/>
<path d="M177.402 99.4656C178.136 93.0762 175.62 88.4043 171.454 84.6423C171.314 84.5143 171.175 84.4631 171.043 84.4574C169.025 82.8139 164.859 80.3798 164.361 84.0167C164.313 84.3664 164.688 84.955 164.76 85.2707C162.461 83.7693 158.319 83.0243 159.233 86.6214C159.678 88.3673 160.594 89.6014 161.771 90.6251C159.312 89.3654 157.79 89.4222 157.598 92.2999C157.516 93.5198 158.064 94.3814 158.487 94.9131C156.457 94.4297 156.159 96.6079 156.542 99.4343C156.816 101.493 159.204 102.389 159.327 105.556C159.409 107.618 158.834 109.011 157.432 115.634C156.739 118.91 157.559 121.893 158.723 124.935C160.332 129.135 162.98 132.456 165.722 135.763C165.744 135.792 179.227 130.665 179.252 130.551C177.787 128.299 173.152 119.743 173.188 117.488C173.607 110.2 176.591 106.486 177.402 99.4656Z" fill="#F7946D"/>
<path d="M257.686 113.692C257.619 113.28 250.733 99.5912 230.07 127.555C221.882 138.63 216.187 148.31 207.124 158.094C203.862 161.617 201.236 166.045 198.903 170.597C195.059 178.096 217.519 192.032 218.515 191.799C226.123 189.999 238.937 185.381 251.036 162.385C258.061 149.037 267.454 127.998 257.686 113.692Z" fill="#7380D1"/>
<path d="M225.557 165.519C222.938 158.623 229.923 163.576 225.223 158.577C205.149 137.222 189.22 132.101 182.278 130.156C181.913 130.048 181.22 129.48 180.96 129.121C179.308 126.798 177.511 124.142 175.856 121.819C175.498 121.324 175.079 121.188 174.682 121.27C174.447 121.171 174.187 121.125 173.898 121.179C171.955 121.54 170.127 122.351 168.467 123.511C166.517 124.853 164.809 126.681 163.431 128.831C162.669 130.02 162.007 131.308 161.456 132.676C160.886 134.126 161.846 136.088 162.373 137.359C162.914 138.644 163.582 139.836 164.338 140.959C163.118 147.846 163.073 152.276 165.076 157.193C165.831 159.064 166.89 161.017 168.292 163.198C169.199 164.611 170.021 165.826 170.813 166.906C174.281 171.732 176.83 173.813 182.187 178.627C193.958 189.208 217.651 202.172 229.687 187.11C230.603 185.964 228.27 172.667 225.557 165.519Z" fill="#7380D1"/>
<path d="M182.794 129.089C189.695 133.073 196.196 137.719 202.296 143.236C208.405 148.761 214.377 154.434 220.77 159.507C221.419 160.024 222.028 158.784 221.383 158.273C214.99 153.197 209.018 147.524 202.909 141.999C196.807 136.483 190.308 131.836 183.405 127.852C182.708 127.449 182.092 128.686 182.794 129.089Z" fill="#3D0A09"/>
<path d="M221.556 151.437C224.649 152.017 227.422 153.55 229.748 156.032C230.325 156.649 231.186 155.64 230.607 155.02C228.132 152.378 225.176 150.672 221.878 150.055C221.116 149.913 220.786 151.292 221.556 151.437Z" fill="#3D0A09"/>
<path d="M238.559 116.237C233.589 121.409 229.082 127.247 224.726 133.13C220.464 138.889 216.166 144.832 212.758 151.36C212.347 152.148 213.395 152.867 213.807 152.085C217.246 145.494 221.59 139.514 225.905 133.711C230.164 127.981 234.568 122.297 239.415 117.249C240.002 116.638 239.141 115.628 238.559 116.237Z" fill="#3D0A09"/>
<path d="M255.853 154.727C251.949 162.024 247.285 168.586 242.309 174.888C237.859 180.524 233.208 186.185 227.649 190.305C224.869 192.367 221.778 194.093 218.488 194.545C215.157 195.003 211.592 194.502 208.357 193.538C202.27 191.733 196.658 187.692 191.283 183.993C184.741 179.491 178.667 174.271 173.131 168.16C172.563 167.531 171.702 168.541 172.274 169.172C177.357 174.78 182.881 179.702 188.834 183.942C194.417 187.923 200.326 192.222 206.613 194.457C212.73 196.632 219.315 196.9 225.15 193.587C231.337 190.078 236.472 184.195 241.167 178.405C246.951 171.274 252.421 163.818 256.899 155.449C257.317 154.667 256.269 153.948 255.853 154.727Z" fill="#3D0A09"/>
<path d="M178.265 128.302C173.647 129.997 168.952 133.38 166.302 138.268C165.879 139.047 166.927 139.767 167.348 138.991C169.823 134.43 174.282 131.265 178.588 129.684C179.331 129.411 179.011 128.026 178.265 128.302Z" fill="#3D0A09"/>
<path d="M159.942 97.1531C162.331 99.5502 163.456 102.977 163.081 106.648C162.99 107.56 164.202 107.552 164.293 106.648C164.702 102.644 163.399 98.7483 160.801 96.1408C160.209 95.5493 159.348 96.5559 159.942 97.1531Z" fill="#CB5B45"/>
<path d="M163.062 92.3568C166.54 95.0184 168.409 99.6988 168.031 104.558C167.959 105.477 169.174 105.471 169.243 104.558C169.662 99.1898 167.49 94.0402 163.673 91.1199C163.016 90.6166 162.408 91.8564 163.062 92.3568Z" fill="#CB5B45"/>
<path d="M166.474 87.907C167.973 89.6814 169.81 91.5382 170.838 93.7533C172.023 96.3182 172.189 99.4546 172.038 102.318C171.992 103.239 173.204 103.237 173.25 102.318C173.401 99.4461 173.214 96.2898 172.153 93.6481C171.097 91.0207 169.043 88.9193 167.331 86.8947C166.78 86.2407 165.924 87.2559 166.474 87.907Z" fill="#CB5B45"/>
<path d="M240.345 28.6335C239.513 24.8459 235.718 23.0857 232.3 24.3426C227.833 25.9861 226.054 31.022 224.23 35.1338C223.99 35.6741 224.072 36.1916 224.315 36.5954C224.194 37.0276 224.286 37.5053 224.726 37.9005C227.807 40.6588 232.264 39.9422 235.763 38.3896C239.6 36.6892 241.281 32.8845 240.345 28.6335Z" fill="#912F2E"/>
<path d="M45.2836 70.1228C41.938 66.0765 36.6682 65.1296 32.4422 67.7741C31.7544 68.2034 32.3653 69.4404 33.0556 69.0081C36.8053 66.6651 41.469 67.5579 44.4249 71.1351C44.9709 71.7977 45.8296 70.7854 45.2836 70.1228Z" fill="#CB5B45"/>
<path d="M41.6388 76.3135C38.6299 74.9315 35.354 75.3324 32.6338 77.3798C31.9771 77.8746 32.5857 79.1144 33.2447 78.6167C35.7269 76.7514 38.5794 76.4386 41.3189 77.6954C42.0453 78.031 42.3604 76.6433 41.6388 76.3135Z" fill="#CB5B45"/>
<path d="M39.7918 83.8121C37.6343 83.2349 35.4913 83.8974 33.8437 85.6348C33.2593 86.249 34.1179 87.2585 34.7 86.6471C36.0156 85.2595 37.7498 84.7362 39.4695 85.1941C40.2295 85.3988 40.5542 84.0168 39.7918 83.8121Z" fill="#CB5B45"/>
<path d="M230.724 34.988C230.437 34.4079 230.125 33.8449 229.781 33.2989C225.812 27.0062 218.407 24.7712 212.083 24.5892C197.787 24.1769 191.969 39.6059 192.11 40.004C191.56 41.5793 192.644 44.71 193.513 43.0864C196.94 36.66 203.379 33.1113 209.235 33.1795C209.652 33.1852 209.974 33.5947 209.996 34.0894C210.161 38.1045 211.621 42.2731 213.281 45.529C215.056 49.0066 217.444 52.0265 220.256 54.3667C221.685 55.5525 223.215 56.5619 224.816 57.3809C226.731 58.3562 229.903 60.4547 231.075 57.0112C233.425 50.0929 233.983 41.5964 230.724 34.988Z" fill="#912F2E"/>
<path d="M221.367 66.6768C219.869 70.2369 218.272 74.1411 215.417 76.4614C212.461 78.8585 208.571 79.123 205.108 79.2879C204.331 79.3249 204.326 80.758 205.108 80.721C208.785 80.5447 212.891 80.2263 216.028 77.6955C219.082 75.233 220.814 71.2037 222.413 67.4019C222.76 66.5773 221.716 65.8522 221.367 66.6768Z" fill="#CB5B45"/>
<path d="M213.596 48.5801C213.122 48.0512 212.424 47.9403 211.823 48.1764C209.367 49.146 209.651 55.5838 212.42 54.2502C213.475 53.7383 213.995 52.0578 214.062 50.8038C214.101 50.0559 214.082 49.1261 213.596 48.5801Z" fill="#2E060A"/>
<path d="M201.232 45.8309C200.77 45.2622 200.083 45.1513 199.484 45.4186C197.054 46.4963 197.319 52.9796 200.061 51.4981C201.11 50.9322 201.598 49.6072 201.675 48.2423C201.721 47.4319 201.711 46.4196 201.232 45.8309Z" fill="#2E060A"/>
<path d="M203.988 49.2289C202.923 49.7521 201.951 50.6876 201.814 52.1293C201.663 53.7131 202.538 54.9984 203.495 55.9709C204.082 56.5709 204.943 55.5614 204.352 54.9557C203.81 54.4069 203.219 53.7757 203.05 52.9141C202.841 51.8364 203.515 51.0004 204.311 50.6108C205.02 50.2611 204.707 48.8763 203.988 49.2289Z" fill="#CB5B45"/>
<path d="M206.045 54.8584C206.312 54.8072 206.563 54.9551 206.741 55.1712C207.287 55.8309 208.145 54.8186 207.599 54.1589C207.094 53.5503 206.426 53.3399 205.723 53.4764C205.401 53.539 205.221 54.0138 205.3 54.3579C205.396 54.7645 205.721 54.9209 206.045 54.8584Z" fill="#CB5B45"/>
<path d="M208.482 59.2038C205.968 58.7403 200.744 57.3015 200.665 57.4778C200.528 57.5432 200.412 57.6626 200.395 57.8446C200.266 59.218 200.379 59.9915 201.365 60.7649C203.563 62.4824 207.991 62.7867 208.806 59.7469C208.867 59.5308 208.725 59.2465 208.482 59.2038Z" fill="white"/>
<path d="M227.664 31.5253C229.732 33.0921 230.995 35.657 231.123 38.5574C231.163 39.473 232.376 39.4787 232.335 38.5574C232.186 35.1394 230.714 32.1367 228.277 30.2855C227.616 29.7879 227.01 31.0277 227.664 31.5253Z" fill="#3D0A09"/>
<path d="M221.599 33.4755C226.015 39.5891 225.38 47.9719 224.406 55.3651C224.286 56.2665 225.455 56.656 225.573 55.7461C226.626 47.7785 227.194 39.0176 222.456 32.4632C221.95 31.7609 221.094 32.7789 221.599 33.4755Z" fill="#3D0A09"/>
<path d="M228.854 43.6783C229.458 46.1521 228.724 48.5151 227.923 50.7956C227.625 51.6487 228.796 52.0184 229.092 51.1767C229.982 48.6402 230.692 46.027 230.023 43.2972C229.806 42.4129 228.638 42.7882 228.854 43.6783Z" fill="#3D0A09"/>
<path d="M227.694 54.1799C223.892 48.7118 217.92 60.6518 219.721 64.8375C221.258 68.4118 224.664 65.0451 226.126 63.0916C227.709 60.9845 229.501 56.7818 227.694 54.1799Z" fill="#F7946D"/>
<path d="M225.847 55.2284C224.152 56.1383 222.913 57.9269 222.466 60.0567C222.278 60.9524 223.445 61.3335 223.635 60.4406C224.012 58.6321 225.027 57.2303 226.458 56.4682C227.168 56.0871 226.554 54.8531 225.847 55.2284Z" fill="#CB5B45"/>
<path d="M257.252 200.511C251.179 208.606 242.587 213.358 233.852 216.048C224.428 218.951 214.485 219.639 204.809 218.462C199.542 217.822 194.325 216.571 189.303 214.581C188.562 214.288 188.244 215.67 188.98 215.963C198.224 219.625 208.164 220.862 217.876 220.302C227.591 219.742 237.464 217.37 246.188 212.144C250.655 209.465 254.777 205.965 258.111 201.526C258.628 200.838 257.771 199.82 257.252 200.511Z" fill="#3D0A09"/>
<path d="M198.369 10.4259C197.133 5.73119 194.323 1.7474 189.97 0.48771C183.498 -1.38334 176.438 2.27345 173.028 8.9842C169.622 15.6836 171.108 23.4777 176.126 28.3828C183.387 35.486 196.389 31.7467 198.665 20.4664C199.317 17.2191 199.216 13.6561 198.369 10.4259Z" fill="#FF5656"/>
<path d="M184.088 11.2504C184.98 10.6078 186.329 10.204 187.231 11.0742C188.746 12.5414 186.772 14.4324 185.814 15.1461C184.506 16.1243 182.488 16.6333 181.411 17.9697C180.744 18.8 181.091 19.7697 181.973 20.0171C182.899 20.2758 184.131 20.0739 185.081 20.0853C186.257 20.1024 187.436 20.1024 188.612 20.0825C189.393 20.0739 189.393 18.6408 188.612 18.6493C187.26 18.6721 185.903 18.6692 184.549 18.6465C183.941 18.6351 183.332 18.6266 182.724 18.6067C182.481 18.4986 182.402 18.5754 182.486 18.8342C182.719 18.6636 182.962 18.4986 183.205 18.3479C184.953 17.2361 187.003 16.4513 188.256 14.512C189.203 13.0447 189.312 11.0201 187.919 9.86849C186.591 8.76804 184.792 9.06946 183.474 10.0107C182.808 10.4884 183.417 11.7282 184.088 11.2504Z" fill="#3D0A09"/>
<path d="M248.11 126.355C247.203 124.338 244.95 123.761 243.49 125.334C243.29 125.55 243.124 125.789 242.975 126.033C242.588 126.5 242.273 127.068 242.063 127.702C241.599 129.118 241.375 130.896 241.727 132.38C242.169 134.242 243.615 135.499 245.245 135.391C249.108 135.133 249.565 129.59 248.11 126.355Z" fill="white"/>
<path d="M206.342 114.978C206.222 115.219 206.284 115.131 206.342 114.978V114.978Z" fill="white"/>
<path d="M208.777 112.725C206.504 112.648 205.198 115.645 205.424 118.025C205.703 120.971 208.315 123.678 210.665 121.532C211.639 120.641 211.942 119.362 212.036 117.963C212.202 115.506 211.138 112.805 208.777 112.725Z" fill="white"/>
<path d="M190.751 91.7112C190.743 91.7283 190.736 91.7567 190.729 91.7738C189.709 94.5377 186.95 95.9083 184.863 93.7813C183.369 92.26 183.27 90.0108 183.773 87.9577C183.812 87.8042 183.85 87.6506 183.896 87.4971C185.098 87.6506 186.234 87.8326 187.285 88.0373C188.521 88.0743 189.762 88.1369 190.996 88.1994C191.232 89.3255 191.155 90.5766 190.751 91.7112Z" fill="white"/>
<path d="M141.125 120.647C140.159 120.311 139.095 120.158 138.136 120.63C136.974 121.201 136.248 122.68 136.481 124.161C136.782 126.064 138.492 127.545 139.997 128.319C140.113 128.378 140.231 128.435 140.351 128.484C140.421 128.515 140.493 128.555 140.56 128.58C140.875 128.711 141.212 128.748 141.544 128.717C141.708 128.711 141.873 128.697 142.039 128.66C143.196 128.395 144.197 127.355 144.469 125.995C144.964 123.51 143.002 121.298 141.125 120.647Z" fill="white"/>
<path d="M204.002 168.325C203.786 166.696 203.117 165.194 202.21 163.954C201.229 162.609 199.673 161.279 198.095 161.611C195.82 162.095 195.363 164.856 196.139 167.057C196.722 168.712 197.741 170.068 199.069 170.947C199.338 171.126 199.627 171.234 199.92 171.276C200.488 171.558 201.111 171.729 201.799 171.743C203.42 171.774 204.223 170 204.002 168.325Z" fill="white"/>
<path d="M183.555 133.736C181.794 133.212 180.187 134.66 180.11 136.656C179.641 137.483 179.576 138.547 180.009 139.508C180.959 141.624 182.989 143.003 185.019 142.872C186.234 142.792 187.331 141.698 187.304 140.171C187.259 137.538 185.871 134.424 183.555 133.736Z" fill="white"/>
<path d="M173.155 163.863C173.092 165.455 172.065 166.627 170.815 166.906C170.023 165.825 169.201 164.611 168.294 163.198C166.892 161.017 165.833 159.063 165.078 157.192C165.307 157.038 165.559 156.913 165.841 156.822C168.08 156.083 170.579 157.965 171.89 159.982C172.59 161.071 173.208 162.458 173.155 163.863Z" fill="white"/>
<path d="M169.366 126.798C169.373 129.147 167.672 131.129 165.654 130.804C164.548 130.634 163.812 129.849 163.43 128.831C164.808 126.681 166.516 124.853 168.466 123.511C169.036 124.466 169.356 125.672 169.366 126.798Z" fill="white"/>
<path d="M233.916 170.4C232.533 170.056 230.936 170.753 229.803 171.668C229.671 171.776 229.551 171.899 229.437 172.026C228.54 172.905 227.879 174.062 227.468 175.436C226.941 177.207 228.3 178.74 229.671 178.857C232.04 179.059 234.671 177.569 235.828 175.061C236.737 173.087 235.701 170.846 233.916 170.4Z" fill="white"/>
<path d="M245.991 191.542C244.108 192.66 242.525 194.576 241.676 196.862C241.352 197.727 241.316 198.691 241.64 199.478C241.878 201.21 243.658 202.507 245.053 201.443C247.158 199.831 248.683 197.46 249.347 194.593C249.897 192.213 247.728 190.507 245.991 191.542Z" fill="white"/>
<path d="M207.106 199.257C206.486 198.037 205.473 196.916 204.27 196.606C202.748 196.208 201.132 197.187 200.747 199.041C200.011 202.569 203.21 210.187 206.911 207.108C209.074 205.308 208.237 201.475 207.106 199.257Z" fill="white"/>
<path d="M264.204 145.975C260.474 148.343 259.603 160.684 264.76 158.668C264.777 158.66 264.791 158.66 264.808 158.651C264.678 154.391 264.464 150.089 264.204 145.975Z" fill="white"/>
<path d="M243.156 99.8037C242.882 100.048 242.586 100.256 242.281 100.444C240.094 101.777 236.362 102.605 235.195 99.1583C235.173 99.0758 235.159 98.9962 235.135 98.9137C235.051 98.7971 234.967 98.6805 234.906 98.5554C234.197 97.1138 234.608 95.6181 235.525 94.583C238.067 96.2323 240.667 98.0237 243.156 99.8037Z" fill="white"/>
<path d="M321.591 83.3287C323.969 84.8983 322.125 90.0792 321.66 92.4763C321.095 95.4052 320.53 98.334 319.962 101.263C319.792 102.161 320.958 102.545 321.131 101.644C321.944 97.4411 322.764 93.2412 323.57 89.0328C324.051 86.5276 324.429 83.559 322.202 82.0889C321.521 81.6396 320.908 82.8765 321.591 83.3287Z" fill="#931F33"/>
</svg>
