<svg width="260" height="282" viewBox="0 0 260 282" fill="none" xmlns="http://www.w3.org/2000/svg">
<path d="M259.795 262.738C260.782 266.437 258.147 270.194 254.469 270.194H228.828V187.98H254.469C258.147 187.98 260.782 191.738 259.795 195.44L250.79 229.087L259.795 262.738Z" fill="#C80A50"/>
<path d="M31.1728 187.98V270.194H5.53515C1.8569 270.194 -0.778673 266.437 0.208979 262.738L9.2134 229.087L0.208979 195.44C-0.778673 191.738 1.8569 187.98 5.53515 187.98H31.1728Z" fill="#C80A50"/>
<path d="M14.7031 187.98V246.706C14.7031 253.164 19.6469 258.45 25.6856 258.45V270.194H31.1741C31.1741 239.939 31.1741 219.016 31.1741 187.98C21.3196 187.98 37.4631 187.98 14.7031 187.98Z" fill="#A00028"/>
<path d="M228.828 187.98C228.828 218.91 228.828 240.884 228.828 270.194H234.319V258.45C240.358 258.45 245.299 253.164 245.299 246.706V187.98C222.531 187.98 238.691 187.98 228.828 187.98Z" fill="#A00028"/>
<path d="M239.809 176.236V246.706C239.809 249.945 237.349 252.578 234.318 252.578H25.6865C22.6548 252.578 20.1953 249.945 20.1953 246.706V176.236C20.1953 172.994 22.6548 170.361 25.6865 170.361H234.318C237.349 170.361 239.809 172.994 239.809 176.236Z" fill="#C80A50"/>
<path d="M102.549 243.77H80.5866C79.0735 243.77 77.8438 242.454 77.8438 240.831V193.852C77.8438 192.232 79.0735 190.916 80.5866 190.916C82.1025 190.916 83.3322 192.232 83.3322 193.852V237.895H102.549C104.065 237.895 105.294 239.211 105.294 240.831C105.294 242.454 104.065 243.77 102.549 243.77Z" fill="#A00028"/>
<path d="M129.999 243.77C122.428 243.77 116.273 237.185 116.273 229.087V205.596C116.273 197.498 122.428 190.916 129.999 190.916C137.57 190.916 143.727 197.498 143.727 205.596V229.087C143.727 237.185 137.57 243.77 129.999 243.77ZM129.999 196.788C125.459 196.788 121.765 200.74 121.765 205.596V229.087C121.765 233.943 125.459 237.895 129.999 237.895C134.541 237.895 138.236 233.943 138.236 229.087V205.596C138.236 200.74 134.541 196.788 129.999 196.788Z" fill="#A00028"/>
<path d="M168.436 243.77C160.865 243.77 154.711 237.185 154.711 229.087V205.596C154.711 197.498 160.865 190.916 168.436 190.916C176.007 190.916 182.162 197.498 182.162 205.596C182.162 207.219 180.932 208.535 179.416 208.535C177.903 208.535 176.673 207.219 176.673 205.596C176.673 200.74 172.978 196.788 168.436 196.788C163.897 196.788 160.202 200.74 160.202 205.596V229.087C160.202 233.943 163.897 237.895 168.436 237.895C172.978 237.895 176.673 233.943 176.673 229.087V226.151H168.436C166.92 226.151 165.691 224.835 165.691 223.215C165.691 221.595 166.92 220.279 168.436 220.279H179.416C180.932 220.279 182.162 221.595 182.162 223.215V229.087C182.162 237.185 176.007 243.77 168.436 243.77Z" fill="#A00028"/>
<path d="M102.549 237.895H80.5866C79.0735 237.895 77.8438 236.581 77.8438 234.959V187.98C77.8438 186.36 79.0735 185.044 80.5866 185.044C82.1025 185.044 83.3322 186.36 83.3322 187.98V232.023H102.549C104.065 232.023 105.294 233.339 105.294 234.959C105.294 236.581 104.065 237.895 102.549 237.895Z" fill="#F0F0F0"/>
<mask id="mask0_746_9927" style="mask-type:luminance" maskUnits="userSpaceOnUse" x="30" y="0" width="200" height="171">
<path d="M30.6875 0H229.296V170.462H30.6875V0Z" fill="white"/>
</mask>
<g mask="url(#mask0_746_9927)">
<path d="M228.823 35.2974V170.362H31.1719V5.93449C31.1719 2.69223 33.6341 0.0625 36.6631 0.0625H195.881L228.823 35.2974Z" fill="#F0F0F0"/>
</g>
<path d="M184.899 99.8918C184.899 100.855 184.877 101.815 184.833 102.775C184.789 103.735 184.723 104.692 184.635 105.649C184.547 106.606 184.437 107.56 184.305 108.511C184.173 109.46 184.019 110.408 183.846 111.35C183.669 112.293 183.471 113.229 183.254 114.162C183.037 115.093 182.797 116.021 182.536 116.939C182.275 117.861 181.994 118.771 181.689 119.678C181.386 120.582 181.064 121.477 180.72 122.367C180.376 123.253 180.013 124.134 179.628 125.002C179.243 125.871 178.841 126.728 178.418 127.576C177.994 128.424 177.551 129.261 177.089 130.085C176.627 130.907 176.145 131.72 175.647 132.518C175.146 133.319 174.629 134.105 174.096 134.876C173.559 135.648 173.006 136.405 172.437 137.147C171.867 137.892 171.281 138.619 170.676 139.329C170.073 140.042 169.454 140.74 168.819 141.417C168.183 142.097 167.534 142.76 166.868 143.405C166.203 144.05 165.52 144.68 164.827 145.289C164.131 145.899 163.424 146.488 162.703 147.062C161.98 147.633 161.245 148.187 160.5 148.72C159.751 149.256 158.992 149.768 158.222 150.263C157.451 150.758 156.67 151.232 155.878 151.683C155.085 152.136 154.282 152.569 153.47 152.981C152.659 153.391 151.836 153.779 151.008 154.147C150.177 154.516 149.338 154.86 148.494 155.184C147.646 155.508 146.793 155.811 145.935 156.088C145.074 156.368 144.207 156.624 143.338 156.857C142.466 157.092 141.588 157.301 140.708 157.49C139.825 157.678 138.942 157.84 138.053 157.982C137.165 158.123 136.273 158.241 135.379 158.335C134.485 158.429 133.588 158.5 132.691 158.547C131.792 158.594 130.895 158.618 129.995 158.618C129.098 158.618 128.199 158.594 127.302 158.547C126.405 158.5 125.508 158.429 124.614 158.335C123.72 158.241 122.828 158.123 121.94 157.982C121.051 157.84 120.165 157.678 119.285 157.49C118.405 157.301 117.527 157.092 116.655 156.857C115.786 156.624 114.919 156.368 114.058 156.088C113.2 155.811 112.347 155.508 111.499 155.184C110.655 154.86 109.816 154.516 108.985 154.147C108.157 153.779 107.334 153.391 106.523 152.981C105.711 152.569 104.908 152.136 104.115 151.683C103.323 151.232 102.542 150.758 101.771 150.263C101.001 149.768 100.242 149.256 99.4934 148.72C98.7479 148.187 98.0133 147.633 97.2898 147.062C96.569 146.488 95.862 145.899 95.1659 145.289C94.4726 144.68 93.7904 144.05 93.1246 143.405C92.4588 142.76 91.8096 142.097 91.174 141.417C90.5385 140.74 89.9195 140.042 89.317 139.329C88.7118 138.619 88.1258 137.892 87.5563 137.147C86.9868 136.405 86.4339 135.648 85.8974 134.876C85.3637 134.105 84.8465 133.319 84.3458 132.518C83.8478 131.72 83.3664 130.907 82.9042 130.085C82.442 129.261 81.9991 128.424 81.5754 127.576C81.1517 126.728 80.7473 125.871 80.3649 125.002C79.9797 124.134 79.6166 123.253 79.2727 122.367C78.9288 121.477 78.6042 120.582 78.3016 119.678C77.9989 118.771 77.7183 117.861 77.457 116.939C77.1956 116.021 76.9563 115.093 76.7389 114.162C76.5216 113.229 76.3235 112.293 76.1474 111.35C75.9741 110.408 75.82 109.46 75.688 108.511C75.5559 107.56 75.4459 106.606 75.3579 105.649C75.2698 104.692 75.2038 103.735 75.1598 102.775C75.1158 101.815 75.0938 100.855 75.0938 99.8918C75.0938 98.9318 75.1158 97.9718 75.1598 97.0118C75.2038 96.0518 75.2698 95.0947 75.3579 94.1376C75.4459 93.1806 75.5559 92.2264 75.688 91.2753C75.82 90.327 75.9741 89.3788 76.1474 88.4364C76.3235 87.4941 76.5216 86.5576 76.7389 85.6241C76.9563 84.6906 77.1956 83.7659 77.457 82.8471C77.7183 81.9254 77.9989 81.0155 78.3016 80.1085C78.6042 79.2044 78.9288 78.3092 79.2727 77.4198C79.6166 76.5334 79.9797 75.6529 80.3649 74.7842C80.7473 73.9155 81.1517 73.0585 81.5754 72.2104C81.9991 71.3623 82.442 70.526 82.9042 69.7014C83.3664 68.8769 83.8478 68.067 84.3458 67.266C84.8465 66.468 85.3637 65.6817 85.8974 64.9102C86.4339 64.1386 86.9868 63.3818 87.5563 62.6397C88.1258 61.8947 88.7118 61.1673 89.317 60.4546C89.9195 59.7449 90.5385 59.047 91.174 58.3697C91.8096 57.6894 92.4588 57.0269 93.1246 56.3819C93.7904 55.737 94.4726 55.1068 95.1659 54.4973C95.862 53.8877 96.569 53.2987 97.2898 52.7245C98.0133 52.1532 98.7479 51.5995 99.4934 51.0665C100.242 50.5306 101.001 50.0182 101.771 49.5234C102.542 49.0287 103.323 48.5546 104.115 48.104C104.908 47.6505 105.711 47.2176 106.523 46.8054C107.334 46.396 108.157 46.0073 108.985 45.6392C109.816 45.2711 110.655 44.9236 111.499 44.6026C112.347 44.2787 113.2 43.9754 114.058 43.6986C114.919 43.4188 115.786 43.1626 116.655 42.927C117.527 42.6944 118.405 42.4853 119.285 42.2968C120.165 42.1083 121.051 41.9464 121.94 41.805C122.828 41.6637 123.72 41.5459 124.614 41.4516C125.508 41.3574 126.405 41.2867 127.302 41.2396C128.199 41.1925 129.098 41.1689 129.995 41.1689C130.895 41.1689 131.792 41.1925 132.691 41.2396C133.588 41.2867 134.485 41.3574 135.379 41.4516C136.273 41.5459 137.165 41.6637 138.053 41.805C138.942 41.9464 139.825 42.1083 140.708 42.2968C141.588 42.4853 142.466 42.6944 143.338 42.927C144.207 43.1626 145.074 43.4188 145.935 43.6986C146.793 43.9754 147.646 44.2787 148.494 44.6026C149.338 44.9236 150.177 45.2711 151.008 45.6392C151.836 46.0073 152.659 46.396 153.47 46.8054C154.282 47.2176 155.085 47.6505 155.878 48.104C156.67 48.5546 157.451 49.0287 158.222 49.5234C158.992 50.0182 159.751 50.5306 160.5 51.0665C161.245 51.5995 161.98 52.1532 162.703 52.7245C163.424 53.2987 164.131 53.8877 164.827 54.4973C165.52 55.1068 166.203 55.737 166.868 56.3819C167.534 57.0269 168.183 57.6894 168.819 58.3697C169.454 59.047 170.073 59.7449 170.676 60.4546C171.281 61.1673 171.867 61.8947 172.437 62.6397C173.006 63.3818 173.559 64.1386 174.096 64.9102C174.629 65.6817 175.146 66.468 175.647 67.266C176.145 68.067 176.627 68.8769 177.089 69.7014C177.551 70.526 177.994 71.3623 178.418 72.2104C178.841 73.0585 179.243 73.9155 179.628 74.7842C180.013 75.6529 180.376 76.5334 180.72 77.4198C181.064 78.3092 181.386 79.2044 181.689 80.1085C181.994 81.0155 182.275 81.9254 182.536 82.8471C182.797 83.7659 183.037 84.6906 183.254 85.6241C183.471 86.5576 183.669 87.4941 183.846 88.4364C184.019 89.3788 184.173 90.327 184.305 91.2753C184.437 92.2264 184.547 93.1806 184.635 94.1376C184.723 95.0947 184.789 96.0518 184.833 97.0118C184.877 97.9718 184.899 98.9318 184.899 99.8918Z" fill="#D2D2D2"/>
<path d="M140.986 35.2968C140.986 32.0545 138.526 29.4248 135.494 29.4248H124.515C121.483 29.4248 119.023 32.0545 119.023 35.2968C119.023 38.5361 121.483 41.1688 124.515 41.1688H135.494C138.526 41.1688 140.986 38.5361 140.986 35.2968Z" fill="#D2D2D2"/>
<path d="M58.6272 70.5312H47.6447C44.6158 70.5312 42.1562 73.161 42.1562 76.4032C42.1562 79.6455 44.6158 82.2752 47.6447 82.2752H58.6272C61.6562 82.2752 64.1157 79.6455 64.1157 76.4032C64.1157 73.161 61.6562 70.5312 58.6272 70.5312Z" fill="#D2D2D2"/>
<path d="M58.6272 94.0195H47.6447C44.6158 94.0195 42.1562 96.6522 42.1562 99.8915C42.1562 103.134 44.6158 105.766 47.6447 105.766H58.6272C61.6562 105.766 64.1157 103.134 64.1157 99.8915C64.1157 96.6522 61.6562 94.0195 58.6272 94.0195Z" fill="#D2D2D2"/>
<path d="M58.6272 117.511H47.6447C44.6158 117.511 42.1562 120.14 42.1562 123.383C42.1562 126.625 44.6158 129.255 47.6447 129.255H58.6272C61.6562 129.255 64.1157 126.625 64.1157 123.383C64.1157 120.14 61.6562 117.511 58.6272 117.511Z" fill="#D2D2D2"/>
<path d="M201.374 82.2752H212.354C215.386 82.2752 217.845 79.6455 217.845 76.4032C217.845 73.161 215.386 70.5312 212.354 70.5312H201.374C198.342 70.5312 195.883 73.161 195.883 76.4032C195.883 79.6455 198.342 82.2752 201.374 82.2752Z" fill="#D2D2D2"/>
<path d="M212.354 94.0195H201.374C198.342 94.0195 195.883 96.6522 195.883 99.8915C195.883 103.134 198.342 105.766 201.374 105.766H212.354C215.386 105.766 217.845 103.134 217.845 99.8915C217.845 96.6522 215.386 94.0195 212.354 94.0195Z" fill="#D2D2D2"/>
<path d="M212.354 117.511H201.374C198.342 117.511 195.883 120.14 195.883 123.383C195.883 126.625 198.342 129.255 201.374 129.255H212.354C215.386 129.255 217.845 126.625 217.845 123.383C217.845 120.14 215.386 117.511 212.354 117.511Z" fill="#D2D2D2"/>
<path d="M184.899 94.0198C184.899 94.9827 184.877 95.9427 184.833 96.9028C184.789 97.8628 184.723 98.8198 184.635 99.7769C184.547 100.734 184.437 101.688 184.305 102.636C184.173 103.588 184.019 104.536 183.846 105.478C183.669 106.42 183.471 107.357 183.254 108.29C183.037 109.221 182.797 110.149 182.536 111.067C182.275 111.986 181.994 112.899 181.689 113.803C181.386 114.71 181.064 115.605 180.72 116.495C180.376 117.381 180.013 118.259 179.628 119.127C179.243 119.996 178.841 120.856 178.418 121.704C177.994 122.552 177.551 123.386 177.089 124.21C176.627 125.035 176.145 125.847 175.647 126.646C175.146 127.447 174.629 128.23 174.096 129.004C173.559 129.776 173.006 130.533 172.437 131.275C171.867 132.017 171.281 132.744 170.676 133.457C170.073 134.17 169.454 134.865 168.819 135.545C168.183 136.225 167.534 136.888 166.868 137.533C166.203 138.178 165.52 138.805 164.827 139.414C164.131 140.024 163.424 140.616 162.703 141.19C161.98 141.761 161.245 142.315 160.5 142.848C159.751 143.381 158.992 143.896 158.222 144.391C157.451 144.886 156.67 145.357 155.878 145.811C155.085 146.264 154.282 146.697 153.47 147.106C152.659 147.519 151.836 147.907 151.008 148.275C150.177 148.643 149.338 148.988 148.494 149.312C147.646 149.636 146.793 149.939 145.935 150.216C145.074 150.496 144.207 150.752 143.338 150.985C142.466 151.22 141.588 151.429 140.708 151.618C139.825 151.803 138.942 151.968 138.053 152.11C137.165 152.251 136.273 152.369 135.379 152.463C134.485 152.557 133.588 152.628 132.691 152.675C131.792 152.722 130.895 152.746 129.995 152.746C129.098 152.746 128.199 152.722 127.302 152.675C126.405 152.628 125.508 152.557 124.614 152.463C123.72 152.369 122.828 152.251 121.94 152.11C121.051 151.968 120.165 151.803 119.285 151.618C118.405 151.429 117.527 151.22 116.655 150.985C115.786 150.752 114.919 150.496 114.058 150.216C113.2 149.939 112.347 149.636 111.499 149.312C110.655 148.988 109.816 148.643 108.985 148.275C108.157 147.907 107.334 147.519 106.523 147.106C105.711 146.697 104.908 146.264 104.115 145.811C103.323 145.357 102.542 144.886 101.771 144.391C101.001 143.896 100.242 143.381 99.4934 142.848C98.7479 142.315 98.0133 141.761 97.2898 141.19C96.569 140.616 95.862 140.024 95.1659 139.414C94.4726 138.805 93.7904 138.178 93.1246 137.533C92.4588 136.888 91.8096 136.225 91.174 135.545C90.5385 134.865 89.9195 134.17 89.317 133.457C88.7118 132.744 88.1258 132.017 87.5563 131.275C86.9868 130.533 86.4339 129.776 85.8974 129.004C85.3637 128.23 84.8465 127.447 84.3458 126.646C83.8478 125.847 83.3664 125.035 82.9042 124.21C82.442 123.386 81.9991 122.552 81.5754 121.704C81.1517 120.856 80.7473 119.996 80.3649 119.127C79.9797 118.259 79.6166 117.381 79.2727 116.495C78.9288 115.605 78.6042 114.71 78.3016 113.803C77.9989 112.899 77.7183 111.986 77.457 111.067C77.1956 110.149 76.9563 109.221 76.7389 108.29C76.5216 107.357 76.3235 106.42 76.1474 105.478C75.9741 104.536 75.82 103.588 75.688 102.636C75.5559 101.688 75.4459 100.734 75.3579 99.7769C75.2698 98.8198 75.2038 97.8628 75.1598 96.9028C75.1158 95.9427 75.0938 94.9827 75.0938 94.0198C75.0938 93.0597 75.1158 92.0997 75.1598 91.1397C75.2038 90.1797 75.2698 89.2197 75.3579 88.2656C75.4459 87.3085 75.5559 86.3544 75.688 85.4032C75.82 84.452 75.9741 83.5067 76.1474 82.5644C76.3235 81.622 76.5216 80.6826 76.7389 79.7521C76.9563 78.8185 77.1956 77.8939 77.457 76.9751C77.7183 76.0533 77.9989 75.1404 78.3016 74.2364C78.6042 73.3323 78.9288 72.4341 79.2727 71.5478C79.6166 70.6584 79.9797 69.7809 80.3649 68.9121C80.7473 68.0434 81.1517 67.1865 81.5754 66.3383C81.9991 65.4902 82.442 64.6539 82.9042 63.8293C83.3664 63.0048 83.8478 62.195 84.3458 61.394C84.8465 60.5959 85.3637 59.8097 85.8974 59.0381C86.4339 58.2666 86.9868 57.5097 87.5563 56.7647C88.1258 56.0226 88.7118 55.2952 89.317 54.5826C89.9195 53.8699 90.5385 53.1749 91.174 52.4947C91.8096 51.8174 92.4588 51.1548 93.1246 50.5099C93.7904 49.862 94.4726 49.2348 95.1659 48.6252C95.862 48.0156 96.569 47.4237 97.2898 46.8524C98.0133 46.2811 98.7479 45.7275 99.4934 45.1915C100.242 44.6585 101.001 44.1461 101.771 43.6514C102.542 43.1566 103.323 42.6825 104.115 42.229C104.908 41.7784 105.711 41.3456 106.523 40.9333C107.334 40.524 108.157 40.1352 108.985 39.7671C109.816 39.399 110.655 39.0515 111.499 38.7276C112.347 38.4037 113.2 38.1033 114.058 37.8235C114.919 37.5467 115.786 37.2905 116.655 37.0549C117.527 36.8223 118.405 36.6132 119.285 36.4247C120.165 36.2363 121.051 36.0714 121.94 35.933C122.828 35.7916 123.72 35.6738 124.614 35.5796C125.508 35.4853 126.405 35.4147 127.302 35.3676C128.199 35.3204 129.098 35.2969 129.995 35.2969C130.895 35.2969 131.792 35.3204 132.691 35.3676C133.588 35.4147 134.485 35.4853 135.379 35.5796C136.273 35.6738 137.165 35.7916 138.053 35.933C138.942 36.0714 139.825 36.2363 140.708 36.4247C141.588 36.6132 142.466 36.8223 143.338 37.0549C144.207 37.2905 145.074 37.5467 145.935 37.8235C146.793 38.1033 147.646 38.4037 148.494 38.7276C149.338 39.0515 150.177 39.399 151.008 39.7671C151.836 40.1352 152.659 40.524 153.47 40.9333C154.282 41.3456 155.085 41.7784 155.878 42.229C156.67 42.6825 157.451 43.1566 158.222 43.6514C158.992 44.1461 159.751 44.6585 160.5 45.1915C161.245 45.7275 161.98 46.2811 162.703 46.8524C163.424 47.4237 164.131 48.0156 164.827 48.6252C165.52 49.2348 166.203 49.862 166.868 50.5099C167.534 51.1548 168.183 51.8174 168.819 52.4947C169.454 53.1749 170.073 53.8699 170.676 54.5826C171.281 55.2952 171.867 56.0226 172.437 56.7647C173.006 57.5097 173.559 58.2666 174.096 59.0381C174.629 59.8097 175.146 60.5959 175.647 61.394C176.145 62.195 176.627 63.0048 177.089 63.8293C177.551 64.6539 177.994 65.4902 178.418 66.3383C178.841 67.1865 179.243 68.0434 179.628 68.9121C180.013 69.7809 180.376 70.6584 180.72 71.5478C181.064 72.4341 181.386 73.3323 181.689 74.2364C181.994 75.1404 182.275 76.0533 182.536 76.9751C182.797 77.8939 183.037 78.8185 183.254 79.7521C183.471 80.6826 183.669 81.622 183.846 82.5644C184.019 83.5067 184.173 84.452 184.305 85.4032C184.437 86.3544 184.547 87.3085 184.635 88.2656C184.723 89.2197 184.789 90.1797 184.833 91.1397C184.877 92.0997 184.899 93.0597 184.899 94.0198Z" fill="#00325A"/>
<mask id="mask1_746_9927" style="mask-type:luminance" maskUnits="userSpaceOnUse" x="189" y="0" width="41" height="42">
<path d="M189.859 0H229.299V41.5486H189.859V0Z" fill="white"/>
</mask>
<g mask="url(#mask1_746_9927)">
<path d="M228.837 35.2974V41.1694H195.895C192.877 41.1694 190.406 38.5249 190.406 35.2974V0.0625H195.895L228.837 35.2974Z" fill="#D2D2D2"/>
</g>
<mask id="mask2_746_9927" style="mask-type:luminance" maskUnits="userSpaceOnUse" x="195" y="0" width="35" height="36">
<path d="M195.5 0H229.306V35.5176H195.5V0Z" fill="white"/>
</mask>
<g mask="url(#mask2_746_9927)">
<path d="M228.833 35.2974H201.382C198.35 35.2974 195.891 32.6647 195.891 29.4254V0.0625L228.833 35.2974Z" fill="#F0F0F0"/>
</g>
<mask id="mask3_746_9927" style="mask-type:luminance" maskUnits="userSpaceOnUse" x="30" y="251" width="200" height="32">
<path d="M30.6875 251.881H229.296V282.001H30.6875V251.881Z" fill="white"/>
</mask>
<g mask="url(#mask3_746_9927)">
<path d="M228.823 252.578V276.066C228.823 279.308 226.364 281.941 223.335 281.941H36.6631C33.6341 281.941 31.1719 279.308 31.1719 276.066V252.578H228.823Z" fill="#F0F0F0"/>
</g>
<path d="M31.1719 252.578H228.823V258.45H31.1719V252.578Z" fill="#D2D2D2"/>
<path d="M129.999 237.895C122.428 237.895 116.273 231.313 116.273 223.215V199.724C116.273 191.626 122.428 185.044 129.999 185.044C137.57 185.044 143.727 191.626 143.727 199.724V223.215C143.727 231.313 137.57 237.895 129.999 237.895ZM129.999 190.916C125.459 190.916 121.765 194.868 121.765 199.724V223.215C121.765 228.071 125.459 232.023 129.999 232.023C134.541 232.023 138.236 228.071 138.236 223.215V199.724C138.236 194.868 134.541 190.916 129.999 190.916Z" fill="#F0F0F0"/>
<path d="M168.436 237.895C160.865 237.895 154.711 231.313 154.711 223.215V199.724C154.711 191.626 160.865 185.044 168.436 185.044C176.007 185.044 182.162 191.626 182.162 199.724C182.162 201.347 180.932 202.66 179.416 202.66C177.903 202.66 176.673 201.347 176.673 199.724C176.673 194.868 172.978 190.916 168.436 190.916C163.897 190.916 160.202 194.868 160.202 199.724V223.215C160.202 228.071 163.897 232.023 168.436 232.023C172.978 232.023 176.673 228.071 176.673 223.215V220.279H168.436C166.92 220.279 165.691 218.963 165.691 217.343C165.691 215.72 166.92 214.407 168.436 214.407H179.416C180.932 214.407 182.162 215.72 182.162 217.343V223.215C182.162 231.313 176.007 237.895 168.436 237.895Z" fill="#F0F0F0"/>
<path d="M173.924 94.0189C173.924 95.5591 173.853 97.0933 173.712 98.6247C173.572 100.156 173.36 101.675 173.08 103.186C172.799 104.694 172.45 106.184 172.031 107.656C171.616 109.129 171.132 110.578 170.579 111.997C170.029 113.419 169.415 114.809 168.738 116.167C168.059 117.522 167.321 118.841 166.521 120.119C165.723 121.4 164.867 122.634 163.954 123.824C163.041 125.013 162.075 126.153 161.06 127.24C160.042 128.326 158.977 129.36 157.866 130.335C156.754 131.312 155.599 132.228 154.402 133.082C153.208 133.936 151.976 134.728 150.705 135.453C149.436 136.177 148.138 136.834 146.809 137.423C145.48 138.012 144.127 138.53 142.751 138.978C141.376 139.422 139.981 139.796 138.569 140.097C137.158 140.397 135.739 140.624 134.305 140.774C132.875 140.924 131.439 141.001 130 141.001C128.564 141.001 127.128 140.924 125.697 140.774C124.264 140.624 122.844 140.397 121.433 140.097C120.021 139.796 118.627 139.422 117.251 138.978C115.876 138.53 114.522 138.012 113.193 137.423C111.864 136.834 110.566 136.177 109.295 135.453C108.027 134.728 106.794 133.936 105.6 133.082C104.403 132.228 103.248 131.312 102.136 130.335C101.025 129.36 99.9603 128.326 98.9424 127.24C97.9272 126.153 96.9616 125.013 96.0482 123.824C95.1348 122.634 94.2792 121.4 93.4814 120.119C92.6808 118.841 91.9435 117.522 91.264 116.167C90.5872 114.809 89.9737 113.419 89.4207 111.997C88.8705 110.578 88.3863 109.129 87.9709 107.656C87.5527 106.184 87.2033 104.694 86.9227 103.186C86.6421 101.675 86.4303 100.156 86.29 98.6247C86.1497 97.0933 86.0781 95.5591 86.0781 94.0189C86.0781 92.4817 86.1497 90.9475 86.29 89.4162C86.4303 87.8849 86.6421 86.3624 86.9227 84.8546C87.2033 83.3469 87.5527 81.8538 87.9709 80.3814C88.3863 78.909 88.8705 77.4631 89.4207 76.0407C89.9737 74.6213 90.5872 73.2314 91.264 71.8738C91.9435 70.5162 92.6808 69.1999 93.4814 67.9189C94.2792 66.6408 95.1348 65.407 96.0482 64.2172C96.9616 63.0275 97.9272 61.8879 98.9424 60.8012C99.9603 59.7116 101.025 58.681 102.136 57.7033C103.248 56.7285 104.403 55.8127 105.6 54.9587C106.794 54.1017 108.027 53.3125 109.295 52.5881C110.566 51.8607 111.864 51.204 113.193 50.6151C114.522 50.0261 115.876 49.5108 117.251 49.0631C118.627 48.6155 120.021 48.2415 121.433 47.9441C122.844 47.6437 124.264 47.417 125.697 47.2668C127.128 47.1166 128.564 47.04 130 47.04C131.439 47.04 132.875 47.1166 134.305 47.2668C135.739 47.417 137.158 47.6437 138.569 47.9441C139.981 48.2415 141.376 48.6155 142.751 49.0631C144.127 49.5108 145.48 50.0261 146.809 50.6151C148.138 51.204 149.436 51.8607 150.705 52.5881C151.976 53.3125 153.208 54.1017 154.402 54.9587C155.599 55.8127 156.754 56.7285 157.866 57.7033C158.977 58.681 160.042 59.7116 161.06 60.8012C162.075 61.8879 163.041 63.0275 163.954 64.2172C164.867 65.407 165.723 66.6408 166.521 67.9189C167.321 69.1999 168.059 70.5162 168.738 71.8738C169.415 73.2314 170.029 74.6213 170.579 76.0407C171.132 77.4631 171.616 78.909 172.031 80.3814C172.45 81.8538 172.799 83.3469 173.08 84.8546C173.36 86.3624 173.572 87.8849 173.712 89.4162C173.853 90.9475 173.924 92.4817 173.924 94.0189Z" fill="#FAB400"/>
<path d="M153.907 74.325C152.834 73.1794 151.096 73.1794 150.026 74.325L131.34 94.3086C129.926 93.914 130.083 93.914 128.663 94.3086L120.96 86.069C119.887 84.9234 118.148 84.9234 117.078 86.069C116.005 87.2145 116.005 89.0756 117.078 90.2212L124.781 98.4608C124.671 98.929 124.512 99.3884 124.512 99.892C124.512 103.134 126.971 105.767 130 105.767C133.032 105.767 135.491 103.134 135.491 99.892C135.491 99.3884 135.332 98.929 135.222 98.4608L153.907 78.4772C154.978 77.3316 154.978 75.4764 153.907 74.325Z" fill="#DC9600"/>
<path d="M129.998 98.1721L117.076 84.3491C116.006 83.2035 116.006 81.3424 117.076 80.1969C118.146 79.0513 119.885 79.0513 120.958 80.1969L129.998 89.8677L150.018 68.4588C151.088 67.3132 152.827 67.3132 153.9 68.4588C154.97 69.6043 154.97 71.4654 153.9 72.611L129.998 98.1721Z" fill="#00325A"/>
<path d="M135.488 94.0195C135.488 94.4052 135.452 94.7881 135.383 95.165C135.311 95.5449 135.207 95.91 135.069 96.2664C134.932 96.6227 134.764 96.9613 134.563 97.2823C134.362 97.6033 134.134 97.9007 133.881 98.1717C133.625 98.4455 133.347 98.69 133.047 98.902C132.747 99.117 132.431 99.2995 132.098 99.4468C131.765 99.594 131.421 99.7059 131.069 99.7795C130.714 99.8561 130.357 99.8914 129.996 99.8914C129.636 99.8914 129.281 99.8561 128.926 99.7795C128.574 99.7059 128.23 99.594 127.897 99.4468C127.564 99.2995 127.248 99.117 126.948 98.902C126.648 98.69 126.37 98.4455 126.114 98.1717C125.861 97.9007 125.633 97.6033 125.432 97.2823C125.231 96.9613 125.064 96.6227 124.926 96.2664C124.788 95.91 124.684 95.5449 124.612 95.165C124.544 94.7881 124.508 94.4052 124.508 94.0195C124.508 93.6337 124.544 93.2538 124.612 92.8739C124.684 92.497 124.788 92.1289 124.926 91.7725C125.064 91.4162 125.231 91.0776 125.432 90.7566C125.633 90.4385 125.861 90.1411 126.114 89.8672C126.37 89.5963 126.648 89.3519 126.948 89.1369C127.248 88.922 127.564 88.7423 127.897 88.5951C128.23 88.4478 128.574 88.3359 128.926 88.2594C129.281 88.1857 129.636 88.1475 129.996 88.1475C130.357 88.1475 130.714 88.1857 131.069 88.2594C131.421 88.3359 131.765 88.4478 132.098 88.5951C132.431 88.7423 132.747 88.922 133.047 89.1369C133.347 89.3519 133.625 89.5963 133.881 89.8672C134.134 90.1411 134.362 90.4385 134.563 90.7566C134.764 91.0776 134.932 91.4162 135.069 91.7725C135.207 92.1289 135.311 92.497 135.383 92.8739C135.452 93.2538 135.488 93.6337 135.488 94.0195Z" fill="#C80A50"/>
<path d="M135.494 35.2967H124.515C121.483 35.2967 119.023 32.6641 119.023 29.4247C119.023 26.1825 121.483 23.5498 124.515 23.5498H135.494C138.526 23.5498 140.986 26.1825 140.986 29.4247C140.986 32.6641 138.526 35.2967 135.494 35.2967Z" fill="#C80A50"/>
<path d="M132.754 55.8481C132.754 56.2368 132.685 56.6138 132.545 56.973C132.407 57.3323 132.209 57.6503 131.951 57.9242C131.692 58.201 131.398 58.4131 131.059 58.5603C130.724 58.7105 130.374 58.7841 130.008 58.7841C129.645 58.7841 129.296 58.7105 128.96 58.5603C128.622 58.4131 128.325 58.201 128.069 57.9242C127.81 57.6503 127.612 57.3323 127.475 56.973C127.334 56.6138 127.266 56.2368 127.266 55.8481C127.266 55.4594 127.334 55.0854 127.475 54.7261C127.612 54.3669 127.81 54.0488 128.069 53.772C128.325 53.4981 128.622 53.2861 128.96 53.1359C129.296 52.9857 129.645 52.9121 130.008 52.9121C130.374 52.9121 130.724 52.9857 131.059 53.1359C131.398 53.2861 131.692 53.4981 131.951 53.772C132.209 54.0488 132.407 54.3669 132.545 54.7261C132.685 55.0854 132.754 55.4594 132.754 55.8481Z" fill="#00325A"/>
<path d="M132.754 132.19C132.754 132.582 132.685 132.956 132.545 133.315C132.407 133.674 132.209 133.992 131.951 134.266C131.692 134.543 131.398 134.755 131.059 134.905C130.724 135.052 130.374 135.126 130.008 135.126C129.645 135.126 129.296 135.052 128.96 134.905C128.622 134.755 128.325 134.543 128.069 134.266C127.81 133.992 127.612 133.674 127.475 133.315C127.334 132.956 127.266 132.582 127.266 132.19C127.266 131.801 127.334 131.427 127.475 131.068C127.612 130.709 127.81 130.391 128.069 130.114C128.325 129.84 128.622 129.628 128.96 129.478C129.296 129.33 129.645 129.254 130.008 129.254C130.374 129.254 130.724 129.33 131.059 129.478C131.398 129.628 131.692 129.84 131.951 130.114C132.209 130.391 132.407 130.709 132.545 131.068C132.685 131.427 132.754 131.801 132.754 132.19Z" fill="#00325A"/>
<path d="M168.429 94.02C168.429 94.4116 168.36 94.7856 168.22 95.1449C168.082 95.5042 167.881 95.8222 167.625 96.0961C167.367 96.3729 167.07 96.5849 166.734 96.7322C166.398 96.8824 166.049 96.956 165.683 96.956C165.32 96.956 164.971 96.8824 164.632 96.7322C164.297 96.5849 163.999 96.3729 163.744 96.0961C163.485 95.8222 163.287 95.5042 163.147 95.1449C163.009 94.7856 162.938 94.4116 162.938 94.02C162.938 93.6313 163.009 93.2573 163.147 92.898C163.287 92.5387 163.485 92.2207 163.744 91.9439C163.999 91.67 164.297 91.458 164.632 91.3078C164.971 91.1606 165.32 91.084 165.683 91.084C166.049 91.084 166.398 91.1606 166.734 91.3078C167.07 91.458 167.367 91.67 167.625 91.9439C167.881 92.2207 168.082 92.5387 168.22 92.898C168.36 93.2573 168.429 93.6313 168.429 94.02Z" fill="#00325A"/>
<path d="M97.0588 94.02C97.0588 94.4116 96.99 94.7856 96.8497 95.1449C96.7122 95.5042 96.5141 95.8222 96.2555 96.0961C95.9996 96.3729 95.7025 96.5849 95.3641 96.7322C95.0285 96.8824 94.6791 96.956 94.3159 96.956C93.95 96.956 93.6006 96.8824 93.265 96.7322C92.9294 96.5849 92.6322 96.3729 92.3736 96.0961C92.115 95.8222 91.917 95.5042 91.7794 95.1449C91.6391 94.7856 91.5703 94.4116 91.5703 94.02C91.5703 93.6313 91.6391 93.2573 91.7794 92.898C91.917 92.5387 92.115 92.2207 92.3736 91.9439C92.6322 91.67 92.9294 91.458 93.265 91.3078C93.6006 91.1606 93.95 91.084 94.3159 91.084C94.6791 91.084 95.0285 91.1606 95.3641 91.3078C95.7025 91.458 95.9996 91.67 96.2555 91.9439C96.5141 92.2207 96.7122 92.5387 96.8497 92.898C96.99 93.2573 97.0588 93.6313 97.0588 94.02Z" fill="#00325A"/>
<path d="M58.6272 76.4032H47.6447C44.6158 76.4032 42.1562 73.7705 42.1562 70.5312C42.1562 67.2889 44.6158 64.6562 47.6447 64.6562H58.6272C61.6562 64.6562 64.1157 67.2889 64.1157 70.5312C64.1157 73.7705 61.6562 76.4032 58.6272 76.4032Z" fill="#00A0C8"/>
<path d="M58.6272 99.8914H47.6447C44.6158 99.8914 42.1562 97.2617 42.1562 94.0195C42.1562 90.7801 44.6158 88.1475 47.6447 88.1475H58.6272C61.6562 88.1475 64.1157 90.7801 64.1157 94.0195C64.1157 97.2617 61.6562 99.8914 58.6272 99.8914Z" fill="#00A0C8"/>
<path d="M58.6272 123.383H47.6447C44.6158 123.383 42.1562 120.753 42.1562 117.511C42.1562 114.268 44.6158 111.639 47.6447 111.639H58.6272C61.6562 111.639 64.1157 114.268 64.1157 117.511C64.1157 120.753 61.6562 123.383 58.6272 123.383Z" fill="#00A0C8"/>
<path d="M212.354 76.4032H201.374C198.342 76.4032 195.883 73.7705 195.883 70.5312C195.883 67.2889 198.342 64.6562 201.374 64.6562H212.354C215.386 64.6562 217.845 67.2889 217.845 70.5312C217.845 73.7705 215.386 76.4032 212.354 76.4032Z" fill="#00A0C8"/>
<path d="M212.354 99.8914H201.374C198.342 99.8914 195.883 97.2617 195.883 94.0195C195.883 90.7801 198.342 88.1475 201.374 88.1475H212.354C215.386 88.1475 217.845 90.7801 217.845 94.0195C217.845 97.2617 215.386 99.8914 212.354 99.8914Z" fill="#00A0C8"/>
<path d="M212.354 123.383H201.374C198.342 123.383 195.883 120.753 195.883 117.511C195.883 114.268 198.342 111.639 201.374 111.639H212.354C215.386 111.639 217.845 114.268 217.845 117.511C217.845 120.753 215.386 123.383 212.354 123.383Z" fill="#00A0C8"/>
</svg>
