<svg width="352" height="320" viewBox="0 0 352 320" fill="none" xmlns="http://www.w3.org/2000/svg">
<path d="M242.529 93.9893V96.1976H232.836V102.479C233.669 101.349 235.435 100.468 237.393 100.468C242.247 100.468 243.794 103.974 243.794 107.057C243.794 110.916 241.643 114.01 236.971 114.01C232.992 114.01 230.596 111.776 230.102 108.552H232.56C233.029 110.646 234.654 111.885 237.008 111.885C240.044 111.885 241.393 109.838 241.393 107.114C241.393 104.276 239.93 102.619 237.029 102.619C235.018 102.619 233.555 103.672 232.888 105.239H230.513V93.9893H242.529Z" fill="#163687"/>
<path d="M271.943 35.9167H228.375C226.745 35.9167 225.422 34.599 225.422 32.974V8.34896C225.422 6.72396 226.745 5.40625 228.375 5.40625H271.943C273.573 5.40625 274.896 6.72396 274.896 8.34896V32.974C274.901 34.599 273.578 35.9167 271.943 35.9167Z" fill="white"/>
<path d="M271.943 36.3275H228.375C226.516 36.3275 225 34.8171 225 32.9629V8.3431C225 6.48893 226.516 4.97852 228.375 4.97852H271.943C273.802 4.97852 275.312 6.48893 275.312 8.3431V32.9629C275.312 34.8171 273.802 36.3275 271.943 36.3275ZM228.375 5.80664C226.974 5.80664 225.833 6.94727 225.833 8.3431V32.9629C225.833 34.3587 226.974 35.4993 228.375 35.4993H271.943C273.339 35.4993 274.484 34.3587 274.484 32.9629V8.3431C274.484 6.94727 273.339 5.80664 271.943 5.80664H228.375Z" fill="#89B2F9"/>
<path d="M249.977 24.9323L228.258 8.09375L228.768 7.44792L249.977 23.8802L271.56 7.4375L272.06 8.09375L249.977 24.9323Z" fill="#89B2F9"/>
<path d="M232.156 30.776L245.24 20.6875L245.745 21.3438L232.667 31.4323L232.156 30.776Z" fill="#89B2F9"/>
<path d="M254.43 21.1559L254.94 20.5049L268.164 30.7601L267.659 31.4163L254.43 21.1559Z" fill="#89B2F9"/>
<mask id="mask0_746_9389" style="mask-type:luminance" maskUnits="userSpaceOnUse" x="265" y="0" width="17" height="15">
<path d="M265.484 0H281.484V14.7969H265.484V0Z" fill="white"/>
</mask>
<g mask="url(#mask0_746_9389)">
<path d="M280.169 7.30241C280.169 7.78158 280.122 8.25553 280.029 8.72949C279.935 9.19824 279.794 9.65658 279.612 10.0993C279.424 10.5472 279.201 10.9691 278.935 11.3649C278.664 11.766 278.362 12.1357 278.023 12.4743C277.68 12.8128 277.31 13.1201 276.909 13.3857C276.508 13.6514 276.086 13.8805 275.643 14.0628C275.195 14.2451 274.737 14.3857 274.268 14.4795C273.794 14.5732 273.32 14.6201 272.836 14.6201C272.357 14.6201 271.878 14.5732 271.409 14.4795C270.935 14.3857 270.477 14.2451 270.029 14.0628C269.586 13.8805 269.164 13.6514 268.763 13.3857C268.362 13.1201 267.992 12.8128 267.654 12.4743C267.31 12.1357 267.008 11.766 266.742 11.3649C266.471 10.9691 266.247 10.5472 266.065 10.0993C265.878 9.65658 265.742 9.19824 265.648 8.72949C265.555 8.25553 265.508 7.78158 265.508 7.30241C265.508 6.81803 265.555 6.34408 265.648 5.87533C265.742 5.40137 265.878 4.94303 266.065 4.50033C266.247 4.05762 266.471 3.63574 266.742 3.2347C267.008 2.83366 267.31 2.46387 267.654 2.12533C267.992 1.78678 268.362 1.4847 268.763 1.21387C269.164 0.948242 269.586 0.724283 270.029 0.536784C270.477 0.354492 270.935 0.213867 271.409 0.120117C271.878 0.0263665 272.357 -0.0205078 272.836 -0.0205078C273.32 -0.0205078 273.794 0.0263665 274.268 0.120117C274.737 0.213867 275.195 0.354492 275.643 0.536784C276.086 0.724283 276.508 0.948242 276.909 1.21387C277.31 1.4847 277.68 1.78678 278.023 2.12533C278.362 2.46387 278.664 2.83366 278.935 3.2347C279.201 3.63574 279.424 4.05762 279.612 4.50033C279.794 4.94303 279.935 5.40137 280.029 5.87533C280.122 6.34408 280.169 6.81803 280.169 7.30241Z" fill="#89B2F9"/>
</g>
<path d="M272.409 5.84863H271.68V4.67676H273.716V10.0413H272.409V5.84863Z" fill="white"/>
<path d="M344.263 62.4004H306.898C304.841 62.4004 303.164 64.0671 303.164 66.1191V88.515C303.164 90.567 304.841 92.2337 306.898 92.2337H311.419C311.602 95.2025 311.122 98.265 309.128 100.39C309.128 100.39 317.721 98.1243 321.883 92.2337H344.263C346.32 92.2337 347.987 90.567 347.987 88.515V66.1191C347.997 64.0566 346.326 62.4004 344.263 62.4004ZM317.388 81.0514C315.456 81.0514 313.878 79.4837 313.878 77.5462C313.878 75.6191 315.456 74.0514 317.388 74.0514C319.32 74.0514 320.888 75.6191 320.888 77.5462C320.888 79.4837 319.32 81.0514 317.388 81.0514ZM333.784 81.0514C331.852 81.0514 330.273 79.4837 330.273 77.5462C330.273 75.6191 331.852 74.0514 333.784 74.0514C335.716 74.0514 337.284 75.6191 337.284 77.5462C337.284 79.4837 335.716 81.0514 333.784 81.0514Z" stroke="#89B2F9" stroke-width="0.821198" stroke-miterlimit="10"/>
<path d="M320.94 120.484C320.94 120.979 320.846 121.458 320.654 121.922C320.466 122.38 320.19 122.786 319.841 123.14C319.487 123.489 319.081 123.76 318.617 123.953C318.159 124.146 317.674 124.239 317.18 124.239C316.68 124.239 316.201 124.146 315.737 123.953C315.273 123.76 314.867 123.489 314.518 123.14C314.164 122.786 313.893 122.38 313.701 121.922C313.508 121.458 313.414 120.979 313.414 120.484C313.414 119.984 313.508 119.505 313.701 119.041C313.893 118.583 314.164 118.177 314.518 117.823C314.867 117.474 315.273 117.203 315.737 117.01C316.201 116.817 316.68 116.724 317.18 116.724C317.674 116.724 318.159 116.817 318.617 117.01C319.081 117.203 319.487 117.474 319.841 117.823C320.19 118.177 320.466 118.583 320.654 119.041C320.846 119.505 320.94 119.984 320.94 120.484Z" fill="#EDA93B"/>
<path d="M338.357 147.646L335.164 143.818C334.185 142.641 333.565 141.214 333.378 139.703L332.435 132.094C331.503 124.594 324.659 119.266 317.143 120.193C309.633 121.12 304.299 127.958 305.227 135.453L306.174 143.068C306.362 144.578 306.107 146.115 305.451 147.49L303.289 151.99L338.357 147.646Z" fill="#EDA93B"/>
<path d="M338.358 147.646C338.389 147.906 338.306 148.182 338.113 148.464C337.921 148.75 337.619 149.037 337.207 149.333C336.801 149.63 336.285 149.927 335.676 150.224C335.061 150.521 334.358 150.813 333.567 151.099C332.775 151.38 331.91 151.656 330.968 151.922C330.03 152.188 329.035 152.432 327.983 152.667C326.931 152.896 325.843 153.109 324.718 153.297C323.593 153.49 322.457 153.656 321.306 153.797C320.155 153.943 319.009 154.057 317.874 154.146C316.738 154.234 315.629 154.297 314.551 154.328C313.478 154.359 312.452 154.359 311.473 154.333C310.499 154.307 309.593 154.25 308.754 154.167C307.916 154.083 307.166 153.974 306.499 153.833C305.832 153.698 305.259 153.537 304.791 153.349C304.317 153.162 303.957 152.953 303.697 152.724C303.442 152.495 303.296 152.25 303.264 151.99C303.233 151.729 303.311 151.453 303.504 151.172C303.697 150.885 303.999 150.594 304.41 150.302C304.822 150.005 305.332 149.708 305.947 149.412C306.561 149.115 307.264 148.823 308.056 148.537C308.848 148.25 309.712 147.979 310.65 147.714C311.593 147.448 312.587 147.203 313.639 146.969C314.692 146.74 315.78 146.526 316.9 146.333C318.025 146.146 319.166 145.979 320.317 145.833C321.468 145.693 322.613 145.578 323.749 145.49C324.884 145.401 325.994 145.339 327.067 145.307C328.145 145.276 329.171 145.276 330.145 145.302C331.124 145.328 332.03 145.38 332.869 145.469C333.707 145.552 334.457 145.662 335.124 145.802C335.791 145.938 336.358 146.099 336.832 146.287C337.301 146.474 337.666 146.682 337.921 146.912C338.181 147.141 338.322 147.385 338.358 147.646Z" fill="#EDA93B"/>
<path d="M336.874 147.828C337.072 149.427 330.046 151.62 321.176 152.719C312.306 153.818 304.952 153.406 304.754 151.797C304.592 150.453 309.488 148.703 316.301 147.526C317.618 147.297 319.014 147.088 320.452 146.906C322.025 146.713 323.546 146.573 324.988 146.463C331.707 146 336.717 146.505 336.874 147.828Z" fill="#DD4E6A"/>
<path d="M325 146.463V146.515C325 148.942 323.026 150.911 320.594 150.911C318.516 150.911 316.766 149.468 316.312 147.531C317.625 147.301 319.026 147.098 320.464 146.916C322.031 146.713 323.552 146.572 325 146.463Z" fill="#163687"/>
<path d="M336.474 129.828C336.474 130.224 336.438 130.62 336.359 131.005C336.281 131.396 336.167 131.776 336.016 132.141C335.859 132.505 335.672 132.854 335.453 133.188C335.234 133.516 334.979 133.823 334.698 134.104C334.417 134.385 334.115 134.635 333.781 134.854C333.453 135.073 333.104 135.26 332.734 135.411C332.37 135.568 331.99 135.682 331.599 135.755C331.208 135.833 330.812 135.875 330.417 135.875C330.021 135.875 329.625 135.833 329.234 135.755C328.844 135.682 328.464 135.568 328.099 135.411C327.729 135.26 327.38 135.073 327.052 134.854C326.719 134.635 326.417 134.385 326.135 134.104C325.854 133.823 325.599 133.516 325.38 133.188C325.156 132.854 324.974 132.505 324.818 132.141C324.667 131.776 324.552 131.396 324.474 131.005C324.396 130.62 324.359 130.224 324.359 129.828C324.359 129.432 324.396 129.036 324.474 128.646C324.552 128.26 324.667 127.88 324.818 127.51C324.974 127.146 325.156 126.797 325.38 126.469C325.599 126.135 325.854 125.833 326.135 125.552C326.417 125.271 326.719 125.021 327.052 124.797C327.38 124.578 327.729 124.391 328.099 124.24C328.464 124.089 328.844 123.974 329.234 123.896C329.625 123.818 330.021 123.781 330.417 123.781C330.812 123.781 331.208 123.818 331.599 123.896C331.99 123.974 332.37 124.089 332.734 124.24C333.104 124.391 333.453 124.578 333.781 124.797C334.115 125.021 334.417 125.271 334.698 125.552C334.979 125.833 335.234 126.135 335.453 126.469C335.672 126.797 335.859 127.146 336.016 127.51C336.167 127.88 336.281 128.26 336.359 128.646C336.438 129.036 336.474 129.432 336.474 129.828Z" fill="#DD4E6A"/>
<path d="M330.055 128.062H329.32V126.896H331.357V132.265H330.055V128.062Z" fill="white"/>
<path d="M296.396 296.404C296.396 296.534 296.323 296.664 296.188 296.789C296.047 296.914 295.844 297.039 295.573 297.159C295.302 297.273 294.969 297.388 294.578 297.497C294.182 297.602 293.734 297.701 293.234 297.794C292.734 297.883 292.188 297.966 291.599 298.039C291.01 298.107 290.391 298.169 289.734 298.216C289.083 298.268 288.406 298.305 287.714 298.331C287.021 298.357 286.318 298.367 285.609 298.367C284.901 298.367 284.203 298.357 283.505 298.331C282.812 298.305 282.135 298.268 281.484 298.216C280.828 298.169 280.208 298.107 279.62 298.039C279.031 297.966 278.484 297.883 277.984 297.794C277.484 297.701 277.036 297.602 276.646 297.497C276.25 297.388 275.917 297.273 275.646 297.159C275.375 297.039 275.172 296.914 275.031 296.789C274.896 296.664 274.828 296.534 274.828 296.404C274.828 296.279 274.896 296.148 275.031 296.023C275.172 295.898 275.375 295.773 275.646 295.654C275.917 295.539 276.25 295.424 276.646 295.315C277.036 295.211 277.484 295.112 277.984 295.018C278.484 294.93 279.031 294.846 279.62 294.773C280.208 294.706 280.828 294.643 281.484 294.596C282.135 294.544 282.812 294.508 283.505 294.482C284.203 294.456 284.901 294.445 285.609 294.445C286.318 294.445 287.021 294.456 287.714 294.482C288.406 294.508 289.083 294.544 289.734 294.596C290.391 294.643 291.01 294.706 291.599 294.773C292.188 294.846 292.734 294.93 293.234 295.018C293.734 295.112 294.182 295.211 294.578 295.315C294.969 295.424 295.302 295.539 295.573 295.654C295.844 295.773 296.047 295.898 296.188 296.023C296.323 296.148 296.396 296.279 296.396 296.404Z" fill="#163687"/>
<path d="M270.546 261.519C270.546 261.519 265.395 264.977 267.296 276.222C269.192 287.472 274.895 296.404 274.895 296.404H296.343C296.343 296.404 302.046 287.461 303.942 276.222C305.843 264.982 300.687 261.519 300.687 261.519H270.546Z" fill="#163687"/>
<path d="M300.682 261.519C300.682 261.649 300.583 261.779 300.391 261.904C300.198 262.029 299.911 262.154 299.536 262.269C299.156 262.389 298.693 262.503 298.141 262.613C297.594 262.717 296.969 262.816 296.271 262.91C295.568 262.998 294.807 263.081 293.984 263.149C293.161 263.222 292.297 263.285 291.38 263.331C290.469 263.383 289.526 263.42 288.552 263.446C287.583 263.472 286.604 263.482 285.615 263.482C284.625 263.482 283.646 263.472 282.677 263.446C281.708 263.42 280.766 263.383 279.849 263.331C278.938 263.285 278.068 263.222 277.245 263.149C276.422 263.081 275.661 262.998 274.964 262.91C274.26 262.816 273.635 262.717 273.089 262.613C272.536 262.503 272.073 262.389 271.698 262.269C271.318 262.154 271.031 262.029 270.839 261.904C270.646 261.779 270.547 261.649 270.547 261.519C270.547 261.394 270.646 261.264 270.839 261.139C271.031 261.014 271.318 260.889 271.698 260.769C272.073 260.654 272.536 260.54 273.089 260.43C273.635 260.326 274.26 260.227 274.964 260.133C275.661 260.045 276.422 259.962 277.245 259.889C278.068 259.821 278.938 259.758 279.849 259.712C280.766 259.66 281.708 259.623 282.677 259.597C283.646 259.571 284.625 259.561 285.615 259.561C286.604 259.561 287.583 259.571 288.552 259.597C289.526 259.623 290.469 259.66 291.38 259.712C292.297 259.758 293.161 259.821 293.984 259.889C294.807 259.962 295.568 260.045 296.271 260.133C296.969 260.227 297.594 260.326 298.141 260.43C298.693 260.54 299.156 260.654 299.536 260.769C299.911 260.889 300.198 261.014 300.391 261.139C300.583 261.264 300.682 261.394 300.682 261.519Z" fill="#163687"/>
<path d="M299.716 261.518C299.716 261.612 299.628 261.706 299.445 261.794C299.263 261.883 298.997 261.971 298.643 262.06C298.289 262.143 297.857 262.221 297.341 262.299C296.826 262.378 296.242 262.445 295.586 262.513C294.93 262.576 294.221 262.638 293.451 262.685C292.68 262.737 291.867 262.784 291.008 262.815C290.154 262.852 289.273 262.878 288.362 262.898C287.456 262.914 286.539 262.924 285.612 262.924C284.685 262.924 283.768 262.914 282.862 262.898C281.951 262.878 281.07 262.852 280.216 262.815C279.362 262.784 278.544 262.737 277.779 262.685C277.008 262.638 276.294 262.576 275.638 262.513C274.987 262.445 274.398 262.378 273.883 262.299C273.372 262.221 272.935 262.143 272.581 262.06C272.227 261.971 271.961 261.883 271.779 261.794C271.596 261.706 271.508 261.612 271.508 261.518C271.508 261.43 271.596 261.336 271.779 261.247C271.961 261.159 272.227 261.07 272.581 260.982C272.935 260.898 273.372 260.815 273.883 260.742C274.398 260.664 274.987 260.591 275.638 260.529C276.294 260.461 277.008 260.404 277.779 260.352C278.544 260.305 279.362 260.258 280.216 260.227C281.07 260.19 281.951 260.164 282.862 260.143C283.768 260.128 284.685 260.117 285.612 260.117C286.539 260.117 287.456 260.128 288.362 260.143C289.273 260.164 290.154 260.19 291.008 260.227C291.867 260.258 292.68 260.305 293.451 260.352C294.221 260.404 294.93 260.461 295.586 260.529C296.242 260.591 296.826 260.664 297.341 260.742C297.857 260.815 298.289 260.898 298.643 260.982C298.997 261.07 299.263 261.159 299.445 261.247C299.628 261.336 299.716 261.43 299.716 261.518Z" fill="#89B2F9"/>
<path d="M300.878 216.18L300.863 216.732C300.811 216.721 295.904 216.633 291.899 220.628C290.743 221.784 289.774 223.154 288.993 224.732C288.779 225.159 288.582 225.602 288.399 226.06C287.087 229.357 286.483 233.461 286.618 238.31C287.045 253.695 287.102 275.018 287.102 277.018H286.55C286.561 275.06 286.503 253.758 286.066 238.326C285.91 232.758 286.717 228.159 288.451 224.586C288.628 224.201 288.837 223.82 289.04 223.461C289.738 222.247 290.571 221.164 291.514 220.216C295.701 216.076 300.665 216.175 300.878 216.18Z" fill="#163687"/>
<path d="M300.943 215.738C300.943 215.738 288.083 211.759 287.286 221.514C287.203 222.54 287.375 223.618 287.745 224.717C290.661 224.602 291.64 221.3 293.193 220.415C294.87 219.472 296.515 222.196 293.734 225.404C292.37 226.983 291.984 229.368 291.943 231.394C293.416 233.087 295.099 234.743 296.833 236.285C296.859 232.68 298.109 231.264 299.12 231.795C300.338 232.43 300.359 233.43 299.562 235.712C299.318 236.441 299.323 237.456 299.463 238.514C299.458 238.524 299.458 238.524 299.474 238.524C304.265 242.446 308.656 245.196 308.656 245.196C308.656 245.196 309.765 236.91 312.765 232.175C312.385 231.566 311.885 230.951 311.245 230.384C308.541 228.029 306.87 226.842 307.958 225.009C309.031 223.18 312.474 225.649 313.864 227.743C314.13 228.144 314.375 228.529 314.604 228.899C315.854 226.17 316.667 222.967 316.479 219.93C315.536 218.925 314.292 217.79 312.911 217.175C311.76 216.675 310.177 216.347 310.312 215.175C310.448 214.081 312.75 213.576 315.484 215.821C315.224 215.248 314.901 214.691 314.521 214.154C310.776 208.936 300.943 215.738 300.943 215.738ZM302.047 234.217C302.031 235.113 301.677 235.826 301.265 235.816C300.854 235.816 300.526 235.076 300.531 234.191C300.552 233.295 300.896 232.576 301.312 232.576C301.734 232.581 302.062 233.316 302.047 234.217ZM296.463 229.186C296.078 229.597 295.521 229.696 295.213 229.41C294.911 229.123 294.979 228.566 295.364 228.154C295.75 227.743 296.307 227.654 296.614 227.93C296.916 228.217 296.849 228.779 296.463 229.186ZM309.63 232.795C309.344 233.102 308.578 232.847 307.932 232.233C307.281 231.618 306.984 230.868 307.276 230.566C307.562 230.264 308.328 230.514 308.974 231.134C309.625 231.753 309.922 232.493 309.63 232.795ZM311.208 220.326C311.062 220.722 310.255 220.779 309.417 220.467C308.578 220.154 308.021 219.587 308.161 219.186C308.307 218.8 309.104 218.743 309.943 219.055C310.792 219.368 311.349 219.93 311.208 220.326Z" fill="#89B2F9"/>
<path d="M306.411 240.076C306.396 240.024 304.625 234.904 303.839 228.883C302.771 220.701 300.839 215.836 300.812 215.789L301.068 215.69C301.083 215.737 303.031 220.628 304.109 228.852C304.896 234.847 306.651 239.935 306.667 239.993L306.411 240.076Z" fill="white"/>
<path d="M300.422 245.217L300.198 245.717C300.177 245.712 297.453 244.56 294.823 246.113C292.062 247.738 290.375 251.602 289.802 257.597C288.781 268.191 288.526 272.472 288.469 274.175H287.922C287.979 272.441 288.234 268.107 289.25 257.55C289.849 251.357 291.625 247.352 294.552 245.639C297.432 243.946 300.297 245.159 300.422 245.217Z" fill="#163687"/>
<path d="M320.765 252.347C320.015 251.446 318.989 251.128 317.452 250.493C314.655 249.347 308.885 249.097 309.431 247.165C309.978 245.217 313.869 246.68 317.327 247.894C318.687 248.368 319.582 248.889 320.171 249.347C318.78 244.441 315.353 239.477 310.161 238.894C302.869 238.071 300.957 244.717 300.957 244.717C300.957 244.717 293.114 234.889 288.468 239.17C285.635 241.779 287.885 248.618 292.02 254.342C293.687 251.571 296.161 247.925 297.166 248.696C298.489 249.717 294.567 253.113 294.223 257.081C296.046 259.118 298.077 260.847 300.124 261.946C299.911 258.524 299.978 254.081 301.718 253.857C304.577 253.498 303.062 259.008 304.874 262.285C305.379 263.18 305.754 263.811 306.041 264.285C306.666 265.337 307.364 266.347 308.145 267.279C310.343 269.925 310.202 273.811 310.202 273.811C310.202 273.811 314.681 268.279 317.166 264.081C316.598 262.472 315.619 260.831 315.025 258.764C313.874 254.701 307.796 253.972 309.801 252.029C311.806 250.092 316.056 253.118 318.609 256.519C319.213 257.311 319.572 258.139 319.77 258.936C320.343 257.503 320.739 256.149 320.827 254.998C320.885 254.17 320.869 253.274 320.765 252.347ZM294.421 245.795C293.145 245.857 291.01 245.883 290.843 244.727C290.687 243.587 292.504 243.201 293.921 243.227C295.332 243.248 296.786 244.248 296.879 245.274C296.968 246.295 295.697 245.727 294.421 245.795ZM304.286 245.639C302.692 245.545 304.989 243.93 304.989 243.93C305.582 243.727 307.161 243.133 307.655 243.863C308.155 244.587 305.879 245.727 304.286 245.639Z" fill="#89B2F9"/>
<path d="M309.753 262.56C307.992 253.784 300.924 244.873 300.852 244.784L301.065 244.612C301.138 244.701 308.247 253.659 310.018 262.503L309.753 262.56Z" fill="white"/>
<path d="M282.612 217.32C282.607 219.128 282.701 222.148 282.867 225.815C282.883 226.232 282.909 226.654 282.924 227.075C283.518 239.492 284.768 258.138 285.138 263.565L284.586 263.612C284.232 258.388 283.049 240.846 282.44 228.456C282.414 227.956 282.393 227.461 282.367 226.982C282.169 222.789 282.044 219.315 282.06 217.315C282.081 214.68 281.487 213.034 280.305 212.398C278.404 211.393 275.513 213.341 275.477 213.367L275.164 212.919C275.289 212.825 278.357 210.753 280.56 211.914C281.945 212.654 282.638 214.466 282.612 217.32Z" fill="#163687"/>
<path d="M261.802 210.695C261.417 211.487 261.156 212.539 260.984 213.721C261.417 213.268 261.974 212.857 262.693 212.555C265.698 211.284 269.703 210.914 270.286 212.976C270.87 215.039 266.547 213.18 264.203 215.43C263.01 216.575 261.724 217.289 260.719 218.133C260.734 221.883 261.573 227.284 261.573 227.284C261.573 227.284 262.99 224.643 265.469 223.737C266.349 223.419 267.203 223.018 268.026 222.555C268.406 222.351 268.896 222.081 269.578 221.68C272.062 220.211 273.188 215.95 274.948 217.299C276.021 218.117 274.339 221.107 272.875 223.289C274.661 223.346 276.682 222.982 278.677 222.336C279.984 219.57 278.703 215.794 279.969 215.633C280.932 215.508 281.161 218.883 281.193 221.367C286.156 219.159 290.302 215.487 289.427 212.664C288 208.028 278.984 211.528 278.984 211.528C278.984 211.528 280.292 206.377 275.12 204.107C271.443 202.487 267.234 204.456 264.417 207.19C264.984 207.117 265.792 207.117 266.865 207.32C269.635 207.857 272.786 208.388 272.401 209.888C272.01 211.388 268.083 209.325 265.776 209.013C264.51 208.841 263.703 208.659 262.854 208.961C262.438 209.544 262.083 210.127 261.802 210.695ZM281.479 213.492C281.943 212.841 283.297 212.742 284.245 213.278C285.188 213.81 286.25 214.773 285.708 215.461C285.146 216.164 283.734 215.331 282.911 214.789C282.089 214.252 281.021 214.133 281.479 213.492ZM274.865 208.388C275.479 208.101 276.297 209.101 276.609 209.461C276.609 209.461 277.51 211.424 276.417 210.867C275.323 210.315 274.25 208.685 274.865 208.388Z" fill="#89B2F9"/>
<path d="M263.189 222.518C263.157 222.518 263.121 222.508 263.1 222.492C263.032 222.451 263.022 222.362 263.064 222.305C265.022 219.555 267.595 218.143 270.085 216.774C270.855 216.357 271.647 215.919 272.397 215.451C275.501 213.524 278.746 211.498 278.746 211.498C278.814 211.456 278.897 211.472 278.939 211.539C278.98 211.602 278.96 211.685 278.897 211.727C278.897 211.727 275.647 213.753 272.543 215.68C271.788 216.149 270.991 216.586 270.215 217.013C267.751 218.362 265.204 219.758 263.288 222.461C263.262 222.492 263.23 222.518 263.189 222.518Z" fill="white"/>
<path d="M283.992 266.279H283.445C283.565 263.836 283.971 254.737 283.617 243.545C283.518 240.279 282.737 238.279 281.305 237.586C281.258 237.555 281.201 237.529 281.143 237.513C281.008 237.467 280.888 237.425 280.747 237.394C277.477 236.618 272.43 241.508 272.378 241.56L271.992 241.164C272.216 240.951 277.164 236.154 280.721 236.815C280.909 236.852 281.102 236.909 281.279 236.972C281.305 236.982 281.331 236.982 281.346 236.987C283.107 237.696 284.049 239.894 284.159 243.513C284.513 254.685 284.128 263.779 283.992 266.279Z" fill="#163687"/>
<path d="M282.573 242.706C281.047 238.711 277.781 237.294 277.781 237.294C277.781 237.294 278.26 232.93 274.995 230.253C271.938 227.742 266.901 228.044 264.714 229.471C266.521 230.279 269.406 231.753 269.151 232.878C268.807 234.398 264.401 231.633 262.016 232.388C261.062 233.648 260.083 235.159 259.24 236.695C260.339 238.706 265.484 237.154 265.625 239.081C265.781 241.289 263.094 240.549 260.203 240.503C258.969 240.477 257.922 240.852 257.135 241.294C255.255 245.237 251.406 250.904 251.406 250.904C251.406 250.904 255.37 252.419 260.234 253.815C261.458 253.602 262.724 253.06 263.516 251.846C265.464 248.852 266.99 247.591 268.51 248.065C269.833 248.477 264.51 252.331 263.958 254.799C266.49 255.409 269.052 255.883 271.286 256.034C271.797 255.424 272.208 254.539 272.302 253.216C272.562 249.487 273.031 248.018 274.88 248.169C276.724 248.336 277.094 252.013 275.828 255.378C275.786 255.492 275.745 255.596 275.714 255.706C282.115 253.945 284.036 246.539 282.573 242.706ZM258.797 245.482C258.255 245.482 257.818 245.117 257.818 244.669C257.818 244.227 258.255 243.857 258.797 243.857C259.328 243.857 259.766 244.216 259.766 244.669C259.766 245.112 259.328 245.482 258.797 245.482ZM274.896 236.794C273.755 237.008 271.427 234.555 271.812 232.617C272.036 231.492 273.927 231.56 274.734 233.076C275.536 234.602 276.042 236.586 274.896 236.794ZM280.365 248.326C279.755 248.326 279.255 247.539 279.255 246.565C279.255 245.596 279.745 244.799 280.365 244.799C280.974 244.799 281.464 245.586 281.464 246.565C281.464 247.539 280.974 248.326 280.365 248.326Z" fill="#89B2F9"/>
<path d="M256.177 249.273L256.094 249.008C259.984 247.768 264.255 245.315 267.693 243.341C268.771 242.721 269.781 242.143 270.667 241.659C274.349 239.664 277.151 237.883 277.188 237.867L277.333 238.096C277.307 238.112 274.49 239.904 270.797 241.904C269.911 242.378 268.901 242.961 267.823 243.586C264.38 245.565 260.089 248.034 256.177 249.273Z" fill="white"/>
<mask id="mask1_746_9389" style="mask-type:luminance" maskUnits="userSpaceOnUse" x="0" y="26" width="140" height="167">
<path d="M0.015625 26.7998H139.271V192.133H0.015625V26.7998Z" fill="white"/>
</mask>
<g mask="url(#mask1_746_9389)">
<mask id="mask2_746_9389" style="mask-type:luminance" maskUnits="userSpaceOnUse" x="-632" y="-270" width="1640" height="922">
<path d="M1007.21 -270H-631.992V651.6H1007.21V-270Z" fill="black" fill-opacity="0.4"/>
</mask>
<g mask="url(#mask2_746_9389)">
<mask id="mask3_746_9389" style="mask-type:luminance" maskUnits="userSpaceOnUse" x="-1" y="26" width="141" height="167">
<path d="M139.273 26.7998H-0.726562V192.133H139.273V26.7998Z" fill="white"/>
</mask>
<g mask="url(#mask3_746_9389)">
<path d="M68.3906 28.8984H136.49V190.69H68.3906V28.8984Z" fill="#89B2F9"/>
<path d="M70.3594 28.8984H134.526V190.69H70.3594V28.8984Z" fill="#89B2F9"/>
<path d="M70.3594 31.6221H134.526V188.393H70.3594V31.6221Z" fill="white"/>
<path d="M134.526 121.445V188.383H70.3594V103.346H71.1563V94.1797H79.5938V103.346H89.8542V151.852H98.3594V145.805H109.635V151.852H110.51V121.445H121.193V113.904H128.146V121.445H134.526Z" fill="#89B2F9"/>
<mask id="mask4_746_9389" style="mask-type:luminance" maskUnits="userSpaceOnUse" x="65" y="27" width="75" height="11">
<path d="M65.9375 27.0391H139.172V37.4661H65.9375V27.0391Z" fill="white"/>
</mask>
<g mask="url(#mask4_746_9389)">
<path d="M66.3438 28.0703H138.531V37.0339H66.3438V28.0703Z" fill="#89B2F9"/>
</g>
<mask id="mask5_746_9389" style="mask-type:luminance" maskUnits="userSpaceOnUse" x="65" y="40" width="75" height="6">
<path d="M65.9375 40.1328H139.172V45.4661H65.9375V40.1328Z" fill="white"/>
</mask>
<g mask="url(#mask5_746_9389)">
<path d="M138.12 45.3984H66.7552C66.526 45.3984 66.3438 45.2161 66.3438 44.987V41.3255C66.3438 41.0964 66.526 40.9141 66.7552 40.9141H138.12C138.349 40.9141 138.531 41.0964 138.531 41.3255V44.987C138.531 45.2161 138.349 45.3984 138.12 45.3984Z" fill="#89B2F9"/>
</g>
<mask id="mask6_746_9389" style="mask-type:luminance" maskUnits="userSpaceOnUse" x="65" y="49" width="75" height="6">
<path d="M65.9375 49.4658H139.172V54.7992H65.9375V49.4658Z" fill="white"/>
</mask>
<g mask="url(#mask6_746_9389)">
<path d="M138.12 54.0592H66.7552C66.526 54.0592 66.3438 53.877 66.3438 53.6478V49.9915C66.3438 49.7624 66.526 49.5801 66.7552 49.5801H138.12C138.349 49.5801 138.531 49.7624 138.531 49.9915V53.6478C138.531 53.8717 138.349 54.0592 138.12 54.0592Z" fill="#89B2F9"/>
</g>
<mask id="mask7_746_9389" style="mask-type:luminance" maskUnits="userSpaceOnUse" x="65" y="57" width="75" height="6">
<path d="M65.9375 57.4658H139.172V62.7992H65.9375V57.4658Z" fill="white"/>
</mask>
<g mask="url(#mask7_746_9389)">
<path d="M138.12 62.7155H66.7552C66.526 62.7155 66.3438 62.5332 66.3438 62.304V58.6478C66.3438 58.4186 66.526 58.2363 66.7552 58.2363H138.12C138.349 58.2363 138.531 58.4186 138.531 58.6478V62.304C138.531 62.5332 138.349 62.7155 138.12 62.7155Z" fill="#89B2F9"/>
</g>
<mask id="mask8_746_9389" style="mask-type:luminance" maskUnits="userSpaceOnUse" x="65" y="66" width="75" height="7">
<path d="M65.9375 66.7998H139.172V72.1331H65.9375V66.7998Z" fill="white"/>
</mask>
<g mask="url(#mask8_746_9389)">
<path d="M138.12 71.3776H66.7552C66.526 71.3776 66.3438 71.2005 66.3438 70.9714V67.3099C66.3438 67.0807 66.526 66.8984 66.7552 66.8984H138.12C138.349 66.8984 138.531 67.0807 138.531 67.3099V70.9714C138.531 71.2005 138.349 71.3776 138.12 71.3776Z" fill="#89B2F9"/>
</g>
<mask id="mask9_746_9389" style="mask-type:luminance" maskUnits="userSpaceOnUse" x="65" y="74" width="75" height="7">
<path d="M65.9375 74.7998H139.172V80.1331H65.9375V74.7998Z" fill="white"/>
</mask>
<g mask="url(#mask9_746_9389)">
<path d="M138.12 80.0446H66.7552C66.526 80.0446 66.3438 79.8623 66.3438 79.6331V75.9769C66.3438 75.7425 66.526 75.5654 66.7552 75.5654H138.12C138.349 75.5654 138.531 75.7425 138.531 75.9769V79.6331C138.531 79.8571 138.349 80.0446 138.12 80.0446Z" fill="#89B2F9"/>
</g>
<mask id="mask10_746_9389" style="mask-type:luminance" maskUnits="userSpaceOnUse" x="65" y="84" width="75" height="6">
<path d="M65.9375 84.1328H139.172V89.4661H65.9375V84.1328Z" fill="white"/>
</mask>
<g mask="url(#mask10_746_9389)">
<path d="M138.12 88.7008H66.7552C66.526 88.7008 66.3438 88.5186 66.3438 88.2894V84.6331C66.3438 84.3988 66.526 84.2217 66.7552 84.2217H138.12C138.349 84.2217 138.531 84.3988 138.531 84.6331V88.2894C138.531 88.5186 138.349 88.7008 138.12 88.7008Z" fill="#89B2F9"/>
</g>
<path d="M129.789 35.7061H130.357V102.706H129.789V35.7061Z" fill="#163687"/>
<path d="M129.367 102.289H130.789V106.669H129.367V102.289Z" fill="#163687"/>
<path d="M2.16406 28.8984H70.263V190.69H2.16406V28.8984Z" fill="#89B2F9"/>
<path d="M4.125 31.6221H68.2917V188.393H4.125V31.6221Z" fill="white"/>
<path d="M68.2917 121.445V188.383H4.125V103.346H4.92187V94.1797H13.3698V103.346H23.6198V151.852H32.1302V145.805H43.4063V151.852H44.276V121.445H54.9635V113.904H61.9167V121.445H68.2917Z" fill="#89B2F9"/>
<mask id="mask11_746_9389" style="mask-type:luminance" maskUnits="userSpaceOnUse" x="0" y="27" width="73" height="11">
<path d="M0.015625 27.0391H72.6042V37.4661H0.015625V27.0391Z" fill="white"/>
</mask>
<g mask="url(#mask11_746_9389)">
<path d="M0.117188 28.0703H72.2995V37.0339H0.117188V28.0703Z" fill="#89B2F9"/>
</g>
<mask id="mask12_746_9389" style="mask-type:luminance" maskUnits="userSpaceOnUse" x="0" y="40" width="73" height="6">
<path d="M0.015625 40.1328H72.6042V45.4661H0.015625V40.1328Z" fill="white"/>
</mask>
<g mask="url(#mask12_746_9389)">
<path d="M0.117188 40.9141H72.2995V45.3984H0.117188V40.9141Z" fill="#89B2F9"/>
</g>
<mask id="mask13_746_9389" style="mask-type:luminance" maskUnits="userSpaceOnUse" x="0" y="49" width="73" height="6">
<path d="M0.015625 49.4658H72.6042V54.7992H0.015625V49.4658Z" fill="white"/>
</mask>
<g mask="url(#mask13_746_9389)">
<path d="M0.117188 49.5703H72.2995V54.0495H0.117188V49.5703Z" fill="#89B2F9"/>
</g>
<mask id="mask14_746_9389" style="mask-type:luminance" maskUnits="userSpaceOnUse" x="0" y="57" width="73" height="6">
<path d="M0.015625 57.4658H72.6042V62.7992H0.015625V57.4658Z" fill="white"/>
</mask>
<g mask="url(#mask14_746_9389)">
<path d="M0.117188 58.2363H72.2995V62.7155H0.117188V58.2363Z" fill="#89B2F9"/>
</g>
<mask id="mask15_746_9389" style="mask-type:luminance" maskUnits="userSpaceOnUse" x="0" y="66" width="73" height="7">
<path d="M0.015625 66.7998H72.6042V72.1331H0.015625V66.7998Z" fill="white"/>
</mask>
<g mask="url(#mask15_746_9389)">
<path d="M0.117188 66.8984H72.2995V71.3776H0.117188V66.8984Z" fill="#89B2F9"/>
</g>
<mask id="mask16_746_9389" style="mask-type:luminance" maskUnits="userSpaceOnUse" x="0" y="74" width="73" height="7">
<path d="M0.015625 74.7998H72.6042V80.1331H0.015625V74.7998Z" fill="white"/>
</mask>
<g mask="url(#mask16_746_9389)">
<path d="M0.117188 75.5547H72.2995V80.0339H0.117188V75.5547Z" fill="#89B2F9"/>
</g>
<mask id="mask17_746_9389" style="mask-type:luminance" maskUnits="userSpaceOnUse" x="0" y="84" width="73" height="6">
<path d="M0.015625 84.1328H72.6042V89.4661H0.015625V84.1328Z" fill="white"/>
</mask>
<g mask="url(#mask17_746_9389)">
<path d="M0.117188 84.2217H72.2995V88.7008H0.117188V84.2217Z" fill="#89B2F9"/>
</g>
</g>
</g>
</g>
<path d="M261.57 54.7061V284.69C261.57 291.862 255.742 297.68 248.56 297.68H123.674C116.492 297.68 110.664 291.862 110.664 284.69V54.6904C110.664 47.5238 116.492 41.7061 123.674 41.7061H156.763C159.706 41.7061 212.534 41.7061 215.487 41.7061H248.56C255.742 41.7113 261.57 47.529 261.57 54.7061Z" fill="#163687"/>
<path d="M255.302 56.7008V278.675C255.302 283.581 251.307 287.571 246.391 287.571H125.849C120.932 287.571 116.938 283.581 116.938 278.675V56.68C116.938 51.779 120.932 47.7842 125.849 47.7842H157.786C158.609 47.7842 159.281 48.4561 159.281 49.2842V52.93H212.958V49.2842C212.958 48.4561 213.63 47.7842 214.458 47.7842H246.391C251.297 47.7946 255.302 51.7894 255.302 56.7008Z" fill="white"/>
<path d="M125.844 285.086C122.297 285.086 119.422 282.211 119.422 278.675V56.68C119.422 53.1436 122.297 50.2686 125.844 50.2686H156.786V55.4144H215.432V50.2686H246.38C249.922 50.2686 252.807 53.1488 252.807 56.6956V278.67C252.807 282.206 249.932 285.076 246.385 285.076H125.844V285.086Z" fill="#89B2F9" fill-opacity="0.3"/>
<path d="M18.3125 220.258C18.3125 220.258 27.2188 213.05 27.2188 203.727C27.2188 194.41 25.3177 180.107 53.8073 180.107C82.2969 180.107 80.3958 194.41 80.3958 203.727C80.3958 213.05 89.2969 220.258 89.2969 220.258H18.3125Z" fill="#163687"/>
<path d="M23.7109 220.258C23.7109 220.258 31.263 214.138 31.263 206.232C31.263 198.32 29.6536 186.195 53.8255 186.195C77.9974 186.195 76.388 198.32 76.388 206.232C76.388 214.138 83.9401 220.258 83.9401 220.258H23.7109Z" fill="#163687"/>
<path d="M51.7031 228.628H55.8125V297.315H51.7031V228.628Z" fill="#163687"/>
<path d="M17.25 221.753V228.003C17.25 231.347 33.599 234.045 53.7604 234.045C73.9219 234.045 90.2708 231.336 90.2708 228.003V221.753H17.25Z" fill="#89B2F9"/>
<path d="M17.25 221.753V228.003C17.25 231.347 33.599 234.045 53.7604 234.045C73.9219 234.045 90.2708 231.336 90.2708 228.003V221.753H17.25Z" fill="#163687"/>
<path d="M90.2708 221.753C90.2708 221.951 90.2135 222.149 90.099 222.347C89.9792 222.545 89.8021 222.738 89.5729 222.93C89.3385 223.128 89.0469 223.316 88.7031 223.508C88.3542 223.696 87.9531 223.883 87.4948 224.066C87.0365 224.248 86.526 224.425 85.9635 224.602C85.3958 224.774 84.7865 224.946 84.1198 225.107C83.4531 225.274 82.7448 225.43 81.9844 225.587C81.2292 225.738 80.4271 225.883 79.5781 226.024C78.7344 226.165 77.849 226.295 76.9219 226.42C76 226.545 75.0417 226.665 74.0469 226.774C73.0521 226.883 72.026 226.988 70.974 227.081C69.9167 227.17 68.8385 227.258 67.7344 227.331C66.6302 227.41 65.5052 227.477 64.3594 227.535C63.2188 227.592 62.0573 227.639 60.8854 227.675C59.7135 227.717 58.5312 227.743 57.3385 227.764C56.151 227.785 54.9583 227.79 53.7604 227.79C52.5677 227.79 51.375 227.785 50.1823 227.764C48.9948 227.743 47.8125 227.717 46.6406 227.675C45.4688 227.639 44.3073 227.592 43.1615 227.535C42.0208 227.477 40.8958 227.41 39.7917 227.331C38.6875 227.258 37.6042 227.17 36.5521 227.081C35.4948 226.988 34.474 226.883 33.4792 226.774C32.4844 226.665 31.526 226.545 30.599 226.42C29.6771 226.295 28.7917 226.165 27.9427 226.024C27.099 225.883 26.2969 225.738 25.5365 225.587C24.7812 225.43 24.0677 225.274 23.4062 225.107C22.7396 224.946 22.125 224.774 21.5625 224.602C21 224.425 20.4896 224.248 20.0312 224.066C19.5729 223.883 19.1719 223.696 18.8229 223.508C18.474 223.316 18.1875 223.128 17.9531 222.93C17.7188 222.738 17.5469 222.545 17.4271 222.347C17.3125 222.149 17.25 221.951 17.25 221.753C17.25 221.555 17.3125 221.357 17.4271 221.16C17.5469 220.967 17.7188 220.769 17.9531 220.576C18.1875 220.383 18.474 220.191 18.8229 220.003C19.1719 219.811 19.5729 219.623 20.0312 219.441C20.4896 219.258 21 219.081 21.5625 218.91C22.125 218.732 22.7396 218.566 23.4062 218.399C24.0677 218.232 24.7812 218.076 25.5365 217.925C26.2969 217.769 27.099 217.623 27.9427 217.482C28.7917 217.342 29.6771 217.212 30.599 217.087C31.526 216.962 32.4844 216.842 33.4792 216.732C34.474 216.623 35.4948 216.519 36.5521 216.43C37.6042 216.337 38.6875 216.248 39.7917 216.175C40.8958 216.097 42.0208 216.035 43.1615 215.977C44.3073 215.92 45.4688 215.868 46.6406 215.831C47.8125 215.795 48.9948 215.764 50.1823 215.743C51.375 215.727 52.5677 215.717 53.7604 215.717C54.9583 215.717 56.151 215.727 57.3385 215.743C58.5312 215.764 59.7135 215.795 60.8854 215.831C62.0573 215.868 63.2188 215.92 64.3594 215.977C65.5052 216.035 66.6302 216.097 67.7344 216.175C68.8385 216.248 69.9167 216.337 70.974 216.43C72.026 216.519 73.0521 216.623 74.0469 216.732C75.0417 216.842 76 216.962 76.9219 217.087C77.849 217.212 78.7344 217.342 79.5781 217.482C80.4271 217.623 81.2292 217.769 81.9844 217.925C82.7448 218.076 83.4531 218.232 84.1198 218.399C84.7865 218.566 85.3958 218.732 85.9635 218.91C86.526 219.081 87.0365 219.258 87.4948 219.441C87.9531 219.623 88.3542 219.811 88.7031 220.003C89.0469 220.191 89.3385 220.383 89.5729 220.576C89.8021 220.769 89.9792 220.967 90.099 221.16C90.2135 221.357 90.2708 221.555 90.2708 221.753Z" fill="#163687"/>
<path d="M53.7552 227.274C34.901 227.274 20.1406 224.8 20.1406 221.623H20.3438C20.3438 223.024 23.8854 224.42 30.0781 225.436C36.4063 226.488 44.8125 227.061 53.7552 227.061C62.7083 227.061 71.1146 226.488 77.4375 225.436C83.6198 224.41 87.1667 223.024 87.1667 221.623H87.375C87.375 224.8 72.6146 227.274 53.7552 227.274Z" fill="#89B2F9"/>
<path d="M61.8854 297.352H45.6406V294.685C45.6406 293.534 46.5781 292.602 47.7292 292.602H59.7865C60.9375 292.602 61.875 293.534 61.875 294.685V297.352H61.8854Z" fill="#163687"/>
<path d="M64.6276 254.43L59.2109 261.773L55.7422 269.117L58.2786 274.268L63.7786 275.622C63.7786 275.622 65.9818 270.898 67.8411 268.201C69.6953 265.497 74.3516 259.841 74.3516 259.841L64.6276 254.43Z" fill="#EDA93B"/>
<path d="M65.9235 271.373C65.8662 273.341 61.1891 280.826 60.0641 283.253C58.9391 285.664 58.8818 287.3 58.262 289.612C57.887 291.008 56.6526 293.519 54.7672 295.149C53.5224 296.227 52.0016 296.925 50.2464 296.654C45.8506 295.982 44.5589 289.112 45.0641 284.946C45.5745 280.784 53.7516 267.888 55.3297 265.524C55.8401 264.763 56.4235 264.107 56.9912 263.555C58.1058 262.466 59.1266 261.841 59.2151 261.784C59.0849 262.039 56.486 267.378 59.3297 269.404C64.2308 272.894 65.9235 271.373 65.9235 271.373Z" fill="#163687"/>
<path d="M54.7672 295.144C53.5224 296.216 52.0016 296.914 50.2464 296.644C45.8506 295.972 44.5589 289.102 45.0641 284.935C45.5745 280.779 53.7516 267.878 55.3297 265.519C55.8401 264.753 56.4235 264.097 56.9912 263.55C56.0537 265.206 53.0693 270.571 51.4391 274.097C49.4912 278.326 45.5224 283.722 46.7881 288.623C48.0485 293.503 49.486 296.956 54.7672 295.144Z" fill="#89B2F9"/>
<path d="M87.2943 198.716C87.2943 198.716 110.977 210.758 109.617 220.211C108.263 229.664 71.8411 263.768 71.8411 263.768C71.8411 263.768 62.2578 260.841 60.9036 257.352C59.5443 253.867 85.0339 221.669 85.0339 221.669L52.4453 198.602L87.2943 198.716Z" fill="#89B2F9"/>
<path d="M46.4792 258.936L41.0625 266.279L37.5938 273.623L40.1354 278.774L45.6354 280.128C45.6354 280.128 47.8385 275.404 49.6927 272.706C51.5521 270.003 56.2031 264.342 56.2031 264.342L46.4792 258.936Z" fill="#EDA93B"/>
<path d="M47.7672 275.878C47.7099 277.846 43.0328 285.331 41.9078 287.758C40.7776 290.169 40.7203 291.805 40.1058 294.117C39.7256 295.513 38.4964 298.023 36.611 299.654C35.361 300.732 33.8453 301.43 32.0901 301.159C27.6943 300.482 26.4026 293.617 26.9078 289.451C27.4131 285.289 35.5953 272.393 37.1735 270.029C37.6839 269.263 38.2672 268.607 38.8297 268.06C39.9495 266.966 40.9703 266.346 41.0589 266.289C40.9287 266.539 38.3297 271.883 41.1735 273.909C46.0797 277.398 47.7672 275.878 47.7672 275.878Z" fill="#163687"/>
<path d="M36.611 299.649C35.361 300.722 33.8453 301.42 32.0901 301.149C27.6943 300.477 26.4026 293.607 26.9078 289.44C27.4131 285.279 35.5953 272.383 37.1735 270.019C37.6839 269.258 38.2672 268.602 38.8297 268.05C37.8974 269.711 34.9131 275.076 33.2828 278.602C31.3349 282.826 27.3662 288.227 28.6318 293.123C29.887 298.008 31.3297 301.461 36.611 299.649Z" fill="#89B2F9"/>
<path d="M41.7854 197.117C41.7854 197.117 32.3322 220.159 44.0718 226.315C52.7645 230.878 65.7593 225.846 65.7593 225.846C65.7593 225.846 52.3947 245.096 46.4781 258.935C46.4781 258.935 49.1812 266.253 55.7281 265.466C55.7281 265.466 92.3739 229.784 91.1343 219.096C89.8947 208.404 52.452 198.607 52.452 198.607L41.7854 197.117Z" fill="#89B2F9"/>
<path d="M55.724 265.581C55.6875 265.581 55.6615 265.576 55.6406 265.55C55.599 265.498 55.599 265.435 55.6406 265.383C56.0104 265.034 92.2344 229.623 91.0156 219.102C90.3802 213.633 83.6823 209.362 78.1771 206.748C72.1927 203.899 66.276 202.342 66.2188 202.326C66.1615 202.31 66.1198 202.243 66.1354 202.185C66.151 202.128 66.2188 202.086 66.276 202.102C66.3333 202.118 72.2656 203.685 78.2656 206.534C83.8229 209.175 90.5885 213.493 91.2396 219.071C91.7552 223.539 85.9427 232.722 73.9688 246.357C65.0573 256.498 55.8854 265.451 55.7969 265.539C55.7812 265.576 55.7448 265.581 55.724 265.581Z" fill="#163687"/>
<path d="M87.9844 113.664L87.1198 116.888L84.3594 131.742L86.4479 130.904L87.9844 113.664Z" fill="#163687"/>
<path d="M86.5419 94.5341C86.5419 94.5341 90.0784 93.5966 91.1409 95.6747C92.1982 97.7476 90.6878 100.227 92.0784 101.779C93.4638 103.331 95.5263 102.966 95.1826 107.018C94.8388 111.076 94.0055 111.925 95.193 113.659C96.3753 115.388 96.7711 116.06 95.568 117.867C94.3701 119.675 95.1513 122.789 96.4326 124.545C97.7242 126.3 93.8909 128.565 93.4482 130.617C93.0055 132.659 94.1982 135.071 91.844 137.222C89.4951 139.373 88.6409 138.123 87.5888 139.742C86.5367 141.357 88.2555 143.94 86.1565 143.935C84.0628 143.925 75.8596 149.456 71.5367 148.076C67.2138 146.696 64.7867 142.487 62.0159 143.367C59.2503 144.242 57.6513 142.643 57.6721 140.586C57.6878 138.524 55.3023 138.534 54.3492 136.55C51.9065 131.456 55.3857 130.279 54.1513 127.805C52.9169 125.326 51.818 124.201 52.6305 121.43C53.443 118.654 52.1565 117.482 52.2555 115.961C52.4586 112.935 53.7711 111.425 55.1721 110.18C56.568 108.93 55.6253 104.378 57.5055 102.133C59.3857 99.883 62.0836 100.612 63.094 98.6955C64.1044 96.7737 64.7138 94.0341 65.6513 93.2216C67.5732 91.5549 68.4951 92.6278 70.0315 92.2268C71.568 91.8258 72.8336 89.6851 74.6617 89.7112C76.4846 89.732 77.2503 91.4247 79.1201 91.456C80.9951 91.4872 81.4221 90.7528 83.5055 91.0549C85.6148 91.357 85.2034 94.0237 86.5419 94.5341Z" fill="#163687"/>
<path d="M78.6823 132.717C78.6823 132.717 79.5156 142.295 80.0312 143.784C80.5469 145.29 68.0885 143.17 65.526 142.154C62.9583 141.128 62.2188 138.977 62.2188 138.977C62.2188 138.977 66.8125 127.712 66.1406 123.654C65.4583 119.592 78.6823 132.717 78.6823 132.717Z" fill="#EDA93B"/>
<path d="M75.8857 134.336C70.4429 134.065 66.9898 127.654 65.9638 121.914C64.9377 116.17 66.4065 96.4613 78.3179 97.9196C90.219 99.3884 88.8284 112.232 87.9273 117.982C87.0211 123.732 83.2502 134.696 75.8857 134.336Z" fill="#EDA93B"/>
<path d="M87.2651 101.253C87.2651 101.253 87.0099 105.591 84.364 106.06C81.7182 106.529 79.8953 104.831 78.6922 107.81C77.4943 110.784 76.0724 111.149 73.7026 111.138C71.338 111.133 71.1818 113.388 69.437 113.956C67.6974 114.519 61.6297 113.404 61.7599 110.269C61.8849 107.133 67.5099 96.5342 67.5099 96.5342C67.5099 96.5342 71.4213 94.0394 71.9943 93.7894C72.5724 93.5342 76.8797 93.3415 78.1505 93.4352C79.4318 93.5342 86.239 97.9873 86.1818 98.1592C86.1349 98.3415 87.2651 101.253 87.2651 101.253Z" fill="#163687"/>
<path d="M83.875 104.722C83.875 104.722 83.875 109.394 87.0312 110.649C90.1875 111.904 92.7188 118.722 92.7188 118.722L91.9583 102.206L88.8021 95.1387L86.526 95.3939L83.875 104.722Z" fill="#163687"/>
<path d="M76.2439 134.451C76.1241 134.451 76.0043 134.451 75.8898 134.44C73.395 134.315 70.8585 132.769 68.7387 130.065C68.697 130.019 68.7023 129.946 68.7543 129.904C68.8012 129.862 68.8793 129.873 68.9158 129.92C70.9991 132.56 73.4783 134.086 75.895 134.211C76.7283 134.253 77.5408 134.144 78.322 133.899C78.3793 133.883 78.4418 133.914 78.4679 133.972C78.4835 134.029 78.4523 134.097 78.395 134.123C77.697 134.342 76.9731 134.451 76.2439 134.451Z" fill="#163687"/>
<path d="M66.7705 116.93C66.7705 116.93 63.2809 115.274 62.6924 118.352C62.109 121.43 66.6507 124.727 66.6507 124.727L66.7705 116.93Z" fill="#EDA93B"/>
<path d="M65.4817 118.555C65.4817 118.555 63.2837 118.539 65.1952 121.336L65.4817 118.555Z" fill="#163687"/>
<path d="M83.6667 117.987C83.8958 118.05 84.0521 118.232 84.1354 118.534C84.224 118.836 84.2135 119.164 84.1094 119.524C84.0052 119.883 83.8385 120.164 83.6042 120.373C83.3698 120.581 83.1406 120.654 82.9115 120.586C82.6875 120.524 82.5312 120.336 82.4427 120.039C82.3542 119.737 82.3646 119.409 82.4687 119.05C82.5729 118.691 82.7448 118.409 82.974 118.201C83.2083 117.993 83.4427 117.92 83.6667 117.987Z" fill="#163687"/>
<path d="M74.8385 116.039C75.0625 116.102 75.2187 116.289 75.3073 116.586C75.3958 116.888 75.3854 117.216 75.2812 117.576C75.1771 117.935 75.0052 118.216 74.776 118.425C74.5417 118.633 74.3073 118.706 74.0833 118.638C73.8542 118.576 73.6979 118.393 73.6146 118.091C73.526 117.789 73.5365 117.461 73.6406 117.102C73.7448 116.742 73.9115 116.461 74.1458 116.253C74.3802 116.044 74.6094 115.971 74.8385 116.039Z" fill="#163687"/>
<path d="M75.9859 126.956L79.2307 127.555C79.2307 127.555 78.7515 128.576 77.1734 128.352C75.8922 128.175 75.9859 126.956 75.9859 126.956Z" fill="white"/>
<path d="M78.5229 124.769C78.4761 124.769 78.424 124.769 78.3771 124.758L78.0959 124.727C77.9969 124.712 77.924 124.618 77.9396 124.524C77.9552 124.425 78.049 124.347 78.1479 124.368L78.424 124.399C78.6479 124.43 78.8719 124.357 79.0334 124.201C79.2 124.045 79.2782 123.831 79.2625 123.613L79.1636 122.274C79.1584 122.175 79.2313 122.087 79.3354 122.076C79.4344 122.066 79.5282 122.144 79.5334 122.248L79.6323 123.587C79.6584 123.925 79.5334 124.243 79.2886 124.482C79.075 124.659 78.8042 124.769 78.5229 124.769Z" fill="#163687"/>
<path d="M76.5052 114.43C76.5052 114.43 74.0052 113.315 72.0156 114.586L76.5052 114.43Z" fill="#163687"/>
<path d="M82.4453 115.373C82.4453 115.373 84.5495 114.826 86.3932 116.597L82.4453 115.373Z" fill="#163687"/>
<path d="M94.9453 141.425C90.9349 145.076 91.5911 155.847 91.4714 162.54C91.3464 169.253 89.2422 175.014 88.0599 180.878C86.8776 186.769 87.3932 199.102 87.3932 199.102C87.3932 199.102 77.6693 198.16 69.3255 199.43C61.0078 200.675 39.8203 202.087 39.8203 202.087C39.8203 202.087 42.4766 190.035 43.4193 184.686C44.3672 179.363 44.2109 171.847 43.7318 167.441C43.2734 163.061 43.5755 158.191 43.5755 153.024C43.5755 147.857 44.4036 137.18 44.4036 137.18C46.6901 136.566 56.737 135.024 61.9714 134.253C63.237 134.066 64.0078 133.967 64.0078 133.967C64.0078 133.967 67.5286 140.363 73.0755 140.003C78.6172 139.644 79.0286 135.91 79.0286 135.91C79.5911 136.133 80.3151 136.41 81.1224 136.712C86.9245 138.904 94.9453 141.425 94.9453 141.425Z" fill="white"/>
<path d="M55.1974 135.039C55.1974 135.039 56.8485 145.148 57.9058 153.966C58.9683 162.789 60.7339 170.07 55.1974 181.591C51.963 188.31 49.9422 198.987 46.1558 205.424C43.4474 210.039 38.4214 211.596 37.9266 212.039C36.7495 213.096 37.2026 206.305 37.2495 204.378C37.4162 197.305 37.8745 197.232 38.5828 190.643C39.2912 184.055 42.1193 153.727 42.1193 153.727L44.3953 137.174C44.4005 137.174 49.4266 135.622 55.1974 135.039Z" fill="#DD4E6A"/>
<path d="M61.9594 200.316C61.9594 200.316 43.9281 197.706 40.6469 196.81C40.6313 196.81 40.6208 196.805 40.6052 196.805C37.3917 195.92 35.0427 193.06 34.7771 189.748C34.7146 188.868 34.7563 187.92 34.9438 186.894C35.7719 182.42 44.1417 184.383 44.3865 184.441H44.3969L58.7615 192.758L61.9594 200.316Z" fill="#EDA93B"/>
<path d="M50.9902 147.815L44.3964 137.18C44.3964 137.18 36.6672 139.805 34.1933 155.544C32.4381 166.768 30.4225 168.742 29.4381 180.221C29.0891 184.227 28.162 192.94 36.8079 195.779C36.8808 195.826 36.9485 195.867 37.0214 195.898C39.011 196.779 45.3964 197.716 45.3964 197.716C42.761 192.102 49.5006 187.424 49.5006 187.424L45.1256 184.503L45.0527 184.487C45.0943 184.497 45.1256 184.503 45.1256 184.503L49.6568 161.669L50.9902 147.815Z" fill="#DD4E6A"/>
<path d="M57.125 192.519C57.125 192.519 60.0521 192.618 62.3438 192.914C64.6406 193.211 68.0938 194.623 69.7344 194.274C71.3802 193.93 72.2656 193.852 72.2656 193.852C72.2656 193.852 72.4323 196.44 69.1458 196.055C69.1458 196.055 71.0417 197.597 72.2448 198.873C73.4427 200.144 74.7917 203.472 74.3073 204.107C73.8229 204.737 73.0625 204.493 73.0625 204.493C73.0625 204.493 74.4375 207.565 71.9635 207.19C71.9635 207.19 71.5208 208.586 70.526 208.216C69.5313 207.847 69.0677 207.201 69.0677 207.201C69.0677 207.201 68.3958 208.659 66.776 207.461C65.1563 206.263 62.25 203.164 60.5885 202.31C58.9271 201.456 56.5938 199.956 55 198.008L57.125 192.519Z" fill="#EDA93B"/>
<path d="M69.0673 207.316C69.0361 207.316 69.0101 207.295 68.9944 207.279C68.9632 207.248 66.0517 203.759 63.6767 202.087C63.6298 202.055 63.6194 201.988 63.6507 201.946C63.6871 201.899 63.7496 201.889 63.7913 201.925C66.1923 203.608 69.1194 207.118 69.1507 207.149C69.1819 207.191 69.1819 207.259 69.135 207.29C69.1194 207.305 69.0934 207.316 69.0673 207.316Z" fill="#163687"/>
<path d="M71.9732 207.305C71.942 207.305 71.9107 207.289 71.8951 207.263C71.8586 207.216 68.6138 202.529 65.6138 200.112C65.5722 200.076 65.567 200.013 65.5982 199.972C65.6295 199.93 65.6972 199.919 65.7388 199.956C68.7597 202.388 72.0253 207.102 72.0565 207.149C72.093 207.201 72.0722 207.258 72.0357 207.289C72.0097 207.294 71.994 207.305 71.9732 207.305Z" fill="#163687"/>
<path d="M73.0733 204.607C73.0421 204.607 73.0004 204.591 72.9848 204.555C72.9587 204.508 70.4119 199.987 67.0994 197.935C67.0473 197.904 67.0317 197.847 67.0629 197.795C67.0994 197.748 67.1567 197.732 67.2035 197.763C70.5577 199.841 73.141 204.409 73.1619 204.456C73.1879 204.508 73.1723 204.565 73.1202 204.597C73.1046 204.607 73.089 204.607 73.0733 204.607Z" fill="#163687"/>
<path d="M69.1545 196.169C69.1389 196.169 69.1128 196.164 69.0972 196.154C69.0816 196.148 67.7326 195.211 66.8785 194.898C66.8316 194.883 66.7951 194.825 66.8212 194.768C66.8368 194.721 66.8941 194.685 66.9514 194.711C67.8316 195.029 69.1649 195.95 69.2222 195.992C69.2691 196.023 69.2795 196.091 69.2483 196.127C69.2222 196.154 69.1858 196.169 69.1545 196.169Z" fill="#163687"/>
<path d="M44.4819 184.331C44.4558 184.331 44.4298 184.326 44.4037 184.31C44.3569 184.269 39.3412 180.394 35.1277 182.206C35.0704 182.232 35.0027 182.206 34.9766 182.149C34.9558 182.091 34.9766 182.029 35.0339 182.003C39.3777 180.133 44.4975 184.086 44.5444 184.128C44.5964 184.17 44.6016 184.243 44.56 184.289C44.5548 184.315 44.5131 184.331 44.4819 184.331Z" fill="#163687"/>
<path d="M85.1621 138.092C85.1621 138.092 82.5475 143.258 80.511 149.061C78.4694 154.863 74.9121 163.837 77.8131 171.837C80.7142 179.826 82.9642 197.076 83.2767 201.227C83.2767 201.227 92.9589 204.842 93.0006 202.201C93.0787 198.061 87.7089 184.587 88.3339 182.337C89.3548 178.654 91.3183 171.993 91.7142 167.29C92.1048 162.592 91.4017 155.691 94.3027 150.441C97.2037 145.191 94.9433 141.425 94.9433 141.425C94.9433 141.425 87.8339 139.035 85.1621 138.092Z" fill="#DD4E6A"/>
<path d="M44.4689 183.284C44.4585 183.284 44.4533 183.284 44.4533 183.284C44.3856 183.273 44.3439 183.216 44.3648 183.148C44.3804 183.075 45.6096 175.544 45.8439 170.81C45.9325 168.971 45.9012 166.56 45.8648 164.008C45.8179 159.852 45.7606 155.549 46.1929 152.799C46.2033 152.737 46.2606 152.695 46.3283 152.706C46.3908 152.711 46.4325 152.768 46.4273 152.836C46.0002 155.56 46.0471 159.852 46.1043 164.003C46.1356 166.56 46.1721 168.971 46.0783 170.82C45.8491 175.56 44.6096 183.112 44.5939 183.185C44.5783 183.242 44.5262 183.284 44.4689 183.284Z" fill="#163687"/>
<path d="M65.7553 225.962C65.7344 225.962 65.7084 225.957 65.6824 225.936C65.6355 225.899 65.6251 225.821 65.6667 225.774C65.6771 225.759 66.7605 224.42 68.1719 223.05C70.0782 221.196 71.6511 220.154 72.8334 219.957C72.9011 219.951 72.9584 219.988 72.9636 220.045C72.974 220.113 72.9324 220.17 72.8751 220.181C70.1459 220.628 65.8907 225.863 65.849 225.92C65.823 225.946 65.7917 225.962 65.7553 225.962Z" fill="#163687"/>
<path d="M94.9467 141.425C94.9467 141.425 98.655 142.43 99.9623 148.279C101.129 153.524 102.577 168.456 103.572 173.644C104.566 178.826 111.311 191.961 104.343 195.493C97.379 199.019 89.7956 185.769 88.3321 182.331C84.8477 174.144 86.1029 163.706 86.1029 163.706L91.0769 141.857L94.9467 141.425Z" fill="#DD4E6A"/>
<path d="M88.0617 181.003C88.0512 181.003 88.046 181.003 88.0356 181.003C87.9731 180.987 87.9367 180.93 87.9471 180.868C88.3012 179.092 88.7596 177.279 89.1971 175.529C90.2231 171.441 91.2752 167.211 91.3585 162.55C91.421 158.789 92.1606 154.524 93.3846 150.842C93.4054 150.784 93.4679 150.753 93.5356 150.769C93.5929 150.784 93.6242 150.852 93.6085 150.914C92.395 154.576 91.6554 158.816 91.5877 162.55C91.5044 167.232 90.4471 171.477 89.4158 175.576C88.9835 177.326 88.5304 179.133 88.1658 180.909C88.1606 180.961 88.1085 181.003 88.0617 181.003Z" fill="#163687"/>
<path d="M92.4688 154.774L84.4062 173.389L74.8125 169.706L82.3125 150.857L92.4688 154.774Z" fill="#89B2F9"/>
<path d="M93.2682 155.065L85.2057 173.69L75.6172 170.008L83.1172 151.159L93.2682 155.065Z" fill="#163687"/>
<path d="M84.2102 152.649C84.3456 152.695 84.4342 152.81 84.4759 152.997C84.5175 153.18 84.4967 153.378 84.4238 153.591C84.3509 153.805 84.2415 153.971 84.0956 154.091C83.9498 154.211 83.8092 154.247 83.6738 154.201C83.5436 154.154 83.455 154.039 83.4134 153.857C83.3717 153.675 83.3873 153.477 83.4602 153.258C83.5331 153.044 83.6477 152.878 83.7936 152.758C83.9394 152.643 84.08 152.607 84.2102 152.649Z" fill="#89B2F9"/>
<path d="M94.4029 173.815C94.9446 171.154 92.4654 164.435 90.929 162.346C89.3977 160.258 82.4134 156.56 81.7623 157.2C80.8196 158.128 81.6373 159.013 81.6373 159.013C81.6373 159.013 78.58 157.435 77.9759 158.242C77.3665 159.044 78.3665 160.18 78.3665 160.18C78.3665 160.18 77.2675 160.341 76.8144 161.263C76.3613 162.18 77.0696 162.622 77.0696 162.622C77.0696 162.622 76.2311 162.695 76.0852 163.888C75.9342 165.075 78.2206 165.117 80.08 166.799C81.9342 168.482 82.7988 169.508 83.3092 170.669C83.9238 172.075 85.3196 173.716 86.7259 174.362C88.1321 175.018 94.0175 175.69 94.4029 173.815Z" fill="#EDA93B"/>
<path d="M93.4089 168.695L101.586 176.867L94.7734 185.388L86.8828 173.43L93.4089 168.695Z" fill="#EDA93B"/>
<path d="M87.4611 163.31C87.4195 163.31 87.383 163.294 87.3622 163.263C86.4091 161.81 81.6226 159.143 81.5809 159.117C81.5236 159.086 81.508 159.024 81.5393 158.966C81.5757 158.904 81.6382 158.888 81.6955 158.925C81.8934 159.029 86.5705 161.638 87.5601 163.138C87.5913 163.19 87.5757 163.263 87.5236 163.294C87.5028 163.305 87.482 163.31 87.4611 163.31Z" fill="#163687"/>
<path d="M85.1564 165.128C85.1304 165.128 85.0992 165.117 85.0731 165.091C82.5992 162.794 78.3439 160.299 78.2919 160.279C78.2346 160.242 78.2189 160.18 78.2502 160.122C78.2814 160.065 78.3492 160.044 78.4064 160.081C78.4481 160.101 82.7294 162.607 85.2294 164.919C85.2762 164.961 85.2762 165.034 85.2398 165.086C85.2189 165.117 85.1877 165.128 85.1564 165.128Z" fill="#163687"/>
<path d="M83.3635 166.785C83.327 166.785 83.2958 166.769 83.2697 166.743C82.1603 165.305 77.0666 162.753 77.0145 162.732C76.9572 162.706 76.9364 162.633 76.9676 162.576C76.9937 162.519 77.0666 162.493 77.1239 162.524C77.3374 162.633 82.3166 165.128 83.4624 166.602C83.5041 166.654 83.4937 166.727 83.4364 166.769C83.4103 166.774 83.3843 166.785 83.3635 166.785Z" fill="#163687"/>
<path d="M105.349 180.602C103.031 176.628 99.3385 174.273 99.3385 174.273C99.3385 174.273 99.0365 178.898 91.4062 180.888C91.4062 180.888 92.526 189.987 95.9531 192.518C99.3802 195.055 104.026 193.185 104.026 193.185L106.901 185.68L105.349 180.602Z" fill="#DD4E6A"/>
<path d="M95.6879 191.945C95.6462 191.945 95.615 191.93 95.5889 191.899C93.6514 188.831 92.5837 186.008 92.0316 184.175C91.4327 182.19 91.2921 180.919 91.2816 180.904C91.2764 180.836 91.3233 180.779 91.3806 180.779C91.4483 180.774 91.5056 180.82 91.5056 180.878C91.516 180.93 92.0889 185.951 95.7816 191.774C95.8129 191.831 95.7973 191.899 95.7452 191.93C95.7296 191.94 95.7139 191.945 95.6879 191.945Z" fill="#163687"/>
<path d="M103.968 178.394C103.932 178.394 103.906 178.383 103.885 178.357C102.734 177.139 99.3274 174.701 99.2962 174.675C99.2493 174.644 99.2337 174.571 99.2701 174.519C99.3066 174.472 99.3795 174.456 99.4264 174.493C99.567 174.592 102.89 176.972 104.046 178.212C104.088 178.264 104.088 178.326 104.041 178.378C104.025 178.378 103.989 178.394 103.968 178.394Z" fill="#163687"/>
<path d="M242.062 215.331H131.406C129.49 215.331 127.938 213.779 127.938 211.867V185.924C127.938 184.013 129.49 182.461 131.406 182.461H242.062C243.979 182.461 245.531 184.013 245.531 185.924V211.867C245.531 213.779 243.979 215.331 242.062 215.331Z" fill="white"/>
<path d="M242.068 215.779H131.411C129.25 215.779 127.484 214.023 127.484 211.857V185.914C127.484 183.758 129.24 181.992 131.411 181.992H242.068C244.229 181.992 246 183.747 246 185.914V211.857C246 214.023 244.24 215.779 242.068 215.779ZM131.411 182.914C129.75 182.914 128.401 184.258 128.401 185.914V211.857C128.401 213.518 129.75 214.862 131.411 214.862H242.068C243.729 214.862 245.078 213.518 245.078 211.857V185.914C245.078 184.258 243.729 182.914 242.068 182.914H131.411Z" fill="#163687"/>
<path d="M141.177 192.774C141.177 193.3 141.073 193.805 140.875 194.29C140.672 194.779 140.385 195.206 140.01 195.576C139.641 195.951 139.214 196.238 138.724 196.436C138.24 196.639 137.734 196.738 137.203 196.738C136.677 196.738 136.172 196.639 135.688 196.436C135.198 196.238 134.771 195.951 134.401 195.576C134.026 195.206 133.74 194.779 133.536 194.29C133.339 193.805 133.234 193.3 133.234 192.774C133.234 192.248 133.339 191.743 133.536 191.258C133.74 190.774 134.026 190.347 134.401 189.972C134.771 189.602 135.198 189.316 135.688 189.113C136.172 188.915 136.677 188.811 137.203 188.811C137.734 188.811 138.24 188.915 138.724 189.113C139.214 189.316 139.641 189.602 140.01 189.972C140.385 190.347 140.672 190.774 140.875 191.258C141.073 191.743 141.177 192.248 141.177 192.774Z" fill="#EDA93B"/>
<path d="M145.969 191.19H191.734V194.357H145.969V191.19Z" fill="#89B2F9"/>
<path d="M291.099 176.654H133.781C130.557 176.654 127.938 174.045 127.938 170.821V127.128C127.938 123.915 130.552 121.295 133.781 121.295H291.099C294.323 121.295 296.943 123.904 296.943 127.128V170.821C296.943 174.045 294.333 176.654 291.099 176.654Z" fill="white"/>
<path d="M291.099 177.112H133.781C130.302 177.112 127.484 174.289 127.484 170.826V127.138C127.484 123.669 130.312 120.852 133.781 120.852H291.099C294.578 120.852 297.396 123.674 297.396 127.138V170.826C297.406 174.289 294.578 177.112 291.099 177.112ZM133.781 121.763C130.812 121.763 128.396 124.174 128.396 127.138V170.826C128.396 173.789 130.812 176.201 133.781 176.201H291.099C294.068 176.201 296.484 173.789 296.484 170.826V127.138C296.484 124.174 294.068 121.763 291.099 121.763H133.781Z" fill="#163687"/>
<path d="M150.224 138.68C150.224 139.123 150.182 139.555 150.099 139.982C150.01 140.415 149.885 140.831 149.719 141.238C149.547 141.639 149.344 142.024 149.099 142.389C148.854 142.753 148.578 143.092 148.266 143.399C147.958 143.706 147.62 143.988 147.255 144.227C146.891 144.472 146.505 144.675 146.099 144.847C145.693 145.014 145.276 145.139 144.849 145.227C144.417 145.311 143.979 145.352 143.542 145.352C143.104 145.352 142.672 145.311 142.24 145.227C141.807 145.139 141.391 145.014 140.984 144.847C140.578 144.675 140.193 144.472 139.828 144.227C139.464 143.988 139.13 143.706 138.818 143.399C138.505 143.092 138.229 142.753 137.984 142.389C137.745 142.024 137.536 141.639 137.37 141.238C137.203 140.831 137.073 140.415 136.99 139.982C136.901 139.555 136.859 139.123 136.859 138.68C136.859 138.243 136.901 137.811 136.99 137.383C137.073 136.951 137.203 136.535 137.37 136.128C137.536 135.727 137.745 135.342 137.984 134.977C138.229 134.613 138.505 134.274 138.818 133.967C139.13 133.654 139.464 133.378 139.828 133.139C140.193 132.894 140.578 132.686 140.984 132.519C141.391 132.352 141.807 132.227 142.24 132.139C142.672 132.055 143.104 132.014 143.542 132.014C143.979 132.014 144.417 132.055 144.849 132.139C145.276 132.227 145.693 132.352 146.099 132.519C146.505 132.686 146.891 132.894 147.255 133.139C147.62 133.378 147.958 133.654 148.266 133.967C148.578 134.274 148.854 134.613 149.099 134.977C149.344 135.342 149.547 135.727 149.719 136.128C149.885 136.535 150.01 136.951 150.099 137.383C150.182 137.811 150.224 138.243 150.224 138.68Z" fill="#EDA93B"/>
<path d="M158.312 136.014H235.38V141.347H158.312V136.014Z" fill="#89B2F9"/>
<mask id="mask18_746_9389" style="mask-type:luminance" maskUnits="userSpaceOnUse" x="0" y="0" width="352" height="320">
<path d="M352 0H0V320H352V0Z" fill="black" fill-opacity="0.5"/>
</mask>
<g mask="url(#mask18_746_9389)">
<mask id="mask19_746_9389" style="mask-type:luminance" maskUnits="userSpaceOnUse" x="159" y="147" width="81" height="11">
<path d="M239.288 147H159V157.37H239.288V147Z" fill="white"/>
</mask>
<g mask="url(#mask19_746_9389)">
<mask id="mask20_746_9389" style="mask-type:luminance" maskUnits="userSpaceOnUse" x="159" y="147" width="39" height="4">
<path d="M159.82 147.426H197.506V150.769H159.82V147.426Z" fill="white"/>
</mask>
<g mask="url(#mask20_746_9389)">
<path d="M159.984 147.68H197.331V150.011H159.984V147.68Z" fill="#89B2F9"/>
</g>
<mask id="mask21_746_9389" style="mask-type:luminance" maskUnits="userSpaceOnUse" x="200" y="147" width="40" height="4">
<path d="M200.781 147.426H239.223V150.769H200.781V147.426Z" fill="white"/>
</mask>
<g mask="url(#mask21_746_9389)">
<path d="M201.242 147.68H238.589V150.011H201.242V147.68Z" fill="#89B2F9"/>
</g>
<mask id="mask22_746_9389" style="mask-type:luminance" maskUnits="userSpaceOnUse" x="159" y="153" width="51" height="4">
<path d="M159.82 153.598H209.795V156.923H159.82V153.598Z" fill="white"/>
</mask>
<g mask="url(#mask22_746_9389)">
<path d="M159.984 154.434H209.594V156.765H159.984V154.434Z" fill="#89B2F9"/>
</g>
<mask id="mask23_746_9389" style="mask-type:luminance" maskUnits="userSpaceOnUse" x="213" y="153" width="10" height="4">
<path d="M213.891 153.598H222.083V156.923H213.891V153.598Z" fill="white"/>
</mask>
<g mask="url(#mask23_746_9389)">
<path d="M214.367 154.434H221.731V156.765H214.367V154.434Z" fill="#89B2F9"/>
</g>
</g>
</g>
<path d="M242.062 253.712H131.406C129.49 253.712 127.938 252.16 127.938 250.248V224.305C127.938 222.394 129.49 220.842 131.406 220.842H242.062C243.979 220.842 245.531 222.394 245.531 224.305V250.248C245.531 252.16 243.979 253.712 242.062 253.712Z" fill="white"/>
<path d="M242.068 254.16H131.411C129.25 254.16 127.484 252.404 127.484 250.238V224.295C127.484 222.139 129.24 220.373 131.411 220.373H242.068C244.229 220.373 246 222.133 246 224.295V250.238C246 252.404 244.24 254.16 242.068 254.16ZM131.411 221.295C129.75 221.295 128.401 222.639 128.401 224.295V250.238C128.401 251.899 129.75 253.243 131.411 253.243H242.068C243.729 253.243 245.078 251.899 245.078 250.238V224.295C245.078 222.639 243.729 221.295 242.068 221.295H131.411Z" fill="#163687"/>
<path d="M141.177 231.165C141.177 231.691 141.073 232.196 140.875 232.68C140.672 233.165 140.385 233.597 140.01 233.967C139.641 234.337 139.214 234.623 138.724 234.826C138.24 235.024 137.734 235.128 137.203 235.128C136.677 235.128 136.172 235.024 135.688 234.826C135.198 234.623 134.771 234.337 134.401 233.967C134.026 233.597 133.74 233.165 133.536 232.68C133.339 232.196 133.234 231.691 133.234 231.165C133.234 230.639 133.339 230.133 133.536 229.649C133.74 229.165 134.026 228.732 134.401 228.363C134.771 227.993 135.198 227.706 135.688 227.503C136.172 227.3 136.677 227.201 137.203 227.201C137.734 227.201 138.24 227.3 138.724 227.503C139.214 227.706 139.641 227.993 140.01 228.363C140.385 228.732 140.672 229.165 140.875 229.649C141.073 230.133 141.177 230.639 141.177 231.165Z" fill="#EDA93B"/>
<path d="M145.969 229.581H191.734V232.748H145.969V229.581Z" fill="#89B2F9"/>
<mask id="mask24_746_9389" style="mask-type:luminance" maskUnits="userSpaceOnUse" x="0" y="0" width="352" height="308">
<path d="M352 0H0V308H352V0Z" fill="black" fill-opacity="0.5"/>
</mask>
<g mask="url(#mask24_746_9389)">
<mask id="mask25_746_9389" style="mask-type:luminance" maskUnits="userSpaceOnUse" x="132" y="237" width="78" height="12">
<path d="M209.935 237.467H132.602V248.133H209.935V237.467Z" fill="white"/>
</mask>
<g mask="url(#mask25_746_9389)">
<mask id="mask26_746_9389" style="mask-type:luminance" maskUnits="userSpaceOnUse" x="133" y="238" width="37" height="5">
<path d="M133.094 238.8H169.932V242.8H133.094V238.8Z" fill="white"/>
</mask>
<g mask="url(#mask26_746_9389)">
<path d="M133.227 239.722H169.32V241.675H133.227V239.722Z" fill="#89B2F9"/>
</g>
<mask id="mask27_746_9389" style="mask-type:luminance" maskUnits="userSpaceOnUse" x="172" y="238" width="38" height="5">
<path d="M172.602 238.8H209.857V242.8H172.602V238.8Z" fill="white"/>
</mask>
<g mask="url(#mask27_746_9389)">
<path d="M173.125 239.722H209.214V241.675H173.125V239.722Z" fill="#89B2F9"/>
</g>
<mask id="mask28_746_9389" style="mask-type:luminance" maskUnits="userSpaceOnUse" x="133" y="244" width="49" height="5">
<path d="M133.094 244.133H181.932V248.049H133.094V244.133Z" fill="white"/>
</mask>
<g mask="url(#mask28_746_9389)">
<path d="M133.227 245.388H181.169V247.341H133.227V245.388Z" fill="#89B2F9"/>
</g>
<mask id="mask29_746_9389" style="mask-type:luminance" maskUnits="userSpaceOnUse" x="184" y="244" width="10" height="5">
<path d="M184.602 244.133H193.935V248.049H184.602V244.133Z" fill="white"/>
</mask>
<g mask="url(#mask29_746_9389)">
<path d="M185.797 245.388H192.917V247.341H185.797V245.388Z" fill="#89B2F9"/>
</g>
</g>
</g>
<mask id="mask30_746_9389" style="mask-type:luminance" maskUnits="userSpaceOnUse" x="8" y="296" width="344" height="5">
<path d="M8.60156 296.133H351.841V300.133H8.60156V296.133Z" fill="white"/>
</mask>
<g mask="url(#mask30_746_9389)">
<path d="M8.90625 297.081H351.74V299.883H8.90625V297.081Z" fill="#163687"/>
</g>
<path d="M190.779 78.6022H181.466C180.872 78.6022 180.398 78.123 180.398 77.5345V71.3158C180.398 70.722 180.872 70.248 181.466 70.248H190.779C191.367 70.248 191.846 70.722 191.846 71.3158V77.5345C191.836 78.123 191.362 78.6022 190.779 78.6022Z" fill="#163687"/>
<path d="M189.573 71.8828H182.656V68.2318C182.656 66.3255 184.208 64.7734 186.115 64.7734C188.021 64.7734 189.573 66.3255 189.573 68.2318V71.8828ZM183.339 71.2005H188.891V68.237C188.891 66.7109 187.641 65.4661 186.115 65.4661C184.583 65.4661 183.339 66.7109 183.339 68.237V71.2005Z" fill="#163687"/>
<path d="M155.021 90.972H152.375V88.6855H157.568V108.613H155.026V90.972H155.021Z" fill="#163687"/>
<path d="M161.562 106.602C166.807 102.383 171.781 98.4144 171.781 94.3363C171.781 92.1279 170.807 90.4821 168.104 90.4821C165.51 90.4821 164.182 92.2686 164.078 94.779H161.646C161.807 90.5394 164.49 88.3311 168.083 88.3311C171.839 88.3311 174.26 90.5394 174.26 94.2321C174.26 99.1956 168.901 103.409 165.344 106.3H174.844V108.394H161.562V106.602Z" fill="#163687"/>
<path d="M178.966 108.779C177.997 108.779 177.258 108.029 177.258 107.071C177.258 106.102 178.003 105.362 178.966 105.362C179.878 105.362 180.628 106.112 180.628 107.071C180.617 108.039 179.872 108.779 178.966 108.779Z" fill="#163687"/>
<path d="M193.156 104.175H182.938V102.269L192.63 88.873H195.635V101.993H198.401V104.165H195.635V108.602H193.156V104.175ZM193.271 101.998V91.498L185.839 101.998H193.271Z" fill="#163687"/>
</svg>
