<svg width="19" height="17" viewBox="0 0 19 17" fill="none" xmlns="http://www.w3.org/2000/svg">
<path d="M12.6271 1.41797H6.241C3.04794 1.41797 1.45142 2.5513 1.45142 4.81797V12.1846C1.45142 12.4963 1.81063 12.7513 2.24968 12.7513H12.6271C15.8202 12.7513 17.4167 11.618 17.4167 9.3513V4.81797C17.4167 2.5513 15.8202 1.41797 12.6271 1.41797Z" fill="#3789FB" fill-opacity="0.3"/>
<path d="M7.00142 4.63636V9H6.39631L4.17827 5.79972H4.13778V9H3.4794V4.63636H4.08878L6.30895 7.84091H6.34943V4.63636H7.00142ZM9.3212 9.06605C8.99876 9.06605 8.72106 8.99716 8.4881 8.85938C8.25657 8.72017 8.07759 8.52486 7.95117 8.27344C7.82617 8.0206 7.76367 7.72443 7.76367 7.38494C7.76367 7.04972 7.82617 6.75426 7.95117 6.49858C8.07759 6.2429 8.25373 6.04332 8.47958 5.89986C8.70685 5.75639 8.97248 5.68466 9.27646 5.68466C9.46112 5.68466 9.64009 5.7152 9.81339 5.77628C9.98668 5.83736 10.1422 5.93324 10.28 6.06392C10.4178 6.1946 10.5265 6.36435 10.606 6.57315C10.6855 6.78054 10.7253 7.03267 10.7253 7.32955V7.5554H8.12376V7.07812H10.101C10.101 6.91051 10.0669 6.76207 9.99876 6.63281C9.93058 6.50213 9.83469 6.39915 9.71112 6.32386C9.58896 6.24858 9.44549 6.21094 9.28072 6.21094C9.10174 6.21094 8.94549 6.25497 8.81197 6.34304C8.67987 6.42969 8.57759 6.54332 8.50515 6.68395C8.43413 6.82315 8.39862 6.97443 8.39862 7.13778V7.51065C8.39862 7.7294 8.43697 7.91548 8.51367 8.06889C8.5918 8.2223 8.70046 8.33949 8.83967 8.42045C8.97887 8.5 9.14151 8.53977 9.32759 8.53977C9.44833 8.53977 9.55842 8.52273 9.65785 8.48864C9.75728 8.45312 9.84322 8.40057 9.91566 8.33097C9.9881 8.26136 10.0435 8.17543 10.0819 8.07315L10.6848 8.18182C10.6365 8.35937 10.5499 8.51491 10.4249 8.64844C10.3013 8.78054 10.1458 8.88352 9.95827 8.95739C9.77219 9.02983 9.55984 9.06605 9.3212 9.06605ZM12.1358 9L11.1728 5.72727H11.8311L12.4725 8.13068H12.5044L13.1479 5.72727H13.8063L14.4455 8.12003H14.4775L15.1145 5.72727H15.7729L14.812 9H14.1621L13.4973 6.63707H13.4483L12.7836 9H12.1358Z" fill="#094394"/>
</svg>
