<svg width="27" height="27" viewBox="0 0 27 27" fill="none" xmlns="http://www.w3.org/2000/svg">
<path d="M25.225 8.9525C25.1975 8.9525 25.17 8.96625 25.1425 8.96625C25.005 8.99375 24.8675 9.0075 24.7163 9.035C24.1388 9.09 23.52 9.0625 22.8875 8.93875C22.7225 8.8975 22.585 8.87 22.4338 8.815C21.98 8.705 21.5538 8.52625 21.155 8.2925C20.99 8.21 20.825 8.1 20.6737 8.00375C20.0138 7.55 19.45 6.98625 18.9963 6.32625C18.9 6.175 18.79 6.01 18.7075 5.845C18.4738 5.44625 18.295 5.02 18.185 4.56625C18.13 4.415 18.1025 4.2775 18.0613 4.1125C17.9375 3.48 17.91 2.86125 17.965 2.28375C17.9925 2.1325 18.0063 1.995 18.0337 1.8575C18.0337 1.83 18.0475 1.8025 18.0475 1.775C18.2125 0.9225 17.58 0.125 16.7 0.125H8.34C8.1475 0.125 7.955 0.13875 7.77625 0.1525C7.61125 0.16625 7.46 0.18 7.295 0.2075C7.13 0.22125 6.965 0.24875 6.81375 0.27625C3.5 0.7575 1.3825 2.86125 0.90125 6.18875C0.87375 6.34 0.84625 6.505 0.8325 6.67C0.805 6.835 0.79125 6.98625 0.7775 7.15125C0.76375 7.33 0.75 7.5225 0.75 7.715V18.66C0.75 18.8525 0.76375 19.045 0.7775 19.2237C0.79125 19.3888 0.805 19.54 0.8325 19.705C0.84625 19.87 0.87375 20.035 0.90125 20.1863C1.3825 23.5138 3.5 25.6175 6.81375 26.0987C6.965 26.1262 7.13 26.1538 7.295 26.1675C7.46 26.195 7.61125 26.2087 7.77625 26.2225C7.955 26.2362 8.1475 26.25 8.34 26.25H19.285C19.4775 26.25 19.67 26.2362 19.8488 26.2225C20.0138 26.2087 20.165 26.195 20.33 26.1675C20.495 26.1538 20.66 26.1262 20.8113 26.0987C24.125 25.6175 26.2425 23.5138 26.7237 20.1863C26.7512 20.035 26.7788 19.87 26.7925 19.705C26.82 19.54 26.8337 19.3888 26.8475 19.2237C26.8612 19.045 26.875 18.8525 26.875 18.66V10.3C26.875 9.42 26.0775 8.7875 25.225 8.9525ZM7.28125 13.1875H14.1562C14.72 13.1875 15.1875 13.655 15.1875 14.2188C15.1875 14.7825 14.72 15.25 14.1562 15.25H7.28125C6.7175 15.25 6.25 14.7825 6.25 14.2188C6.25 13.655 6.7175 13.1875 7.28125 13.1875ZM19.6562 20.75H7.28125C6.7175 20.75 6.25 20.2825 6.25 19.7188C6.25 19.155 6.7175 18.6875 7.28125 18.6875H19.6562C20.22 18.6875 20.6875 19.155 20.6875 19.7188C20.6875 20.2825 20.22 20.75 19.6562 20.75Z" fill="#094394" fill-opacity="0.7"/>
</svg>
