<svg width="48" height="48" viewBox="0 0 48 48" fill="none" xmlns="http://www.w3.org/2000/svg">
<path d="M18 4C12.76 4 8.5 8.26 8.5 13.5C8.5 18.64 12.52 22.8 17.76 22.98C17.92 22.96 18.08 22.96 18.2 22.98C18.24 22.98 18.26 22.98 18.3 22.98C18.32 22.98 18.32 22.98 18.34 22.98C23.46 22.8 27.48 18.64 27.5 13.5C27.5 8.26 23.24 4 18 4Z" fill="black" fill-opacity="0.5"/>
<path d="M28.1599 28.3017C22.5799 24.5817 13.4799 24.5817 7.85992 28.3017C5.31992 30.0017 3.91992 32.3017 3.91992 34.7617C3.91992 37.2217 5.31992 39.5017 7.83992 41.1817C10.6399 43.0617 14.3199 44.0017 17.9999 44.0017C21.6799 44.0017 25.3599 43.0617 28.1599 41.1817C30.6799 39.4817 32.0799 37.2017 32.0799 34.7217C32.0599 32.2617 30.6799 29.9817 28.1599 28.3017Z" fill="black" fill-opacity="0.5"/>
<path d="M39.9797 14.6802C40.2997 18.5602 37.5397 21.9602 33.7197 22.4202C33.6997 22.4202 33.6997 22.4202 33.6797 22.4202H33.6197C33.4997 22.4202 33.3797 22.4202 33.2797 22.4602C31.3397 22.5602 29.5597 21.9402 28.2197 20.8002C30.2797 18.9602 31.4597 16.2002 31.2197 13.2002C31.0797 11.5802 30.5197 10.1002 29.6797 8.8402C30.4397 8.4602 31.3197 8.2202 32.2197 8.1402C36.1397 7.8002 39.6397 10.7202 39.9797 14.6802Z" fill="black" fill-opacity="0.5"/>
<path d="M43.98 33.1808C43.82 35.1208 42.58 36.8008 40.5 37.9408C38.5 39.0408 35.98 39.5608 33.48 39.5008C34.92 38.2008 35.76 36.5808 35.92 34.8608C36.12 32.3808 34.94 30.0008 32.58 28.1008C31.24 27.0408 29.68 26.2008 27.98 25.5808C32.4 24.3008 37.96 25.1608 41.38 27.9208C43.22 29.4008 44.16 31.2608 43.98 33.1808Z" fill="black" fill-opacity="0.5"/>
</svg>
