<svg width="52" height="55" viewBox="0 0 52 55" fill="none" xmlns="http://www.w3.org/2000/svg">
<path d="M21.9998 14.666C17.1965 14.666 13.2915 18.571 13.2915 23.3743C13.2915 28.086 16.9765 31.8993 21.7798 32.0643C21.9265 32.046 22.0732 32.046 22.1832 32.0643C22.2198 32.0643 22.2382 32.0643 22.2748 32.0643C22.2932 32.0643 22.2932 32.0643 22.3115 32.0643C27.0048 31.8993 30.6898 28.086 30.7082 23.3743C30.7082 18.571 26.8032 14.666 21.9998 14.666Z" fill="black" fill-opacity="0.5"/>
<path d="M31.3133 36.9442C26.1983 33.5342 17.8566 33.5342 12.7049 36.9442C10.3766 38.5026 9.09326 40.6109 9.09326 42.8659C9.09326 45.1209 10.3766 47.2109 12.6866 48.7509C15.2533 50.4742 18.6266 51.3359 21.9999 51.3359C25.3733 51.3359 28.7466 50.4742 31.3133 48.7509C33.6233 47.1926 34.9066 45.1026 34.9066 42.8292C34.8883 40.5742 33.6233 38.4842 31.3133 36.9442Z" fill="black" fill-opacity="0.5"/>
<path d="M39.5 1.99805C34.26 1.99805 30 6.25805 30 11.498C30 16.738 34.26 20.998 39.5 20.998C44.74 20.998 49 16.738 49 11.498C49 6.25805 44.74 1.99805 39.5 1.99805ZM39.5 13.748H36.5C36.09 13.748 35.75 13.408 35.75 12.998C35.75 12.588 36.09 12.248 36.5 12.248H39.5C39.91 12.248 40.25 12.588 40.25 12.998C40.25 13.408 39.91 13.748 39.5 13.748ZM42.5 10.748H36.5C36.09 10.748 35.75 10.408 35.75 9.99805C35.75 9.58805 36.09 9.24805 36.5 9.24805H42.5C42.91 9.24805 43.25 9.58805 43.25 9.99805C43.25 10.408 42.91 10.748 42.5 10.748Z" fill="black" fill-opacity="0.5"/>
<path d="M49.3005 22.0005C49.1205 22.0005 48.9405 21.9305 48.8105 21.8005L46.9505 19.9405C46.6805 19.6705 46.6805 19.2305 46.9505 18.9505C47.2205 18.6805 47.6605 18.6805 47.9405 18.9505L49.8005 20.8105C50.0705 21.0805 50.0705 21.5205 49.8005 21.8005C49.6605 21.9305 49.4805 22.0005 49.3005 22.0005Z" fill="black" fill-opacity="0.5"/>
</svg>
