<svg width="80" height="80" viewBox="0 0 80 80" fill="none" xmlns="http://www.w3.org/2000/svg">
<g id="Push Notification 1" clip-path="url(#clip0_677_673)">
<g id="Mask group">
<mask id="mask0_677_673" style="mask-type:luminance" maskUnits="userSpaceOnUse" x="0" y="0" width="80" height="80">
<g id="Group">
<path id="Vector" d="M0 0H80V80H0V0Z" fill="white"/>
</g>
</mask>
<g mask="url(#mask0_677_673)">
<g id="Group_2">
<path id="Vector_2" d="M40 0C17.9032 0 0 17.9032 0 40C0 62.0958 17.9032 80 40 80C62.0969 80 80 62.0958 80 40C80 17.9032 62.0969 0 40 0ZM56.0687 59.1164H47.0487C46.6898 62.7024 43.6824 65.5169 40 65.5169C36.3176 65.5169 33.3382 62.7024 32.9793 59.1164H23.9313C20.7591 59.1164 18.1935 56.5373 18.1935 53.3787C18.1935 50.4138 20.4552 47.9996 23.3382 47.6958V31.1304C23.3382 21.9444 30.814 14.4821 40.0136 14.4821C49.214 14.4821 56.6898 21.958 56.6898 31.1304V47.6958C59.5727 47.9996 61.8344 50.4138 61.8344 53.3787C61.8344 56.5509 59.2553 59.1164 56.0967 59.1164H56.0687Z" fill="#0D60CF"/>
</g>
</g>
</g>
<path id="Vector_3" d="M52.5361 31.1308C52.5361 24.2345 46.9092 18.6201 39.9985 18.6201C33.0878 18.6201 27.4609 24.2345 27.4609 31.1308V47.6276H52.5225V31.1308H52.5361Z" fill="#0D60CF"/>
<path id="Vector_4" d="M39.9985 61.3791C41.3911 61.3791 42.564 60.4135 42.8949 59.1162H37.1289C37.4462 60.4135 38.6191 61.3791 39.9985 61.3791Z" fill="#0D60CF"/>
<path id="Vector_5" d="M56.0694 51.7646H23.932C23.0487 51.7646 22.332 52.4824 22.332 53.3649C22.332 54.2473 23.0631 54.9649 23.932 54.9649H56.0694C56.9385 54.9649 57.6696 54.234 57.6696 53.3649C57.6696 52.4958 56.9529 51.7646 56.0694 51.7646Z" fill="#0D60CF"/>
</g>
<defs>
<clipPath id="clip0_677_673">
<rect width="80" height="80" fill="white"/>
</clipPath>
</defs>
</svg>
