<svg width="80" height="80" viewBox="0 0 80 80" fill="none" xmlns="http://www.w3.org/2000/svg">
<g id="Quotation Manager 1">
<path id="Vector" d="M70.3432 40.0017C70.3432 60.267 55.276 76.6943 36.6884 76.6943C18.0997 76.6943 3.03125 60.267 3.03125 40.0017C3.03125 19.735 18.0997 3.30762 36.6884 3.30762C55.276 3.30762 70.3432 19.735 70.3432 40.0017Z" fill="#004AAD"/>
<g id="Mask group">
<mask id="mask0_677_682" style="mask-type:luminance" maskUnits="userSpaceOnUse" x="0" y="28" width="61" height="52">
<g id="Group">
<path id="Vector_2" d="M0 28.1768H60.9214V79.9992H0V28.1768Z" fill="white"/>
</g>
</mask>
<g mask="url(#mask0_677_682)">
<g id="Group_2">
<path id="Vector_3" d="M60.2089 69.6152C53.9175 75.5438 45.7249 79.1325 36.7777 79.1325C16.9923 79.1325 0.895809 61.5843 0.895809 40.0147C0.895809 36.1294 1.41801 32.3736 2.39048 28.8292L1.69005 28.335C0.635229 32.0998 0.101562 36.0134 0.101562 40.0147C0.101562 45.4125 1.07196 50.6478 2.9846 55.5785C3.90394 57.9478 5.0411 60.2321 6.36588 62.3707C7.67712 64.4867 9.18433 66.4776 10.8437 68.2878C12.5031 70.097 14.3292 71.7392 16.271 73.1698C18.2316 74.6141 20.3289 75.8552 22.5011 76.8563C27.0225 78.9416 31.8255 79.9983 36.7777 79.9983C41.7277 79.9983 46.5307 78.9416 51.0521 76.8563C53.2255 75.8552 55.3215 74.6141 57.2821 73.1698C58.5475 72.2381 59.7639 71.2152 60.9157 70.1152L60.2089 69.6152Z" fill="#004AAD"/>
</g>
</g>
</g>
<g id="Mask group_2">
<mask id="mask1_677_682" style="mask-type:luminance" maskUnits="userSpaceOnUse" x="12" y="0" width="62" height="52">
<g id="Group_3">
<path id="Vector_4" d="M12.543 0H73.6478V51.7396H12.543V0Z" fill="white"/>
</g>
</mask>
<g mask="url(#mask1_677_682)">
<g id="Group_4">
<path id="Vector_5" d="M13.3445 10.4066C19.6359 4.47921 27.8285 0.889364 36.7767 0.889364C56.5611 0.889364 72.6565 18.4374 72.6565 40.0082C72.6565 43.8925 72.1343 47.6482 71.1629 51.1927L71.8623 51.6869C72.9171 47.922 73.4507 44.0085 73.4507 40.0082C73.4507 34.6105 72.4803 29.374 70.5677 24.4445C69.6493 22.075 68.5111 19.7897 67.1875 17.6522C65.8751 15.5351 64.3679 13.5441 62.7085 11.7339C61.0493 9.9259 59.2231 8.28268 57.2813 6.85197C55.3207 5.40877 53.2245 4.16783 51.0513 3.16554C46.5297 1.08027 41.7267 0.0234375 36.7767 0.0234375C31.8247 0.0234375 27.0217 1.08027 22.5001 3.16554C20.3279 4.16783 18.2308 5.40877 16.2702 6.85197C15.0049 7.78494 13.7895 8.80657 12.6367 9.90657L13.3445 10.4066Z" fill="#004AAD"/>
</g>
</g>
</g>
<path id="Vector_6" d="M46.3455 22.6355C44.0657 22.1483 41.6639 22.7975 39.7487 24.3569C37.7721 25.9818 36.5559 28.3535 36.4043 30.9202C36.2219 33.9413 37.4679 36.8978 39.7785 38.7822C42.0287 40.634 44.9469 41.154 47.5311 40.1796C47.6531 40.1149 47.8047 40.1467 47.8959 40.244C48.0179 40.3415 48.0783 40.4718 48.0485 40.634C47.6839 49.6009 40.1433 53.1102 38.6237 53.7278C38.1369 53.9227 37.8337 54.4418 37.9249 54.9947L38.1073 56.4882C38.1985 57.2362 38.9577 57.7233 39.6269 57.4311C56.8341 49.9589 55.5881 36.4104 54.7981 32.4149C54.0377 28.4182 51.0273 23.5773 46.3455 22.6355ZM47.7135 28.5155C47.5927 28.6131 47.4707 28.646 47.3191 28.646C47.1367 28.646 46.9543 28.5484 46.8323 28.4182C45.5249 26.6969 43.2757 27.6069 43.2757 27.6069C42.9713 27.736 42.6065 27.574 42.4847 27.2487C42.3627 26.9235 42.5153 26.5338 42.8187 26.4044C42.9405 26.3389 45.9203 25.1693 47.7751 27.6069C48.0179 27.8662 47.9573 28.2891 47.7135 28.5155Z" fill="white"/>
<path id="Vector_7" d="M26.6184 22.6355C24.4108 22.1483 22.0876 22.7975 20.2332 24.3569C18.3213 25.9818 17.1442 28.3535 16.9975 30.9202C16.8209 33.9413 18.0268 36.8978 20.2628 38.7822C22.4406 40.634 25.2648 41.154 27.7656 40.1796C27.8836 40.1149 28.0304 40.1467 28.1186 40.244C28.2366 40.3415 28.2952 40.4718 28.2654 40.634C27.9124 49.6009 20.6158 53.1102 19.1443 53.7278C18.6743 53.9227 18.3798 54.4418 18.468 54.9947L18.6446 56.4882C18.7328 57.2362 19.4686 57.7233 20.1162 57.4311C36.7688 49.9589 35.563 36.4104 34.7974 32.4149C34.0616 28.4182 31.1492 23.5773 26.6184 22.6355ZM27.9422 28.5155C27.7072 28.7433 27.2946 28.6789 27.118 28.4182C25.8528 26.6969 23.6762 27.6069 23.6762 27.6069C23.3816 27.736 23.0286 27.574 22.9106 27.2487C22.7936 26.9235 22.9404 26.5338 23.2348 26.4044C23.3518 26.3389 26.2356 25.1693 28.0304 27.6069C28.2366 27.8662 28.1772 28.2891 27.9422 28.5155Z" fill="white"/>
</g>
</svg>
