<svg width="80" height="80" viewBox="0 0 80 80" fill="none" xmlns="http://www.w3.org/2000/svg">
<g id="slack">
<g id="slack_2">
<path id="vector" d="M66.2505 37.4999C69.702 37.4999 72.5 34.7019 72.5 31.2504C72.5 27.799 69.7018 25.001 66.2503 25.001C62.7985 25.001 60 27.7992 60 31.251V37.4999H66.2505ZM48.75 37.4999C52.2018 37.4999 55 34.7017 55 31.2499V13.751C55 10.2992 52.2018 7.50098 48.75 7.50098C45.2982 7.50098 42.5 10.2992 42.5 13.751V31.2499C42.5 34.7017 45.2982 37.4999 48.75 37.4999Z" fill="#2EB67D"/>
<path id="vector_2" d="M13.7495 42.5001C10.298 42.5001 7.50001 45.2981 7.50001 48.7496C7.50001 52.201 10.2983 54.999 13.7497 54.999C17.2015 54.999 20 52.2008 20 48.749V42.5001H13.7495ZM31.25 42.5001C27.7982 42.5001 25 45.2983 25 48.7501V66.249C25 69.7008 27.7982 72.499 31.25 72.499C34.7018 72.499 37.5 69.7008 37.5 66.249V48.7501C37.5 45.2983 34.7018 42.5001 31.25 42.5001Z" fill="#E01E5A"/>
<path id="vector_3" d="M42.5011 66.2505C42.5011 69.702 45.299 72.5 48.7505 72.5C52.202 72.5 55 69.7017 55 66.2503C55 62.7985 52.2018 60 48.75 60L42.5011 60L42.5011 66.2505ZM42.5011 48.75C42.5011 52.2018 45.2993 55 48.7511 55L66.25 55C69.7018 55 72.5 52.2018 72.5 48.75C72.5 45.2982 69.7018 42.5 66.25 42.5L48.7511 42.5C45.2993 42.5 42.5011 45.2982 42.5011 48.75Z" fill="#ECB22E"/>
<path id="vector_4" d="M37.4989 13.7495C37.4989 10.298 34.701 7.5 31.2495 7.5C27.798 7.5 25 10.2983 25 13.7497C25 17.2015 27.7982 20 31.25 20L37.4989 20L37.4989 13.7495ZM37.4989 31.25C37.4989 27.7982 34.7007 25 31.2489 25L13.75 25C10.2982 25 7.5 27.7982 7.5 31.25C7.5 34.7018 10.2982 37.5 13.75 37.5L31.2489 37.5C34.7007 37.5 37.4989 34.7018 37.4989 31.25Z" fill="#36C5F0"/>
</g>
</g>
</svg>
