<svg width="32" height="32" viewBox="0 0 32 32" fill="none" xmlns="http://www.w3.org/2000/svg">
<path d="M24 2.66602H8C5.78667 2.66602 4 4.43935 4 6.62602V21.1727C4 23.3593 5.78667 25.146 8 25.146H9.01333C10.0667 25.146 11.0933 25.5593 11.84 26.306L14.12 28.5593C15.16 29.586 16.84 29.586 17.88 28.5593L20.16 26.306C20.9067 25.5593 21.9333 25.146 22.9867 25.146H24C26.2133 25.146 28 23.3593 28 21.1727V6.62602C28 4.43935 26.2133 2.66602 24 2.66602ZM16 7.39935C17.44 7.39935 18.6 8.57268 18.6 9.99935C18.6 11.4127 17.48 12.546 16.0933 12.5993C16.04 12.5993 15.96 12.5993 15.8933 12.5993C14.4933 12.546 13.3867 11.4127 13.3867 9.99935C13.4 8.57268 14.56 7.39935 16 7.39935ZM19.6667 19.586C17.6533 20.9327 14.3467 20.9327 12.3333 19.586C10.56 18.4127 10.56 16.466 12.3333 15.2793C14.36 13.9327 17.6667 13.9327 19.6667 15.2793C21.44 16.466 21.44 18.3993 19.6667 19.586Z" fill="#094394" fill-opacity="0.85"/>
</svg>
