<svg width="80" height="80" viewBox="0 0 80 80" fill="none" xmlns="http://www.w3.org/2000/svg">
<g id="Teams 1">
<path id="Vector" d="M39.9987 40.8387C38.532 40.8387 37.0654 40.472 35.732 39.772L14.032 28.0719C12.0654 27.0052 10.832 24.9052 10.832 22.5719C10.832 20.2385 12.0654 18.1385 14.032 17.0719L35.732 5.37187C38.3987 3.93854 41.5987 3.93854 44.232 5.37187L65.932 17.0719C67.8987 18.1385 69.132 20.2385 69.132 22.5719C69.132 24.9052 67.8987 27.0052 65.932 28.0719L44.232 39.772C42.932 40.5053 41.4654 40.8387 39.9987 40.8387ZM39.9987 9.27187C39.3654 9.27187 38.6987 9.43854 38.0987 9.77187L16.432 21.4385C15.8654 21.7385 15.832 22.3719 15.832 22.5719C15.832 22.7719 15.8654 23.4052 16.432 23.6719L38.132 35.372C39.332 36.0053 40.6987 36.0053 41.8987 35.372L63.5987 23.6719C64.132 23.3719 64.1987 22.7385 64.1987 22.5719C64.1987 22.3719 64.1654 21.7385 63.5987 21.4719L41.8987 9.77187C41.2987 9.43854 40.632 9.27187 39.9987 9.27187Z" fill="black"/>
<path id="Vector_2" d="M32.6013 75.7323C31.668 75.7323 30.7013 75.499 29.8346 75.0657L9.63464 64.999C6.26797 63.299 4.16797 59.899 4.16797 56.1323V37.0657C4.16797 34.899 5.26797 32.9322 7.1013 31.7989C8.96797 30.6656 11.2013 30.5656 13.1346 31.5322L33.3346 41.599C36.7013 43.299 38.8013 46.6657 38.8013 50.4657V69.5323C38.8013 71.699 37.7013 73.6657 35.868 74.799C34.868 75.4323 33.7346 75.7323 32.6013 75.7323ZM10.368 35.8657C10.1013 35.8657 9.86797 35.9657 9.73464 36.0323C9.53464 36.1657 9.16797 36.4657 9.16797 37.0657V56.1323C9.16797 57.999 10.2013 59.699 11.868 60.5323L32.0346 70.6323C32.568 70.899 33.0013 70.699 33.2013 70.599C33.4013 70.4657 33.768 70.1657 33.768 69.5657V50.499C33.768 48.6323 32.7346 46.9323 31.068 46.099L10.9013 35.999C10.7013 35.899 10.5346 35.8657 10.368 35.8657Z" fill="black"/>
<path id="Vector_3" d="M47.3992 75.7263C46.2659 75.7263 45.1326 75.4263 44.1326 74.7933C42.2992 73.66 41.1992 71.693 41.1992 69.5267V50.46C41.1992 46.6933 43.2992 43.293 46.6659 41.593L66.8326 31.4932C68.7659 30.5265 71.0326 30.6265 72.8659 31.7598C74.6992 32.8932 75.7992 34.8597 75.7992 37.0263V56.0933C75.7992 59.8597 73.6992 63.2597 70.3326 64.9597L50.1659 75.06C49.2992 75.5267 48.3326 75.7263 47.3992 75.7263ZM69.6326 35.86C69.4659 35.86 69.2992 35.8933 69.0992 35.9933L48.9326 46.0933C47.2659 46.9267 46.2326 48.593 46.2326 50.493V69.56C46.2326 70.16 46.5992 70.46 46.7992 70.5933C46.9992 70.7267 47.4326 70.8933 47.9659 70.6267L68.1326 60.5263C69.7992 59.693 70.8326 57.9933 70.8326 56.1267V37.0597C70.8326 36.4597 70.4659 36.16 70.2659 36.0267C70.1326 35.96 69.8992 35.86 69.6326 35.86Z" fill="black"/>
</g>
</svg>
