<svg width="24" height="24" viewBox="0 0 24 24" fill="none" xmlns="http://www.w3.org/2000/svg">
<path d="M20.9997 6.72656C20.9797 6.72656 20.9497 6.72656 20.9197 6.72656C15.6297 6.19656 10.3497 5.99656 5.11967 6.52656L3.07967 6.72656C2.65967 6.76656 2.28967 6.46656 2.24967 6.04656C2.20967 5.62656 2.50967 5.26656 2.91967 5.22656L4.95967 5.02656C10.2797 4.48656 15.6697 4.69656 21.0697 5.22656C21.4797 5.26656 21.7797 5.63656 21.7397 6.04656C21.7097 6.43656 21.3797 6.72656 20.9997 6.72656Z" fill="#094394"/>
<path d="M8.50074 5.72C8.46074 5.72 8.42074 5.72 8.37074 5.71C7.97074 5.64 7.69074 5.25 7.76074 4.85L7.98074 3.54C8.14074 2.58 8.36074 1.25 10.6907 1.25H13.3107C15.6507 1.25 15.8707 2.63 16.0207 3.55L16.2407 4.85C16.3107 5.26 16.0307 5.65 15.6307 5.71C15.2207 5.78 14.8307 5.5 14.7707 5.1L14.5507 3.8C14.4107 2.93 14.3807 2.76 13.3207 2.76H10.7007C9.64074 2.76 9.62074 2.9 9.47074 3.79L9.24074 5.09C9.18074 5.46 8.86074 5.72 8.50074 5.72Z" fill="#094394"/>
<path d="M15.2123 22.7476H8.79234C5.30234 22.7476 5.16234 20.8176 5.05234 19.2576L4.40234 9.18763C4.37234 8.77763 4.69234 8.41763 5.10234 8.38763C5.52234 8.36763 5.87234 8.67763 5.90234 9.08763L6.55234 19.1576C6.66234 20.6776 6.70234 21.2476 8.79234 21.2476H15.2123C17.3123 21.2476 17.3523 20.6776 17.4523 19.1576L18.1023 9.08763C18.1323 8.67763 18.4923 8.36763 18.9023 8.38763C19.3123 8.41763 19.6323 8.76763 19.6023 9.18763L18.9523 19.2576C18.8423 20.8176 18.7023 22.7476 15.2123 22.7476Z" fill="#094394"/>
<path d="M13.662 17.25H10.332C9.92203 17.25 9.58203 16.91 9.58203 16.5C9.58203 16.09 9.92203 15.75 10.332 15.75H13.662C14.072 15.75 14.412 16.09 14.412 16.5C14.412 16.91 14.072 17.25 13.662 17.25Z" fill="#094394"/>
<path d="M14.5 13.25H9.5C9.09 13.25 8.75 12.91 8.75 12.5C8.75 12.09 9.09 11.75 9.5 11.75H14.5C14.91 11.75 15.25 12.09 15.25 12.5C15.25 12.91 14.91 13.25 14.5 13.25Z" fill="#094394"/>
</svg>
