<svg width="260" height="166" viewBox="0 0 260 166" fill="none" xmlns="http://www.w3.org/2000/svg">
<g id="Union" filter="url(#filter0_bd_586_6211)">
<path fill-rule="evenodd" clip-rule="evenodd" d="M57.8612 31.3125C47.3754 30.9128 38.551 39.0893 38.1514 49.5751L36.5518 91.5446C36.1521 102.03 44.3286 110.855 54.8144 111.254L121.316 113.789C121.377 113.87 121.445 113.948 121.521 114.023L131.587 123.954C132.323 124.681 133.493 124.726 134.283 124.057L145.076 114.921C145.157 114.852 145.231 114.779 145.298 114.703L201.808 116.857C212.293 117.256 221.118 109.08 221.517 98.5942L223.117 56.6247C223.517 46.1389 215.34 37.3145 204.854 36.9149L57.8612 31.3125Z" fill="white" fill-opacity="0.85" shape-rendering="crispEdges"/>
</g>
<defs>
<filter id="filter0_bd_586_6211" x="0.539062" y="0.298828" width="258.594" height="165.231" filterUnits="userSpaceOnUse" color-interpolation-filters="sRGB">
<feFlood flood-opacity="0" result="BackgroundImageFix"/>
<feGaussianBlur in="BackgroundImageFix" stdDeviation="9.5"/>
<feComposite in2="SourceAlpha" operator="in" result="effect1_backgroundBlur_586_6211"/>
<feColorMatrix in="SourceAlpha" type="matrix" values="0 0 0 0 0 0 0 0 0 0 0 0 0 0 0 0 0 0 127 0" result="hardAlpha"/>
<feOffset dy="5"/>
<feGaussianBlur stdDeviation="18"/>
<feComposite in2="hardAlpha" operator="out"/>
<feColorMatrix type="matrix" values="0 0 0 0 0 0 0 0 0 0 0 0 0 0 0 0 0 0 0.12 0"/>
<feBlend mode="normal" in2="effect1_backgroundBlur_586_6211" result="effect2_dropShadow_586_6211"/>
<feBlend mode="normal" in="SourceGraphic" in2="effect2_dropShadow_586_6211" result="shape"/>
</filter>
</defs>
</svg>
