<svg width="58" height="58" viewBox="0 0 58 58" fill="none" xmlns="http://www.w3.org/2000/svg">
<path d="M39.1255 4.83594H18.8738C10.0772 4.83594 4.83301 10.0801 4.83301 18.8768V39.1284C4.83301 45.9193 7.95051 50.5834 13.4363 52.3476C15.0313 52.9034 16.868 53.1693 18.8738 53.1693H39.1255C41.1313 53.1693 42.968 52.9034 44.563 52.3476C50.0488 50.5834 53.1663 45.9193 53.1663 39.1284V18.8768C53.1663 10.0801 47.9222 4.83594 39.1255 4.83594ZM49.5413 39.1284C49.5413 44.3001 47.5113 47.5626 43.4272 48.9159C41.083 44.3001 35.5247 41.0134 28.9997 41.0134C22.4747 41.0134 16.9405 44.2759 14.5722 48.9159H14.548C10.5122 47.6109 8.45801 44.3243 8.45801 39.1526V18.8768C8.45801 12.0618 12.0588 8.46094 18.8738 8.46094H39.1255C45.9405 8.46094 49.5413 12.0618 49.5413 18.8768V39.1284Z" fill="black" fill-opacity="0.5"/>
<path d="M28.9996 19.3359C24.2146 19.3359 20.3479 23.2026 20.3479 27.9876C20.3479 32.7726 24.2146 36.6634 28.9996 36.6634C33.7846 36.6634 37.6512 32.7726 37.6512 27.9876C37.6512 23.2026 33.7846 19.3359 28.9996 19.3359Z" fill="black" fill-opacity="0.5"/>
</svg>
