<svg width="80" height="80" viewBox="0 0 80 80" fill="none" xmlns="http://www.w3.org/2000/svg">
<g id="Visa Manager 1" clip-path="url(#clip0_677_836)">
<path id="Vector" fill-rule="evenodd" clip-rule="evenodd" d="M60.653 40.7024H19.3178C16.6184 40.7024 14.3984 38.4831 14.3984 35.7533V19.435C14.3984 16.7054 16.6184 14.5156 19.3178 14.5156H60.653C63.3825 14.5156 65.6019 16.7054 65.6019 19.435V35.7533C65.6019 38.4831 63.3825 40.7024 60.653 40.7024Z" fill="#1AA1FF"/>
<path id="Vector_2" fill-rule="evenodd" clip-rule="evenodd" d="M60.653 65.4818H19.3178C16.6184 65.4818 14.3984 63.2618 14.3984 60.5625V44.2143C14.3984 41.5145 16.6184 39.2949 19.3178 39.2949H60.653C63.3825 39.2949 65.6019 41.5145 65.6019 44.2143V60.5625C65.6019 63.2618 63.3825 65.4818 60.653 65.4818Z" fill="#1583CF"/>
<path id="Vector_3" fill-rule="evenodd" clip-rule="evenodd" d="M35.6649 62.0624H21.2668C19.5268 62.0624 18.1172 60.6524 18.1172 58.9128V45.8644C18.1172 44.1244 19.5268 42.7148 21.2668 42.7148H35.6649C37.3746 42.7148 38.7842 44.1244 38.7842 45.8644V58.9128C38.7842 60.6524 37.3746 62.0624 35.6649 62.0624Z" fill="#116AA7"/>
<path id="Vector_4" fill-rule="evenodd" clip-rule="evenodd" d="M35.6645 61.0434H21.2665C20.0966 61.0434 19.1367 60.0834 19.1367 58.9136V45.8651C19.1367 44.6951 20.0966 43.7354 21.2665 43.7354H35.6645C36.8343 43.7354 37.7943 44.6951 37.7943 45.8651V58.9136C37.7943 60.0834 36.8343 61.0434 35.6645 61.0434Z" fill="#FEFEFE"/>
<path id="Vector_5" fill-rule="evenodd" clip-rule="evenodd" d="M34.3156 61.0431H22.6172V59.0633C22.6172 56.1835 24.957 53.8438 27.8367 53.8438H29.0961C31.9759 53.8438 34.3156 56.1835 34.3156 59.0633V61.0431Z" fill="#1AA1FF"/>
<path id="Vector_6" fill-rule="evenodd" clip-rule="evenodd" d="M31.3453 61.0425H29.9357V58.9423C29.9357 58.4327 30.2655 58.0127 30.6553 58.0127C31.0457 58.0127 31.3453 58.4327 31.3453 58.9423V61.0425ZM26.9657 61.0425H25.5859V58.9423C25.5859 58.4327 25.8859 58.0127 26.2757 58.0127C26.6662 58.0127 26.9657 58.4327 26.9657 58.9423V61.0425Z" fill="#1791E6"/>
<path id="Vector_7" fill-rule="evenodd" clip-rule="evenodd" d="M28.4658 55.2524C26.2163 55.2524 24.3867 53.4228 24.3867 51.1435C24.3867 48.8933 26.2163 47.0635 28.4658 47.0635C30.7156 47.0635 32.5458 48.8933 32.5458 51.1435C32.5458 53.4228 30.7156 55.2524 28.4658 55.2524Z" fill="#FF9E5C"/>
<path id="Vector_8" fill-rule="evenodd" clip-rule="evenodd" d="M60.1726 45.1151H41.9048C41.5151 45.1151 41.2148 44.8151 41.2148 44.4253C41.2148 44.0349 41.5151 43.7354 41.9048 43.7354H60.1726C60.5322 43.7354 60.8626 44.0349 60.8626 44.4253C60.8626 44.8151 60.5322 45.1151 60.1726 45.1151ZM60.1726 61.0434H41.9048C41.5151 61.0434 41.2148 60.7431 41.2148 60.3534C41.2148 59.9636 41.5151 59.6634 41.9048 59.6634H60.1726C60.5322 59.6634 60.8626 59.9636 60.8626 60.3534C60.8626 60.7431 60.5322 61.0434 60.1726 61.0434ZM60.1726 55.7336H41.9048C41.5151 55.7336 41.2148 55.434 41.2148 55.0436C41.2148 54.6538 41.5151 54.3542 41.9048 54.3542H60.1726C60.5322 54.3542 60.8626 54.6538 60.8626 55.0436C60.8626 55.434 60.5322 55.7336 60.1726 55.7336ZM60.1726 50.4245H41.9048C41.5151 50.4245 41.2148 50.1242 41.2148 49.7345C41.2148 49.3447 41.5151 49.0445 41.9048 49.0445H60.1726C60.5322 49.0445 60.8626 49.3447 60.8626 49.7345C60.8626 50.1242 60.5322 50.4245 60.1726 50.4245Z" fill="#FEFEFE"/>
<path id="Vector_9" fill-rule="evenodd" clip-rule="evenodd" d="M28.7082 37.2856C23.3687 37.2856 19.0195 32.9362 19.0195 27.5969C19.0195 22.2576 23.3687 17.9082 28.7082 17.9082C34.0476 17.9082 38.3967 22.2576 38.3967 27.5969C38.3967 32.9362 34.0476 37.2856 28.7082 37.2856Z" fill="#FFA721"/>
<path id="Vector_10" fill-rule="evenodd" clip-rule="evenodd" d="M27.4179 37.1967C26.8779 37.1362 26.3677 37.0162 25.8581 36.8662C24.8377 34.1669 24.3281 30.3573 24.3281 27.5975C24.3281 24.748 24.8679 20.9084 25.9477 18.2986C26.4877 18.1485 27.0275 18.0287 27.5679 17.9688C26.5777 19.9485 25.7081 24.118 25.7081 27.5975C25.7081 30.9269 26.4877 35.0364 27.4179 37.1967ZM29.8175 17.9688C30.387 18.0287 30.927 18.1485 31.4372 18.2986C32.517 20.9084 33.087 24.748 33.087 27.5975C33.087 30.3573 32.5472 34.1669 31.557 36.8662C31.0475 37.0162 30.5075 37.1362 29.967 37.1967C30.927 35.0364 31.6768 30.9269 31.6768 27.5975C31.6768 24.118 30.8375 19.9485 29.8175 17.9688Z" fill="#FF9024"/>
<path id="Vector_11" fill-rule="evenodd" clip-rule="evenodd" d="M20.5193 32.7864C20.2191 32.3366 19.9789 31.8568 19.7694 31.3768H37.6171C37.4071 31.8568 37.1669 32.3366 36.8969 32.7864H20.5193ZM19.0195 28.3168C19.0195 28.0771 19.0195 27.8368 19.0195 27.5971C19.0195 27.3568 19.0195 27.1468 19.0195 26.9071H38.3671C38.3671 27.1468 38.3967 27.3568 38.3967 27.5971C38.3967 27.8368 38.3671 28.0771 38.3671 28.3168H19.0195ZM19.7694 23.8175C19.9789 23.3375 20.2191 22.8877 20.5193 22.4375H36.8969C37.1669 22.8877 37.4071 23.3375 37.6171 23.8175H19.7694Z" fill="#FF9024"/>
<path id="Vector_12" fill-rule="evenodd" clip-rule="evenodd" d="M60.2933 21.5073H41.3658C40.9753 21.5073 40.6758 21.1774 40.6758 20.7871C40.6758 20.3973 40.9753 20.0977 41.3658 20.0977H60.2933C60.6831 20.0977 60.9833 20.3973 60.9833 20.7871C60.9833 21.1774 60.6831 21.5073 60.2933 21.5073ZM60.2933 35.0955H41.3658C40.9753 35.0955 40.6758 34.796 40.6758 34.4055C40.6758 34.0158 40.9753 33.7155 41.3658 33.7155H60.2933C60.6831 33.7155 60.9833 34.0158 60.9833 34.4055C60.9833 34.796 60.6831 35.0955 60.2933 35.0955ZM60.2933 30.566H41.3658C40.9753 30.566 40.6758 30.2662 40.6758 29.8764C40.6758 29.4862 40.9753 29.1864 41.3658 29.1864H60.2933C60.6831 29.1864 60.9833 29.4862 60.9833 29.8764C60.9833 30.2662 60.6831 30.566 60.2933 30.566ZM60.2933 26.0369H41.3658C40.9753 26.0369 40.6758 25.7071 40.6758 25.3469C40.6758 24.9571 40.9753 24.6267 41.3658 24.6267H60.2933C60.6831 24.6267 60.9833 24.9571 60.9833 25.3469C60.9833 25.7071 60.6831 26.0369 60.2933 26.0369Z" fill="#FEFEFE"/>
<g id="Mask group">
<mask id="mask0_677_836" style="mask-type:luminance" maskUnits="userSpaceOnUse" x="0" y="0" width="80" height="80">
<g id="Group">
<path id="Vector_13" d="M0 0H80V80H0V0Z" fill="white"/>
</g>
</mask>
<g mask="url(#mask0_677_836)">
<g id="Group_2">
<path id="Vector_14" fill-rule="evenodd" clip-rule="evenodd" d="M39.9849 0C62.0922 0 80 17.9078 80 39.9851C80 62.0922 62.0922 80 39.9849 80C17.9077 80 0 62.0922 0 39.9851C0 17.9078 17.9077 0 39.9849 0ZM39.9849 3.38936C60.2022 3.38936 76.61 19.7672 76.61 39.9851C76.61 60.2027 60.2022 76.6107 39.9849 76.6107C19.7676 76.6107 3.38933 60.2027 3.38933 39.9851C3.38933 19.7672 19.7676 3.38936 39.9849 3.38936Z" fill="#1583CF"/>
</g>
</g>
</g>
<path id="Vector_15" fill-rule="evenodd" clip-rule="evenodd" d="M39.9853 2.24805C60.8326 2.24805 77.7204 19.1657 77.7204 39.9836C77.7204 60.8311 60.8326 77.7189 39.9853 77.7189C19.1676 77.7189 2.25 60.8311 2.25 39.9836C2.25 19.1657 19.1676 2.24805 39.9853 2.24805ZM39.9853 3.38774C60.2026 3.38774 76.6104 19.7655 76.6104 39.9836C76.6104 60.2009 60.2026 76.6091 39.9853 76.6091C19.7679 76.6091 3.38967 60.2009 3.38967 39.9836C3.38967 19.7655 19.7679 3.38774 39.9853 3.38774Z" fill="#FF9024"/>
</g>
<defs>
<clipPath id="clip0_677_836">
<rect width="80" height="80" fill="white"/>
</clipPath>
</defs>
</svg>
